<?xml version="1.0" encoding="utf-8"?>
<!-- Generator: Adobe Illustrator 24.1.2, SVG Export Plug-In . SVG Version: 6.00 Build 0)  -->
<svg version="1.1" id="Layer_1" xmlns="http://www.w3.org/2000/svg" xmlns:xlink="http://www.w3.org/1999/xlink" x="0px" y="0px"
	 viewBox="0 0 1000 1000" style="enable-background:new 0 0 1000 1000;" xml:space="preserve">
<style type="text/css">
	.st0{fill:#017AB9;}
</style>
<g>
	<path class="st0" d="M932.7,506.91c0.36,239.08-194.16,433.77-433.43,433.79C259.86,940.73,65.39,746.94,64.68,507.65
		c-0.71-238.84,195.6-435.32,434.6-434.97C738.42,73.02,932.34,267.31,932.7,506.91z M741.68,710.81c0.26-4.95,0.68-9.22,0.68-13.49
		c0.04-51.22,0.25-102.45-0.14-153.66c-0.1-13.59-0.89-27.4-3.44-40.71c-8.52-44.41-30.87-78.41-77.2-89.57
		c-46.18-11.13-87.32-2.93-116.71,38.7c-0.57,0.81-2.31,0.79-4.93,1.6c0-12.85,0-24.76,0-36.83c-32.72,0-64.19,0-95.91,0
		c0,98.46,0,196.13,0,293.84c32.56,0,64.03,0,96.58,0c0-6.14,0-11.43,0-16.72c-0.01-49.76-0.22-99.52,0.06-149.27
		c0.18-32.65,22.15-56.98,51.62-58.1c29.76-1.13,49,16.43,50.47,51.88c2.17,52.1,1.28,104.33,1.68,156.51
		c0.04,5.15,0.01,10.3,0.01,15.84C677.95,710.81,709.42,710.81,741.68,710.81z M387.61,416.87c-32.97,0-64.46,0-96.14,0
		c0,98.43,0,196.06,0,293.83c32.59,0,64.05,0,96.14,0C387.61,612.53,387.61,515.2,387.61,416.87z M338.59,375.5
		c32.77,0.18,55.88-20.61,55.97-50.34c0.09-30.28-22.63-51.72-54.78-51.7c-32.3,0.02-55.29,21.4-55.2,51.32
		C284.68,354.42,306.95,375.33,338.59,375.5z"/>
</g>
</svg>
