<?xml version="1.0" encoding="utf-8"?>
<!-- Generator: Adobe Illustrator 24.1.2, SVG Export Plug-In . SVG Version: 6.00 Build 0)  -->
<svg version="1.1" id="Layer_1" xmlns="http://www.w3.org/2000/svg" xmlns:xlink="http://www.w3.org/1999/xlink" x="0px" y="0px"
	 viewBox="0 0 1000 1000" style="enable-background:new 0 0 1000 1000;" xml:space="preserve">
<style type="text/css">
	.st0{fill:#FEFEFE;}
	.st1{fill:#A4A4A4;}
	.st2{fill:#FE9902;}
	.st3{fill:#FE9A03;}
</style>
<g>
	<path class="st0" d="M513.23,760.02c22.79,1.15,63.77-3.81,104.44-11.99c70.63-14.21,137.39-38.44,198.62-76.87
		c10.47-6.57,20.84-13.35,30.29-21.35c4.41-3.73,6.97-8.62,4.06-14.55c-2.87-5.86-7.93-7.97-14.18-7.17
		c-2.31,0.3-4.59,1.15-6.77,2.03c-8.36,3.36-16.63,6.95-25.02,10.23c-81.73,31.96-166.46,50.6-254,55.89
		c-65.31,3.95-130.19-0.67-194.61-12.34c-94.95-17.21-184.46-49.2-268.15-97.31c-3.7-2.13-7.49-4.09-11.27-6.07
		c-3.56-1.86-6.44-0.6-8.85,2.18c-2.45,2.83-1.73,5.85,0.07,8.55c1.3,1.95,3.02,3.69,4.8,5.23c10.43,9.04,20.63,18.38,31.47,26.91
		C218.56,713.54,348.36,759.81,513.23,760.02z M843.02,599.63c8.39-0.84,16.66,0.52,24.91,1.44c18.7,2.07,24.21,9.73,21.79,28.14
		c-2.72,20.61-9.74,39.95-16.75,59.3c-3.38,9.35-7.29,18.5-10.86,27.78c-1.04,2.7-1.78,5.5,1.17,7.72c2.68,2.02,5,0.35,7.32-0.67
		c1.27-0.56,2.44-1.5,3.48-2.45c37.37-34.51,53.74-78.41,56.3-128.07c0.69-13.38-2.99-17.03-16.07-20.45
		c-33.7-8.82-67.28-6.84-100.61,2.15c-14.51,3.91-28.18,9.89-40.45,18.71c-2.83,2.03-6.23,4.59-4.79,8.64
		c1.52,4.29,5.76,3.3,9.28,3.16c0.71-0.03,1.41-0.22,2.11-0.32C800.81,601.87,821.89,600.35,843.02,599.63z"/>
	<path class="st1" d="M582.22,451.34c5.3-9.75,7.07-20.34,9.75-30.66c13.43-51.82,26.53-103.72,40.39-155.42
		c2.63-9.81,4.31-15,19.19-14.32c8.08,0.37,16.2-0.03,24.29,0.1c6.5,0.1,9.81,4.36,7.91,10.7c-7.8,25.88-15.75,51.71-23.76,77.53
		c-15.6,50.29-31.24,100.57-46.92,150.83c-3.46,11.09-7.92,15.95-20.35,15.2c-7.59-0.46-15.24-0.06-22.86-0.09
		c-10.19-0.05-13.56-2.06-16.35-12.16c-4.25-15.38-7.76-30.96-11.55-46.46c-9.31-38.08-18.66-76.15-27.86-114.25
		c-1.76-7.28-2.95-14.69-5.84-22.75c-11.3,47.16-22.38,93.37-33.44,139.58c-3.39,14.15-6.64,28.34-10.11,42.47
		c-2.52,10.24-6.99,13.58-17.6,13.59c-8.81,0.01-17.63-0.18-26.44,0.06c-7.57,0.2-12.22-3.59-14.34-10.32
		c-8.22-26-16.29-52.04-24.24-78.12c-7.54-24.72-14.97-49.48-22.24-74.28c-7.86-26.83-17.07-53.26-23.86-80.4
		c-2-7.99,0.32-11.04,8.4-11.12c8.81-0.09,17.63-0.02,26.44-0.02c10.41,0,13.67,1.87,16.61,11.78c4.2,14.17,7.82,28.53,11.47,42.86
		c12.06,47.32,24.01,94.68,36.04,142.01c0.14,0.55,0.71,0.98,1.7,2.29c4.73-20.1,9.24-39.38,13.82-58.64
		c9.33-39.27,18.62-78.56,28.09-117.8c5.44-22.54,5.58-22.5,28.48-22.5c5,0,10-0.01,15.01,0c9.33,0.02,13.27,2.57,15.76,11.95
		c4.5,17,8.53,34.13,12.61,51.24c10.5,44.06,20.92,88.13,31.34,132.21C582.11,448,582.07,449.69,582.22,451.34z"/>
	<path class="st2" d="M513.23,760.02c-164.87-0.21-294.66-46.47-409.1-136.62c-10.83-8.53-21.03-17.87-31.47-26.91
		c-1.78-1.54-3.5-3.29-4.8-5.23c-1.8-2.7-2.52-5.72-0.07-8.55c2.41-2.78,5.29-4.04,8.85-2.18c3.78,1.98,7.57,3.94,11.27,6.07
		c83.69,48.11,173.2,80.1,268.15,97.31c64.42,11.68,129.3,16.29,194.61,12.34c87.54-5.29,172.28-23.93,254-55.89
		c8.39-3.28,16.66-6.88,25.02-10.23c2.18-0.88,4.46-1.73,6.77-2.03c6.25-0.8,11.31,1.31,14.18,7.17c2.9,5.93,0.34,10.82-4.06,14.55
		c-9.45,8-19.82,14.77-30.29,21.35c-61.24,38.43-127.99,62.66-198.62,76.87C576.99,756.21,536.02,761.16,513.23,760.02z"/>
	<path class="st1" d="M263.73,474.11c-10.7,11.02-22.13,21.33-36.42,27.59c-29.89,13.11-60.39,15.55-89.95,0.3
		c-22.62-11.67-34-31.95-35.58-57.4c-1.13-18.25,1.05-35.74,11.41-51.6c13.53-20.71,33.45-31.32,56.79-36.18
		c24.15-5.03,48.26-2.7,72.21,2.15c2.07,0.42,4.26,0.27,6.33,0.72c3.63,0.79,8.29,3.85,10.62,1.89c3.14-2.65,1.12-8.02,1.2-12.2
		c0.24-13.22,0.55-26.4-4.46-39.12c-6.3-16-19.16-22.38-34.89-24.97c-29.74-4.9-57.49,2.79-84.76,13.45
		c-0.44,0.17-0.83,0.48-1.28,0.63c-13.26,4.73-17.18,3.95-16.06-10.95c0.14-1.89,0.02-3.81,0.02-5.71
		c0-16.42,1.15-17.72,16.17-24.16c29.76-12.75,60.93-17.07,92.89-14.49c21.9,1.77,42.87,7.7,58.85,24.2
		c12.37,12.77,18.91,28.72,20.61,46.19c3.59,36.96,1.11,74.06,1.38,111.1c0.12,16.91,3.05,32.66,11.22,47.56
		c5.9,10.76,4.71,13.97-5.59,20.75c-4.92,3.24-9.79,6.55-14.68,9.83c-5.95,3.99-11.1,3.57-16.37-1.76
		c-6.24-6.3-11.2-13.35-15.27-21.15C266.96,478.55,266.48,475.82,263.73,474.11z M260.4,409.8c0-2.38-0.26-4.79,0.05-7.13
		c0.69-5.07-1.05-7.56-6.38-8.53c-18.43-3.36-36.97-5.88-55.66-4.4c-12.16,0.96-24.69,2.95-33.88,12.2
		c-13.28,13.37-15.4,29.61-10.08,47.09c4.4,14.44,14.49,21.2,29.23,23.68c10.02,1.69,19.31-0.2,28.57-2.05
		c14.54-2.91,27.18-9.65,36.83-21.73C258.4,437.25,260.61,423.99,260.4,409.8z"/>
	<path class="st1" d="M792.04,512.29c-26.1,0.85-49.44-3.96-72.13-12.74c-15.24-5.9-23.11-25.83-15.53-40.31
		c1.98-3.78,4.64-4.33,8.81-2.88c11.98,4.17,23.45,9.85,35.97,12.43c24.19,4.97,48.34,7.48,72.41-0.73
		c22.72-7.76,28.36-31.48,17.31-47.65c-4.99-7.3-12.81-11.05-20.96-13.8c-21.37-7.23-43.03-13.67-64.14-21.6
		c-24.86-9.34-40.94-27.28-47.08-53.41c-5.51-23.47,6.61-53.28,26.6-67.77c19.02-13.79,40.15-19.73,63.47-20.1
		c22.73-0.36,44.52,3.28,65.69,11.46c14.86,5.74,22.23,24.34,14.58,38.5c-2.96,5.48-8.28,3.57-12.45,1.9
		c-12.26-4.9-24.56-9.61-37.71-11.35c-18.61-2.46-37.15-2.65-55.07,4.1c-12.41,4.68-17.64,15.07-17.89,27.15
		c-0.23,11.51,6.19,20.43,16.47,26.03c16.9,9.2,35.65,13.37,53.7,19.41c14.51,4.85,29.2,9.23,41.78,18.44
		c16.48,12.05,24.89,28.24,26.32,48.61c1.45,20.69-4.59,38.8-18.04,54.13c-11.81,13.46-27.42,21.22-44.57,25.95
		C816.73,511.59,803.67,513.26,792.04,512.29z"/>
	<path class="st3" d="M843.02,599.63c-21.13,0.73-42.21,2.25-63.18,5.09c-0.71,0.1-1.41,0.29-2.11,0.32
		c-3.52,0.14-7.76,1.13-9.28-3.16c-1.44-4.05,1.97-6.61,4.79-8.64c12.27-8.81,25.94-14.79,40.45-18.71
		c33.33-8.99,66.91-10.97,100.61-2.15c13.08,3.42,16.76,7.07,16.07,20.45c-2.56,49.66-18.92,93.55-56.3,128.07
		c-1.04,0.96-2.2,1.89-3.48,2.45c-2.31,1.02-4.64,2.69-7.32,0.67c-2.95-2.23-2.21-5.03-1.17-7.72c3.57-9.28,7.47-18.44,10.86-27.78
		c7.01-19.35,14.03-38.69,16.75-59.3c2.43-18.42-3.08-26.08-21.79-28.14C859.68,600.15,851.41,598.78,843.02,599.63z"/>
</g>
</svg>
