<?xml version="1.0" encoding="utf-8"?>
<!-- Generator: Adobe Illustrator 24.1.2, SVG Export Plug-In . SVG Version: 6.00 Build 0)  -->
<svg version="1.1" id="Layer_1" xmlns="http://www.w3.org/2000/svg" xmlns:xlink="http://www.w3.org/1999/xlink" x="0px" y="0px"
	 viewBox="0 0 1000 1000" style="enable-background:new 0 0 1000 1000;" xml:space="preserve">
<style type="text/css">
	.st0{fill:#BCD0E1;}
	.st1{fill:#BBCFE1;}
	.st2{fill:#CDFFFF;}
	.st3{fill:#CEBBD3;}
	.st4{fill:#CBB9D2;}
	.st5{fill:#CDB9D2;}
	.st6{fill:#6C96BC;}
	.st7{fill:#6B99BE;}
	.st8{fill:#CDDCE9;}
	.st9{fill:#68B8D1;}
	.st10{fill:#FEFEFE;}
	.st11{fill:#5C6BBF;}
	.st12{fill:#3949AA;}
	.st13{fill:#293692;}
	.st14{fill:#FDFDFD;}
</style>
<g>
	<path class="st0" d="M483.62,35c-0.63,0.25-1.27,0.72-1.9,0.72c-3.94,0.03-7.88-0.04-11.83-0.08c0.01-0.21,0.03-0.43,0.06-0.64
		C474.51,35,479.07,35,483.62,35z"/>
	<path class="st1" d="M522.39,35.7c-3.65,0.02-7.3,0.09-10.94,0.03c-0.92-0.02-1.84-0.47-2.76-0.73c4.56,0,9.11,0,13.67,0
		C522.34,35.23,522.35,35.47,522.39,35.7z"/>
	<path class="st2" d="M167.68,711.02c1.51-0.04,3.02-0.13,4.53-0.13c26.34-0.02,52.67-0.02,79.01-0.03
		c-1.05,0.26-2.09,0.75-3.14,0.75c-25.85,0.04-51.69,0.04-77.54,0.01C169.58,711.62,168.63,711.23,167.68,711.02z"/>
	<path class="st3" d="M461.04,35.9c-2.36,0.18-4.71,0.37-7.07,0.55C456.32,36.27,458.68,36.09,461.04,35.9z"/>
	<path class="st4" d="M537.59,36.46c-2.34-0.2-4.67-0.41-7.01-0.61C532.91,36.05,535.25,36.26,537.59,36.46z"/>
	<path class="st4" d="M448.81,36.6c-1.82,0.21-3.65,0.42-5.47,0.63C445.16,37.01,446.98,36.8,448.81,36.6z"/>
	<path class="st5" d="M547.48,37.16c-1.6-0.16-3.21-0.33-4.81-0.49C544.27,36.83,545.87,36.99,547.48,37.16z"/>
	<path class="st6" d="M46.8,448.73c-0.13,0.32-0.26,0.63-0.39,0.95C46.54,449.36,46.67,449.04,46.8,448.73z"/>
	<path class="st6" d="M46.05,460.88c-0.13,0.32-0.26,0.63-0.39,0.95C45.78,461.51,45.91,461.19,46.05,460.88z"/>
	<path class="st7" d="M45.69,512.64c0.12,0.31,0.24,0.62,0.37,0.93C45.94,513.27,45.82,512.96,45.69,512.64z"/>
	<path class="st7" d="M46.43,525.55c0.13,0.31,0.25,0.63,0.38,0.94C46.69,526.18,46.56,525.87,46.43,525.55z"/>
	<path class="st8" d="M251.46,594.72c0.13-0.32,0.27-0.64,0.4-0.95C251.73,594.09,251.59,594.4,251.46,594.72z"/>
	<path class="st9" d="M379.63,105.51c-3.07,0.02-6.14,0.04-9.21,0.06C373.48,104.43,376.55,104.51,379.63,105.51z"/>
</g>
<g>
	<path class="st10" d="M894.85,724.32c2.28-3.51,6.12-6.84,6.56-10.57c1.44-12.3,2.24-24.74,2.24-37.13
		c0.05-123.8-0.11-247.6-0.2-371.4c-0.01-11.19-3.44-20.87-12.28-28.19c-7.37-5.72-14.18-12.45-22.21-17
		c-40.73-23.04-81.85-45.39-122.71-68.2c-72.15-40.27-144.17-80.78-216.37-120.98c-9.64-5.37-20.33-9.66-31.4-5.14
		c-14.68,6-29.37,12.28-43.21,19.96c-66.21,36.76-132.11,74.09-198.18,111.12c-39.24,21.99-78.3,44.33-117.98,65.51
		c-20.93,11.17-31.19,26.9-29.84,50.79c0.82,14.51,0.16,29.1,0.16,43.66c0,110.21-0.13,220.42,0.21,330.63
		c0.03,10.98,2.96,21.95,4.55,32.92c4.36,12.44,15.6,17.37,25.78,23.14c46.58,26.4,93.3,52.53,139.97,78.78
		c64.2,36.11,128.39,72.23,192.59,108.33c15.42,8.67,31.11,16.45,49.33,8.69c7.86-3.35,15.65-7,23.09-11.2
		c70.59-39.82,141.03-79.88,211.64-119.66c39.94-22.51,80.25-44.37,120.02-67.17C883.62,737.22,888.82,730.04,894.85,724.32z"/>
	<path class="st11" d="M114.19,720.32c-1.58-10.97-4.51-21.94-4.55-32.92c-0.34-110.21-0.21-220.42-0.21-330.63
		c0-14.56,0.67-29.15-0.16-43.66c-1.36-23.89,8.91-39.62,29.84-50.79c39.68-21.18,78.74-43.51,117.98-65.51
		c66.06-37.03,131.96-74.35,198.18-111.12c13.84-7.69,28.54-13.96,43.21-19.96c11.07-4.53,21.75-0.23,31.4,5.14
		c72.2,40.19,144.22,80.7,216.37,120.98c40.86,22.81,81.98,45.16,122.71,68.2c8.04,4.55,14.84,11.28,22.21,17
		c-1.74,1.47-3.3,3.25-5.24,4.37c-31.9,18.41-63.78,36.85-95.82,55.01c-10.43,5.91-21.3,11.06-31.96,16.56
		c-1.7-2.41-3.43-4.81-5.11-7.24c-69.58-100.53-164.99-146.13-286.56-131.69c-81.86,9.72-147.24,50.65-196.11,116.65
		c-45.99,62.1-63.1,132.49-54.42,209.26c4.19,37.05,16.45,71.5,33.29,104.5c-34.33,19.72-68.61,39.53-103.04,59.09
		C135.73,709.49,124.87,714.75,114.19,720.32z"/>
	<path class="st12" d="M758.15,352.98c10.67-5.5,21.53-10.64,31.96-16.56c32.04-18.16,63.92-36.6,95.82-55.01
		c1.94-1.12,3.51-2.9,5.24-4.37c8.84,7.32,12.27,16.99,12.28,28.19c0.09,123.8,0.25,247.6,0.2,371.4
		c-0.01,12.39-0.8,24.83-2.24,37.13c-0.44,3.73-4.28,7.06-6.56,10.57c-1.26-1.42-2.26-3.31-3.82-4.19
		c-34.63-19.41-69.28-38.77-104.03-57.97c-8.73-4.82-17.78-9.05-26.68-13.55c-41.38-22.98-82.75-45.98-124.19-68.85
		c-1.31-0.72-3.31-0.21-4.98-0.28c-1.31-1.76-2.24-4.22-3.99-5.18c-37.75-20.67-75.62-41.12-113.38-61.79
		c-5.08-2.78-9.65-6.5-14.45-9.79c34.54-19.98,69.14-39.86,103.58-60c9.08-5.31,17.7-11.4,26.53-17.13
		c1.14,0.37,2.29,0.74,3.43,1.11c0.56-0.26,1.12-0.51,1.68-0.77c38.27-22,76.55-43.97,114.77-66.07
		C752.52,358.01,755.21,355.29,758.15,352.98z"/>
	<path class="st13" d="M760.32,648.61c8.9,4.5,17.96,8.73,26.68,13.55c34.74,19.2,69.4,38.56,104.03,57.97
		c1.56,0.88,2.56,2.77,3.82,4.19c-6.03,5.72-11.23,12.9-18.24,16.92c-39.78,22.79-80.08,44.66-120.02,67.17
		c-70.6,39.78-141.05,79.85-211.64,119.66c-7.44,4.2-15.23,7.84-23.09,11.2c-18.22,7.77-33.91-0.02-49.33-8.69
		c-64.2-36.1-128.39-72.22-192.59-108.33c-46.66-26.24-93.39-52.38-139.97-78.78c-10.18-5.77-21.43-10.71-25.78-23.14
		c10.68-5.57,21.54-10.83,32.01-16.78c34.42-19.56,68.7-39.37,103.04-59.09c1.58,2.5,3.18,4.99,4.74,7.51
		c51.01,82.81,124.7,131.4,221.07,142.6c73.09,8.49,140.59-9.65,200.9-52.4C710.96,717.34,739.59,686.49,760.32,648.61z"/>
	<path class="st14" d="M760.32,648.61c-20.73,37.88-49.36,68.73-84.38,93.55c-60.3,42.74-127.81,60.89-200.9,52.4
		c-96.37-11.19-170.06-59.79-221.07-142.6c-1.55-2.52-3.16-5.01-4.74-7.51c-16.84-33-29.1-67.45-33.29-104.5
		c-8.68-76.76,8.43-147.15,54.42-209.26c48.88-66,114.25-106.92,196.11-116.65c121.57-14.44,216.98,31.16,286.56,131.69
		c1.68,2.43,3.4,4.82,5.11,7.24c-2.93,2.32-5.63,5.04-8.83,6.89c-38.21,22.1-76.5,44.07-114.77,66.07
		c-0.56,0.26-1.12,0.51-1.68,0.77c-1.14-0.37-2.29-0.74-3.43-1.11c-0.59-1.31-1.02-2.73-1.79-3.92
		c-52.85-81.03-173.29-86.49-234.63-10.65c-37.57,46.45-43.89,113.74-15.17,161.66c0.85,1.88,1.53,3.87,2.58,5.63
		c32.81,54.97,97.09,82.51,159.45,67.69c39.5-9.39,70.23-31.44,91.28-66.51c1.68,0.07,3.67-0.44,4.98,0.28
		C677.56,602.64,718.93,625.64,760.32,648.61z"/>
	<path class="st11" d="M377.84,572.68c-28.71-47.92-22.4-115.21,15.17-161.66c61.34-75.84,181.78-70.38,234.63,10.65
		c0.78,1.19,1.2,2.61,1.79,3.92c-8.83,5.73-17.45,11.82-26.53,17.13c-34.45,20.14-69.04,40.02-103.58,60
		c-0.86,0.19-1.83,0.19-2.56,0.6c-28.94,16.49-57.9,32.92-86.74,49.59C399.13,559.21,388.56,566.07,377.84,572.68z"/>
	<path class="st13" d="M377.84,572.68c10.72-6.6,21.29-13.46,32.19-19.76c28.83-16.67,57.8-33.1,86.74-49.59
		c0.73-0.42,1.7-0.41,2.56-0.6c4.8,3.29,9.37,7.01,14.45,9.79c37.75,20.67,75.63,41.12,113.38,61.79c1.75,0.96,2.68,3.42,3.99,5.18
		c-21.05,35.08-51.78,57.13-91.28,66.51c-62.36,14.82-126.64-12.72-159.45-67.69C379.36,576.54,378.69,574.56,377.84,572.68z"/>
	<path class="st11" d="M632.87,426.7c0.56-0.26,1.12-0.51,1.68-0.77C633.99,426.19,633.43,426.44,632.87,426.7z"/>
</g>
</svg>
