<?xml version="1.0" encoding="utf-8"?>
<!-- Generator: Adobe Illustrator 24.1.2, SVG Export Plug-In . SVG Version: 6.00 Build 0)  -->
<svg version="1.1" id="Layer_1" xmlns="http://www.w3.org/2000/svg" xmlns:xlink="http://www.w3.org/1999/xlink" x="0px" y="0px"
	 viewBox="0 0 1000 1000" style="enable-background:new 0 0 1000 1000;" xml:space="preserve">
<style type="text/css">
	.st0{fill:#EF5034;}
</style>
<g>
	<path class="st0" d="M509.08,829c-6.29,0-12.59,0-18.88,0c-6.87-4.35-14.65-7.75-20.45-13.24c-19.3-18.28-37.94-37.27-56.75-56.06
		c-69.58-69.54-139.15-139.09-208.67-208.69c-12.21-12.22-25.7-23.4-33.34-39.5c0-8.01,0-16.02,0-24.03
		c8.5-17.28,23.4-29.08,36.56-42.3c55.1-55.32,110.37-110.47,165.59-165.67c2.18-2.18,4.45-4.26,7.18-6.85
		c24.14,24.14,48.03,47.89,71.62,71.96c1.54,1.58,1.46,5.7,0.82,8.32c-5.63,23.04,2.86,45.28,22.87,56.87
		c5.01,2.9,6.4,5.93,6.39,11.36c-0.18,54.91-0.19,109.83,0.01,164.74c0.02,5.79-1.61,8.95-6.86,12.01
		c-19.65,11.47-28.37,34.28-22.38,56.2c5.5,20.12,24.73,35.52,45.11,36.15c24.03,0.73,43.55-12.47,50.73-34.3
		c6.91-21.04-0.75-44.13-19.4-56.57c-4.6-3.07-6.3-6.13-6.28-11.66c0.22-54.05,0.13-108.11,0.15-162.16c0-2.42,0.24-4.83,0.45-8.65
		c3.1,2.88,5.19,4.71,7.14,6.66c18.01,17.98,35.86,36.14,54.1,53.89c4.74,4.61,6.26,8.43,4.47,15.35
		c-8.3,31.98,20.04,64.55,52.26,60.84c29.91-3.44,49.89-28.37,45.92-57.28c-3.9-28.36-30.82-46.71-60.52-41.71
		c-3.19,0.54-7.89-0.72-10.16-2.93c-21.5-20.96-42.74-42.2-63.71-63.69c-2.2-2.25-3.53-6.95-2.95-10.08
		c5.91-31.94-16.88-62.81-48.47-60.32c-16.41,1.29-24.78-5.3-34.32-15.2c-17.07-17.71-34.7-34.87-52.08-52.27
		c-1.97-1.98-3.82-4.07-6.17-6.6c18.9-18.9,37.47-37.46,56.03-56.02c21.69-21.68,45.87-21.8,67.57-0.11
		c93.26,93.2,186.49,186.43,279.69,279.69c21.59,21.6,21.47,45.96-0.16,67.6c-90.6,90.6-181.24,181.16-271.74,271.86
		C531.2,815.88,521.95,824.89,509.08,829z"/>
</g>
</svg>
