<?xml version="1.0" encoding="utf-8"?>
<!-- Generator: Adobe Illustrator 24.1.2, SVG Export Plug-In . SVG Version: 6.00 Build 0)  -->
<svg version="1.1" id="Layer_1" xmlns="http://www.w3.org/2000/svg" xmlns:xlink="http://www.w3.org/1999/xlink" x="0px" y="0px"
	 viewBox="0 0 1000 1000" style="enable-background:new 0 0 1000 1000;" xml:space="preserve">
<style type="text/css">
	.st0{fill:#FFFFFF;}
</style>
<g>
	<path class="st0" d="M417.2,695.62c-0.17-0.1-0.63-0.55-1.17-0.67c-1.62-0.35-3.27-0.65-4.92-0.84
		c-23.25-2.55-46.01-7.4-68.04-15.24c-39.11-13.93-71.15-36.91-92.09-73.61c-16.64-29.18-23.62-61.08-26.17-94.2
		c-1.72-22.31-1.7-44.54,3.45-66.48c6.21-26.44,18.45-49.78,36.07-70.44c1.63-1.91,2.67-5.74,1.95-8.04
		c-11.05-35.25-8.06-69.81,4.22-104.09c1.52-4.23,4.12-6.46,8.33-5.77c13.27,2.18,26.84,3.49,39.63,7.34
		c24.46,7.38,46.33,20.47,67.77,34.17c2.19,1.4,5.34,2.48,7.79,2.1c23.81-3.7,47.44-8.87,71.36-11.45
		c45.78-4.95,91.02-0.1,135.56,11.26c3.91,1,6.5,0.1,9.74-1.77c15.66-9.03,31.17-18.45,47.38-26.4
		c18.18-8.92,37.38-15.11,58.04-15.4c5.49-0.08,9.07,1.45,10.49,7.32c1.91,7.86,4.92,15.47,6.61,23.37
		c5.64,26.28,5.84,52.48-2.89,78.24c-1.31,3.85-0.65,6.31,1.98,9.38c23.07,26.82,36.61,57.72,39.57,93.16
		c2.48,29.74-0.02,59.11-6.88,88.02c-10.09,42.49-31.54,77.64-68.61,102.11c-25.79,17.02-54.55,26.35-84.62,32.05
		c-10.97,2.08-22.05,3.56-33.22,5.33c0.24,0.92,0.21,1.67,0.57,2.04c19.61,20.31,26.05,45.57,26.31,72.7
		c0.37,39.37,0.37,78.75-0.29,118.11c-0.32,19.22,13.85,27.48,30.35,22.47c11.9-3.61,23.57-8.22,34.97-13.21
		c145.03-63.48,241.7-197.03,255.84-352.86c6-66.07-3.02-130.05-27.22-191.68C839.48,200.86,698.08,96.08,535.72,82.56
		c-57.13-4.76-113.04,0.98-167.7,18.36c-84.15,26.76-154.09,74.52-208.43,144.02c-68.05,87.02-97.71,186.13-89.45,296.4
		c3.93,52.46,17.73,102.3,40.63,149.62c26.41,54.58,62.89,101.42,109.24,140.45c41.84,35.24,88.68,61.8,140.72,78.84
		c17.95,5.88,30.95-3.84,30.85-22.48c-0.13-23.33-0.36-46.66-0.58-69.98c-0.02-1.8-0.23-3.59-0.38-5.74
		c-1.97,0.22-3.37,0.41-4.77,0.52c-16.97,1.31-34.03,4.41-50.89,3.56c-42.53-2.15-75.1-20.06-91.92-61.84
		c-9.4-23.34-23.88-43.31-46.11-56.73c-4.55-2.75-8.56-6.67-12.15-10.65c-4.88-5.41-3.41-9.74,3.43-12.27
		c10.18-3.75,20.19-1.97,29.97,1.25c22.23,7.33,37.51,22.88,50.42,41.83c6.95,10.2,14.74,20.57,24.32,28.11
		c30.05,23.65,63.05,20.45,96.3,7.3c1.76-0.7,3.11-3.51,3.82-5.62c3.16-9.43,5.14-19.36,9.25-28.33
		C406.13,710.86,412.11,703.52,417.2,695.62z M286.47,761.07c0.72-1.07,2.88-2.87,3.14-4.91c0.58-4.57-5.4-10.28-10.09-9.48
		c-1.88,0.32-4.5,2.9-4.77,4.74C274.06,756.16,279.79,761.26,286.47,761.07z M315.34,777.45c0.95-0.83,4.16-2.36,5.15-4.79
		c1.32-3.26-4.3-7.46-9.51-7.62c-3.48-0.11-6.9,0.16-7.49,4.6C302.99,773.49,307.67,777.17,315.34,777.45z M382.84,766.35
		c-7.58,0.13-13.02,3.86-11.59,6.9c1.16,2.47,4.84,4.74,7.7,5.2c4.81,0.76,10.56-3.78,9.32-6.76
		C387.18,769.05,383.9,767.33,382.84,766.35z M348.12,783.92c2.58-2.47,7.05-4.77,7.31-7.46c0.45-4.79-4.48-5.96-8.56-5.89
		c-4.01,0.07-8.73,0.92-8.71,6C338.17,781.62,342.85,782.15,348.12,783.92z M267.24,733.27c0.02-6.1-4.48-11.51-8.28-10.8
		c-1.78,0.33-4.11,2.7-4.5,4.5c-0.85,3.99,4.08,9.78,7.88,9.36C264.35,736.11,266.14,734,267.24,733.27z M252.13,707.79
		c-4.45-3.24-7.3-5.57-10.49-7.3c-0.39-0.21-3.7,2.82-3.64,4.27c0.17,4.41,3.11,7.3,7.56,7.41
		C247.14,712.2,248.77,710.12,252.13,707.79z M224.7,683.94c-2.11,2.32-3.34,3.67-4.57,5.01c2.22,1.78,4.27,3.94,6.78,5.13
		c0.75,0.36,2.79-1.99,4.23-3.1C229.22,688.87,227.29,686.77,224.7,683.94z"/>
	<path d="M417.2,695.62c-5.1,7.9-11.07,15.24-14.89,23.58c-4.11,8.97-6.09,18.9-9.25,28.33c-0.71,2.11-2.06,4.93-3.82,5.62
		c-33.25,13.15-66.25,16.35-96.3-7.3c-9.58-7.54-17.37-17.91-24.32-28.11c-12.91-18.94-28.19-34.5-50.42-41.83
		c-9.78-3.23-19.79-5-29.97-1.25c-6.84,2.52-8.32,6.85-3.43,12.27c3.59,3.98,7.6,7.91,12.15,10.65
		c22.23,13.42,36.71,33.39,46.11,56.73c16.82,41.78,49.39,59.69,91.92,61.84c16.86,0.85,33.92-2.25,50.89-3.56
		c1.4-0.11,2.8-0.3,4.77-0.52c0.15,2.15,0.37,3.94,0.38,5.74c0.21,23.33,0.45,46.66,0.58,69.98c0.11,18.65-12.89,28.36-30.85,22.48
		c-52.05-17.05-98.88-43.6-140.72-78.84c-46.35-39.04-82.83-85.87-109.24-140.45c-22.9-47.32-36.7-97.17-40.63-149.62
		c-8.27-110.27,21.4-209.38,89.45-296.4c54.35-69.5,124.28-117.26,208.43-144.02c54.66-17.38,110.57-23.12,167.7-18.36
		c162.36,13.52,303.75,118.3,363.36,270.09c24.2,61.63,33.21,125.61,27.22,191.68C912.17,700.16,815.49,833.7,670.47,897.19
		c-11.41,4.99-23.07,9.6-34.97,13.21c-16.51,5.01-30.67-3.25-30.35-22.47c0.66-39.36,0.66-78.74,0.29-118.11
		c-0.26-27.13-6.7-52.39-26.31-72.7c-0.36-0.37-0.33-1.12-0.57-2.04c11.17-1.77,22.25-3.25,33.22-5.33
		c30.07-5.71,58.83-15.03,84.62-32.05c37.07-24.47,58.52-59.62,68.61-102.11c6.87-28.92,9.36-58.28,6.88-88.02
		c-2.96-35.45-16.5-66.34-39.57-93.16c-2.63-3.06-3.29-5.53-1.98-9.38c8.73-25.76,8.53-51.96,2.89-78.24
		c-1.7-7.9-4.7-15.51-6.61-23.37c-1.43-5.86-5-7.4-10.49-7.32c-20.65,0.29-39.85,6.48-58.04,15.4
		c-16.21,7.95-31.71,17.37-47.38,26.4c-3.24,1.87-5.83,2.76-9.74,1.77c-44.54-11.35-89.78-16.21-135.56-11.26
		c-23.92,2.59-47.55,7.75-71.36,11.45c-2.45,0.38-5.6-0.7-7.79-2.1c-21.45-13.7-43.31-26.79-67.77-34.17
		c-12.79-3.86-26.36-5.16-39.63-7.34c-4.21-0.69-6.82,1.54-8.33,5.77c-12.29,34.28-15.27,68.84-4.22,104.09
		c0.72,2.3-0.32,6.13-1.95,8.04c-17.62,20.65-29.87,43.99-36.07,70.44c-5.15,21.94-5.17,44.17-3.45,66.48
		c2.55,33.12,9.53,65.02,26.17,94.2c20.93,36.7,52.97,59.68,92.09,73.61c22.03,7.84,44.79,12.69,68.04,15.24
		c1.65,0.18,3.3,0.48,4.92,0.84C416.57,695.07,417.04,695.52,417.2,695.62z"/>
	<path d="M286.47,761.07c-6.68,0.19-12.41-4.91-11.72-9.64c0.27-1.84,2.89-4.42,4.77-4.74c4.69-0.8,10.67,4.9,10.09,9.48
		C289.35,758.2,287.19,760,286.47,761.07z"/>
	<path d="M315.34,777.45c-7.67-0.28-12.35-3.96-11.85-7.82c0.58-4.44,4.01-4.7,7.49-4.6c5.21,0.16,10.83,4.36,9.51,7.62
		C319.5,775.09,316.29,776.62,315.34,777.45z"/>
	<path d="M382.84,766.35c1.07,0.98,4.34,2.7,5.43,5.33c1.24,2.98-4.51,7.52-9.32,6.76c-2.86-0.45-6.54-2.73-7.7-5.2
		C369.82,770.21,375.26,766.48,382.84,766.35z"/>
	<path d="M348.12,783.92c-5.27-1.77-9.95-2.3-9.97-7.35c-0.02-5.08,4.7-5.93,8.71-6c4.08-0.07,9.02,1.09,8.56,5.89
		C355.17,779.15,350.7,781.45,348.12,783.92z"/>
	<path d="M267.24,733.27c-1.09,0.73-2.89,2.84-4.89,3.06c-3.8,0.42-8.73-5.37-7.88-9.36c0.38-1.81,2.71-4.17,4.5-4.5
		C262.75,721.76,267.26,727.17,267.24,733.27z"/>
	<path d="M252.13,707.79c-3.36,2.33-4.98,4.41-6.56,4.37c-4.46-0.1-7.39-2.99-7.56-7.41c-0.06-1.45,3.25-4.49,3.64-4.27
		C244.82,702.22,247.68,704.55,252.13,707.79z"/>
	<path d="M224.7,683.94c2.6,2.83,4.52,4.94,6.44,7.04c-1.45,1.11-3.48,3.46-4.23,3.1c-2.51-1.19-4.55-3.34-6.78-5.13
		C221.36,687.6,222.58,686.26,224.7,683.94z"/>
</g>
</svg>
