<?xml version="1.0" encoding="utf-8"?>
<!-- Generator: Adobe Illustrator 24.1.2, SVG Export Plug-In . SVG Version: 6.00 Build 0)  -->
<svg version="1.1" id="Layer_1" xmlns="http://www.w3.org/2000/svg" xmlns:xlink="http://www.w3.org/1999/xlink" x="0px" y="0px"
	 viewBox="0 0 1000 1000" style="enable-background:new 0 0 1000 1000;" xml:space="preserve">
<style type="text/css">
	.st0{fill:#E65F53;}
	.st1{fill:#E55A4D;}
	.st2{fill:#E5E2D5;}
	.st3{fill:#F5F3EB;}
	.st4{fill:#B6B5AC;}
	.st5{fill:#B03A30;}
	.st6{fill:#B24036;}
	.st7{fill:#E5F6E9;}
	.st8{fill:#E5473A;}
	.st9{fill:#E6A094;}
</style>
<g>
	<path class="st0" d="M502.39,47.07c233.28-4.37,439.83,194.1,437.92,445.16c-1.85,243.74-197.66,442.19-439.79,442.21
		C257.05,934.47,60.98,734.75,61.17,487.32C61.36,236.1,269.71,41.07,502.39,47.07z M905.65,492.11
		c-3.15-235.02-183-414.1-413.11-411.35C271.77,83.41,93.17,270.03,96.22,494.87c3.1,227.75,185.99,406.66,412.76,403.77
		C726.6,895.87,908.56,709.38,905.65,492.11z"/>
	<path class="st1" d="M726.31,292.2c23.18-10.46,51.05,7.32,53.58,34.53c0.69,7.4-0.15,14.93-0.29,22.41
		c-19.02,13.23-38.03,26.46-57.05,39.69c-1.93,1.63-3.86,3.27-5.79,4.9c-2.69,1.2-5.64,2.03-8.03,3.66
		c-60.71,41.58-121.4,83.19-181.98,124.95c-7.7,5.31-14.79,11.52-22.16,17.31c-4.52-1.66-9.64-2.46-13.48-5.11
		c-34.7-23.87-69.06-48.25-103.76-72.12c-30.49-20.98-61.29-41.51-91.96-62.23c-4.32-2.9-8.63-5.79-12.95-8.69
		c-1.3,4-3.74,8-3.74,12c-0.13,95.92,0,191.85,0.08,287.78c-26.76,7.35-57.94-14.05-57.82-46.61
		c0.38-103.03,0.08-206.06,0.11-309.08c0.01-19.86,8.33-35.75,26.71-43.33c7.65-3.15,17.81-0.19,26.83-0.01
		c1.01,1.09,1.88,2.38,3.06,3.25c70.9,52.69,141.89,105.25,212.64,158.13c7.48,5.59,13.01,4.93,20.01-0.42
		c18.34-14.01,37.15-27.41,55.66-41.22C619.46,372.1,672.87,332.13,726.31,292.2z"/>
	<path class="st2" d="M295.4,400.19c30.66,20.73,61.47,41.26,91.96,62.23c34.7,23.87,69.06,48.25,103.76,72.12
		c3.84,2.65,8.96,3.45,13.49,5.1c2.74,3.27,4.91,7.35,8.28,9.71c47.87,33.61,96.01,66.84,143.84,100.52
		c18.31,12.89,35.99,26.69,53.96,40.07c-106.02,0.16-212.05,0.33-318.07,0.48c-29.15,0.04-58.29,0.16-87.44-0.13
		c-5.87-0.06-11.72-1.81-17.58-2.78c0-90.35-0.07-180.7,0.14-271.06C287.75,410.33,283.98,401.39,295.4,400.19z"/>
	<path class="st3" d="M726.31,292.2c-53.44,39.94-106.85,79.91-160.32,119.8c-18.51,13.8-37.32,27.2-55.66,41.22
		c-7,5.35-12.52,6.01-20.01,0.42c-70.75-52.88-141.74-105.45-212.64-158.13c-1.18-0.87-2.05-2.16-3.06-3.25
		c6.29-1.18,12.59-3.39,18.88-3.39c137.97-0.2,275.94-0.2,413.92,0C713.72,288.85,720.01,291.03,726.31,292.2z"/>
	<path class="st4" d="M710.68,689.95c-17.97-13.38-35.65-27.18-53.96-40.07c-47.83-33.68-95.97-66.9-143.84-100.52
		c-3.37-2.37-5.55-6.44-8.28-9.71c7.37-5.79,14.45-11.99,22.16-17.3c60.58-41.77,121.27-83.38,181.98-124.95
		c2.39-1.64,5.34-2.46,8.03-3.66c-0.1,98.87-0.2,197.73-0.3,296.6C714.53,690.2,712.61,690.08,710.68,689.95z"/>
	<path class="st5" d="M722.55,388.83c19.02-13.23,38.03-26.46,57.05-39.69c0.21,100.96,0.62,201.91,0.45,302.87
		c-0.04,20.73-10.5,32.69-30.72,37.04c-8.66,1.86-17.82,1.41-26.75,2.01C722.57,590.31,722.56,489.57,722.55,388.83z"/>
	<path class="st6" d="M722.55,388.83c0.01,100.74,0.02,201.48,0.03,302.23c-2.04-0.24-4.08-0.48-6.12-0.73
		c0.1-98.86,0.2-197.73,0.3-296.6C718.69,392.09,720.62,390.46,722.55,388.83z"/>
	<path class="st7" d="M295.4,400.19c-11.41,1.2-7.64,10.13-7.66,16.27c-0.21,90.35-0.14,180.7-0.14,271.06
		c-0.87,1-1.75,1.99-2.63,2.98c-0.6-1.24-1.19-2.48-1.78-3.72c-0.25-98.43-0.5-196.85-0.74-295.28
		C286.76,394.4,291.08,397.3,295.4,400.19z"/>
	<path class="st8" d="M282.44,391.5c0.25,98.43,0.5,196.85,0.74,295.28c-0.41,1.33-0.82,2.65-1.23,3.98
		c-1.06,0.17-2.11,0.34-3.17,0.51c-0.08-95.92-0.21-191.85-0.08-287.77C278.71,399.5,281.14,395.5,282.44,391.5z"/>
	<path class="st9" d="M281.95,690.76c0.41-1.33,0.82-2.65,1.23-3.98c0.6,1.24,1.19,2.48,1.79,3.72
		C283.97,690.59,282.96,690.68,281.95,690.76z"/>
</g>
</svg>
