<?xml version="1.0" encoding="utf-8"?>
<!-- Generator: Adobe Illustrator 24.1.2, SVG Export Plug-In . SVG Version: 6.00 Build 0)  -->
<svg version="1.1" id="Layer_1" xmlns="http://www.w3.org/2000/svg" xmlns:xlink="http://www.w3.org/1999/xlink" x="0px" y="0px"
	 viewBox="0 0 1000 750" style="enable-background:new 0 0 1000 750;" xml:space="preserve">
<style type="text/css">
	.st0{fill:#03ACD7;}
	.st1{fill:#00ABD6;}
	.st2{fill:#04ADD7;}
</style>
<g>
	<path class="st0" d="M23,166.95c2.78-3.43,5.75-6.72,8.28-10.32c2.34-3.34,5.22-4.62,9.27-4.59c16.07,0.14,32.13,0.06,48.2,0.06
		c51.6,0,103.2,0,154.79,0c1.18,0,2.57-0.36,3.46,0.15c0.95,0.55,1.43,1.92,2.07,2.96c0.09,0.14-0.14,0.48-0.23,0.73
		c-5.23,14.96-1.62,12.55-16.32,12.61c-67.53,0.27-135.06,0.43-202.59,0.59c-2.31,0.01-4.63-0.41-6.95-0.62
		C23,167.99,23,167.47,23,166.95z"/>
	<path class="st1" d="M605.42,261.93c-7.66,11.18-14.86,23-23.34,33.84c-29.29,37.45-66.96,62-113.97,71.12
		c-45.28,8.78-88.4,3.75-127.63-22.26c-37.26-24.71-59.71-58.99-65.91-103.49c-7.36-52.79,7.82-99.13,40.35-140.51
		c23.32-29.66,52.07-52.24,87.49-65.65c35.19-13.32,71.48-19.1,108.68-10.53c47.45,10.92,81.96,38.57,102.83,82.75
		c4.37,9.26,4.13,9.7-5.73,12.28c-24.84,6.51-49.72,12.84-74.5,19.58c-5.18,1.41-8.75,0.48-11.95-3.65
		c-11.08-14.3-26.06-22.12-43.52-25.64c-19.79-3.98-38.1,0.43-55.33,10.18c-22.98,13-40.34,31.03-48.22,56.67
		c-7.49,24.37-8.25,48.76,5.31,71.48c15.77,26.4,40.12,37,70.21,34.99c27.71-1.85,48.53-15.96,64.6-37.87
		c2.08-2.84,4.07-5.74,6.09-8.63c0.13-0.19,0.11-0.48,0.27-1.22c-1.47,0-2.83,0-4.19,0c-27.17,0-54.34,0.01-81.51,0
		c-11.56,0-14.84-4.7-10.1-15.17c7.03-15.54,14.5-30.88,21.61-46.39c3.03-6.59,7.75-9.37,15.1-9.34
		c46.63,0.18,93.27,0.09,139.91,0.09c1.56,0,3.12,0,4.81,0c4.95-15.08,11.48-29.25,19.94-42.48c20.93-32.75,47.43-59.44,83.16-76.07
		C731.83,35.77,755,29.91,778.93,26.8c20.99-2.72,42.06-3.28,62.71,1.68c55.66,13.37,95.53,45.3,114.51,100.38
		c7.09,20.57,8.12,42.09,7.16,63.75c-3.56,80.23-68.19,145.41-136.34,167.72c-19.52,6.39-39.47,10.62-59.86,10.79
		c-65.63,0.56-117.37-24.88-150.88-82.92c-2.46-4.26-4.33-8.9-6.19-13.47C608.21,270.28,606.75,265.68,605.42,261.93z M795.54,108.8
		c-2.87,0.14-5.77,0.04-8.6,0.44c-42.63,6.05-76.93,30.01-89.48,78.05c-13.14,50.33,22.46,96.7,74.58,97.17
		c19.52,0.18,36.88-6.28,52.86-16.84c30.98-20.47,47.28-49.13,46.2-86.48C869.92,140.23,836.72,108.91,795.54,108.8z"/>
	<path class="st2" d="M91.85,125.63c3.7-4.67,7.23-9.49,11.21-13.9c1.1-1.21,3.55-1.69,5.38-1.69
		c53.52-0.09,107.03-0.08,160.55-0.05c3.77,0,4.21,0.9,2.3,4.12c-0.07,0.11-0.14,0.22-0.21,0.33
		c-10.37,15.36-5.83,13.01-23.33,12.98c-50.51-0.09-101.02-0.27-151.54-0.43c-1.24,0-2.49-0.16-3.73-0.25
		C92.27,126.38,92.06,126.01,91.85,125.63z"/>
	<path class="st0" d="M132.95,210.74c3.16-5.47,5.55-10.07,8.44-14.32c0.83-1.22,3.12-2.04,4.74-2.04
		c29.9-0.12,59.81-0.07,89.71-0.11c2.75,0,3.82,1.23,3.63,3.81c-0.22,2.99-0.63,5.97-0.69,8.96c-0.07,3.61-1.93,4.63-5.27,4.6
		c-17.24-0.13-34.47-0.11-51.71-0.17c-14.23-0.05-28.47-0.11-42.7-0.21C137.48,211.25,135.85,210.99,132.95,210.74z"/>
</g>
</svg>
