<?xml version="1.0" encoding="UTF-8" standalone="no"?>
<!DOCTYPE svg PUBLIC "-//W3C//DTD SVG 20010904//EN"
              "http://www.w3.org/TR/2001/REC-SVG-20010904/DTD/svg10.dtd">

<svg xmlns="http://www.w3.org/2000/svg"
     width="5.55556in" height="5.55556in"
     viewBox="0 0 400 400">
  <path id="Selection"
        fill="none" stroke="black" stroke-width="1"
        d="M 170.64,19.00
           C 185.76,-2.22 220.02,-1.29 231.67,23.00
             234.95,29.83 235.08,33.65 235.00,41.00
             234.96,44.41 234.81,45.69 234.00,49.00
             234.00,49.00 274.00,71.58 274.00,71.58
             274.00,71.58 314.00,95.00 314.00,95.00
             319.36,88.93 322.38,87.53 330.00,85.63
             333.02,84.87 335.85,84.08 339.00,84.08
             358.55,84.05 376.27,100.97 374.82,121.00
             374.10,130.86 370.33,139.19 363.00,145.90
             356.58,151.77 351.13,151.88 349.02,155.27
             347.79,157.26 348.00,160.70 348.00,163.00
             348.00,163.00 348.00,237.00 348.00,237.00
             348.00,239.29 347.79,242.76 349.02,244.73
             351.02,247.92 355.79,247.69 362.99,254.18
             370.41,260.88 375.58,271.86 374.82,282.00
             373.34,301.48 357.87,316.74 338.00,315.96
             332.48,315.74 326.79,314.31 322.00,311.54
             319.40,310.03 314.83,306.24 312.00,306.25
             309.93,306.26 306.82,308.25 305.00,309.28
             305.00,309.28 290.00,317.85 290.00,317.85
             290.00,317.85 252.00,339.85 252.00,339.85
             248.60,341.79 237.54,347.60 235.77,350.33
             234.30,352.59 235.03,359.98 235.00,363.00
             234.81,378.83 223.45,392.19 208.00,395.48
             204.97,396.13 201.13,396.03 198.00,396.00
             174.16,395.71 160.65,373.00 166.00,351.00
             166.00,351.00 126.00,328.42 126.00,328.42
             126.00,328.42 86.00,305.00 86.00,305.00
             66.89,326.31 31.04,315.06 26.08,287.00
             25.61,284.30 25.10,281.75 25.32,279.00
             26.06,269.78 29.32,261.59 36.04,255.09
             43.14,248.22 49.23,247.43 50.98,244.70
             52.21,242.78 52.00,239.25 52.00,237.00
             52.00,237.00 52.00,163.00 52.00,163.00
             52.00,160.71 52.21,157.24 50.98,155.27
             48.84,151.86 44.06,152.45 37.01,145.90
             29.77,139.16 25.90,130.83 25.18,121.00
             23.78,101.73 40.06,84.80 59.00,84.04
             70.78,83.56 78.11,87.91 87.00,95.00
             87.00,95.00 117.00,76.72 117.00,76.72
             117.00,76.72 166.00,49.00 166.00,49.00
             163.65,39.34 164.74,27.26 170.64,19.00 Z
           M 181.00,68.46
           C 178.44,66.87 176.24,64.71 173.00,65.35
             173.00,65.35 154.00,75.85 154.00,75.85
             154.00,75.85 111.00,100.72 111.00,100.72
             107.62,102.64 96.85,107.89 95.90,111.21
             95.07,112.96 95.80,116.06 95.90,118.00
             96.06,120.74 95.07,125.67 95.90,127.67
             97.21,129.78 100.95,131.78 103.00,132.99
             103.00,132.99 119.00,142.28 119.00,142.28
             119.00,142.28 168.00,170.85 168.00,170.85
             174.14,174.38 185.94,182.09 192.00,184.00
             192.00,184.00 192.00,73.00 192.00,73.00
             187.50,71.94 184.95,70.91 181.00,68.46 Z
           M 233.00,171.42
           C 233.00,171.42 282.00,143.28 282.00,143.28
             282.00,143.28 298.00,134.15 298.00,134.15
             300.17,132.89 303.43,131.26 304.23,128.79
             305.14,126.75 304.22,123.26 304.23,121.00
             303.75,114.96 305.77,112.53 303.39,109.61
             301.70,107.54 287.40,99.82 284.00,97.80
             284.00,97.80 244.00,74.72 244.00,74.72
             240.97,72.99 229.44,65.83 227.00,65.35
             223.76,64.71 221.56,66.87 219.00,68.46
             210.00,74.05 209.02,70.70 209.00,81.00
             209.00,81.00 209.00,185.00 209.00,185.00
             209.00,185.00 233.00,171.42 233.00,171.42 Z
           M 133.00,170.40
           C 133.00,170.40 105.00,154.01 105.00,154.01
             105.00,154.01 90.00,145.47 90.00,145.47
             85.23,143.75 80.17,148.80 76.00,151.12
             74.41,152.00 72.06,152.97 71.02,154.49
             69.77,156.33 70.00,159.82 70.00,162.00
             70.00,162.00 70.00,247.00 70.00,247.00
             70.00,247.00 87.00,254.29 87.00,254.29
             87.00,254.29 96.00,250.15 96.00,250.15
             96.00,250.15 116.00,238.60 116.00,238.60
             116.00,238.60 183.00,200.00 183.00,200.00
             183.00,200.00 133.00,170.40 133.00,170.40 Z
           M 313.00,146.09
           C 313.00,146.09 304.00,150.58 304.00,150.58
             304.00,150.58 285.00,161.42 285.00,161.42
             285.00,161.42 240.00,187.28 240.00,187.28
             240.00,187.28 219.00,199.00 219.00,199.00
             219.00,199.00 219.00,201.00 219.00,201.00
             219.00,201.00 288.00,240.85 288.00,240.85
             288.00,240.85 305.00,250.80 305.00,250.80
             307.51,252.29 310.96,254.73 314.00,254.23
             316.17,253.87 319.05,251.63 321.00,250.46
             328.91,245.73 329.98,247.98 330.00,238.00
             330.00,238.00 330.00,153.00 330.00,153.00
             330.00,153.00 313.00,146.09 313.00,146.09 Z
           M 121.00,255.58
           C 121.00,255.58 103.00,266.00 103.00,266.00
             103.00,266.00 96.06,271.21 96.06,271.21
             96.06,271.21 96.06,282.00 96.06,282.00
             96.06,282.00 96.06,289.79 96.06,289.79
             96.06,289.79 112.00,300.15 112.00,300.15
             112.00,300.15 154.00,324.42 154.00,324.42
             154.00,324.42 173.00,334.76 173.00,334.76
             173.00,334.76 192.00,327.00 192.00,327.00
             192.00,327.00 192.00,215.00 192.00,215.00
             192.00,215.00 121.00,255.58 121.00,255.58 Z
           M 209.00,228.00
           C 209.00,228.00 209.00,250.00 209.00,250.00
             209.00,250.00 209.00,327.00 209.00,327.00
             219.15,329.90 222.92,336.09 228.00,335.22
             230.95,334.72 243.53,326.84 247.00,324.85
             247.00,324.85 287.00,301.80 287.00,301.80
             290.07,299.97 301.81,293.66 303.39,291.61
             305.47,288.92 304.16,285.18 303.96,282.00
             303.93,279.22 304.89,273.19 303.96,271.21
             302.70,268.88 298.29,266.75 296.00,265.40
             296.00,265.40 278.00,254.85 278.00,254.85
             278.00,254.85 232.00,228.01 232.00,228.01
             232.00,228.01 210.00,215.00 210.00,215.00
             210.00,215.00 209.00,228.00 209.00,228.00 Z" />
</svg>
