<?xml version="1.0" encoding="utf-8"?>
<!-- Generator: Adobe Illustrator 24.1.2, SVG Export Plug-In . SVG Version: 6.00 Build 0)  -->
<svg version="1.1" id="Layer_1" xmlns="http://www.w3.org/2000/svg" xmlns:xlink="http://www.w3.org/1999/xlink" x="0px" y="0px"
	 viewBox="0 0 1000 1000" style="enable-background:new 0 0 1000 1000;" xml:space="preserve">
<style type="text/css">
	.st0{fill:#282828;}
	.st1{fill:#F74834;}
	.st2{fill:#F54834;}
	.st3{fill:#F64834;}
</style>
<g>
	<path class="st0" d="M731.41,595.9c-1.68-50.1-16.27-91.57-48.91-125.3c-33.98-35.12-68.97-69.27-103.51-103.85
		c-5.9-5.91-12.61-10.21-21.09-11.37c-15.82-2.17-30.1,4.8-37.23,18.29c-7.8,14.76-5.51,29.93,7.6,43.17
		c32.95,33.28,66.39,66.08,99.27,99.43c28.86,29.28,38.58,64.87,27.41,103.94c-23.03,80.57-119.22,105.25-179.21,46.66
		c-33.14-32.37-65.55-65.48-98.52-98.02c-16.11-15.9-36.99-16.63-51.77-2.5c-14.64,14-14.96,36.25,0.43,51.81
		c35.07,35.48,69.15,72.15,106.37,105.26c55.94,49.76,121.02,61.68,190.22,31.86C692.93,724.92,726.86,667.97,731.41,595.9z
		 M451.1,455.88c-15.1,0.3-26.52,7-32.44,20.95c-6.08,14.32-4.07,28.08,7.16,39.38c33.32,33.52,66.67,67.02,100.4,100.13
		c15.08,14.81,36.63,14.9,50.7,1.35c14.43-13.9,14.58-36.28-0.65-51.73c-32.82-33.3-66.09-66.16-99.18-99.2
		C469.93,459.63,461.55,455.42,451.1,455.88z M511.82,314.27c-0.17-19.85-16.51-35.74-36.31-35.3
		c-19.02,0.43-34.67,16.34-34.83,35.43c-0.16,19.6,16.17,36.15,35.75,36.22C495.92,350.69,511.99,334.19,511.82,314.27z
		 M411.01,415.67c0.13-19.47-16.52-36.11-36-35.97c-18.76,0.13-35.04,16.18-35.52,35.01c-0.5,19.5,15.69,36.3,35.34,36.68
		C394.24,451.76,410.88,435.33,411.01,415.67z M273.73,551.78c20.09,0.21,36.21-15.45,36.33-35.28
		c0.12-19.46-16.48-35.86-36.13-35.69c-19.11,0.16-35,15.71-35.51,34.74C237.9,535.19,253.86,551.58,273.73,551.78z"/>
	<path class="st1" d="M731.41,595.9c-4.55,72.07-38.48,129.02-108.94,159.39c-69.2,29.82-134.29,17.9-190.22-31.86
		c-37.22-33.11-71.3-69.78-106.37-105.26c-15.39-15.57-15.07-37.82-0.43-51.81c14.78-14.13,35.66-13.4,51.77,2.5
		c32.97,32.54,65.38,65.66,98.52,98.02c59.99,58.59,156.18,33.91,179.21-46.66c11.17-39.07,1.45-74.66-27.41-103.94
		c-32.88-33.36-66.32-66.15-99.27-99.43c-13.11-13.24-15.4-28.41-7.6-43.17c7.13-13.49,21.41-20.46,37.23-18.29
		c8.48,1.16,15.19,5.46,21.09,11.37c34.54,34.58,69.53,68.73,103.51,103.85C715.14,504.33,729.74,545.8,731.41,595.9z"/>
	<path class="st1" d="M451.1,455.88c10.44-0.46,18.83,3.75,25.98,10.89c33.09,33.04,66.36,65.9,99.18,99.2
		c15.23,15.45,15.08,37.83,0.65,51.73c-14.07,13.55-35.61,13.46-50.7-1.35c-33.73-33.11-67.08-66.61-100.4-100.13
		c-11.24-11.3-13.24-25.07-7.16-39.38C424.58,462.88,436.01,456.18,451.1,455.88z"/>
	<path class="st2" d="M511.82,314.27c0.17,19.92-15.9,36.42-35.4,36.35c-19.57-0.07-35.91-16.62-35.75-36.22
		c0.16-19.08,15.8-35,34.83-35.43C495.31,278.53,511.65,294.42,511.82,314.27z"/>
	<path class="st3" d="M411.01,415.67c-0.14,19.66-16.78,36.09-36.18,35.72c-19.65-0.38-35.84-17.18-35.34-36.68
		c0.48-18.83,16.76-34.88,35.52-35.01C394.49,379.56,411.15,396.2,411.01,415.67z"/>
	<path class="st3" d="M273.73,551.78c-19.87-0.2-35.83-16.59-35.31-36.24c0.51-19.04,16.4-34.58,35.51-34.74
		c19.64-0.16,36.25,16.24,36.13,35.69C309.95,536.33,293.82,551.99,273.73,551.78z"/>
</g>
</svg>
