<?xml version="1.0" encoding="utf-8"?>
<!-- Generator: Adobe Illustrator 24.1.2, SVG Export Plug-In . SVG Version: 6.00 Build 0)  -->
<svg version="1.1" id="Layer_1" xmlns="http://www.w3.org/2000/svg" xmlns:xlink="http://www.w3.org/1999/xlink" x="0px" y="0px"
	 viewBox="0 0 2014 2500" style="enable-background:new 0 0 2014 2500;" xml:space="preserve">
<style type="text/css">
	.st0{fill:#FFFFFF;}
	.st1{fill:#EC2227;}
	.st2{fill:#108BC8;}
	.st3{fill:#0F8BC7;}
	.st4{fill:#108CC8;}
	.st5{fill:#118CC8;}
	.st6{fill:#F04C50;}
</style>
<g>
	<path class="st0" d="M659.43,1614.66c-1.63-0.1-3.32-0.56-4.87-0.26c-29.58,5.67-57.07,16.21-80.84,35.2
		c-13.73,10.97-23.11,24.78-27.28,42c-3.17,13.09-0.19,24.87,9.12,34.16c6.03,6.01,13.35,11.15,20.9,15.16
		c21.64,11.51,44.98,18.55,68.83,23.84c72.59,16.11,146.31,22.79,220.41,26.27c22.34,1.05,44.73,1.29,67.07,2.36
		c49.07,2.36,98.1,2.44,147.18-0.13c56.76-2.98,112.99-10.01,168.82-20.45c57.12-10.68,113.42-24.73,168.9-42.02
		c5.56-1.73,10.91-4.13,15.96-6.06c-13.67-6.56-27.48-11.87-39.88-19.48c-14.16-8.7-27.2-19.27-40.44-29.39
		c-7.36-5.62-15.03-7.68-24.29-6.28c-44.86,6.76-89.65,14.12-134.68,19.45c-47.05,5.57-94.29,9.6-141.53,13.27
		c-32.94,2.56-66,3.65-99.03,4.95c-72.13,2.84-144.25,3.36-216.09-4.88c-19.79-2.27-39.36-7.04-58.76-11.78
		c-12-2.94-23.17-8.64-32.33-17.36c-9.52-9.05-11.8-19.02-6.31-30.9c2.76-5.97,7.01-11.27,10.75-16.76
		c2.59-3.79,5.47-7.37,8.22-11.05c0.24-0.1,0.51-0.17,0.7-0.33c0.08-0.07,0.01-0.33,0.01-0.51
		C659.77,1614,659.6,1614.33,659.43,1614.66z M1013.69,1314.22c3.52,4.05,7.04,8.1,10.57,12.15c0.55-0.4,1.09-0.8,1.64-1.2
		c-2.66-3.86-5.32-7.72-7.97-11.57c-6.2-8.68-12.55-17.25-18.57-26.05c-35.27-51.52-68.67-104.19-97.44-159.67
		c-20.63-39.78-37.75-80.86-49.36-124.32c-11.22-42.03-6.63-81.69,12.61-120.43c13.27-26.74,29.02-51.79,47.23-75.33
		c31.31-40.48,66.21-77.79,102.85-113.41c56.96-55.38,114.5-110.17,171.77-165.25c19.01-18.29,37.61-36.94,53.82-57.87
		c48.32-62.39,76.56-132.53,81.28-211.51c3.12-52.12-4.14-103.15-18.61-153.23c-4.04-13.99-11.19-26.35-19.92-37.86
		c-1.39-1.83-3.61-3.04-5.45-4.53c-0.64,0.36-1.28,0.73-1.92,1.09c0.35,4.51,0.31,9.09,1.1,13.52c6.4,35.72,7.66,71.6,3.62,107.66
		c-8.11,72.31-35.05,137.17-77.66,195.8c-28.48,39.19-63.46,71.94-100.64,102.69c-65.84,54.46-131.65,108.98-196.72,164.37
		c-43.49,37.03-84.82,76.45-120.42,121.4c-21.02,26.55-39.29,54.66-50.81,86.84c-13.22,36.95-12.12,73.08,3.79,109.05
		c19.45,43.96,46.17,83.37,74.72,121.7c53.16,71.36,113.2,136.74,174.58,200.95C996.08,1297.87,1005.04,1305.9,1013.69,1314.22z
		 M531.16,2042.07c-0.07-0.81-0.14-1.61-0.21-2.42c-17.91,0-35.91-1.19-53.71,0.23c-47.97,3.83-95.35,11.75-141.95,23.93
		c-33.27,8.69-66.18,18.58-97.2,33.75c-18.08,8.84-35.08,19.34-49.22,33.93c-8.29,8.56-14.13,18.45-16.87,30.17
		c-2.59,11.07-0.01,20.87,8.13,28.39c6.3,5.82,13.42,11.09,20.94,15.18c26.65,14.5,55.81,21.84,85.17,28.36
		c81.04,17.98,163.41,25.9,246,31.8c38.29,2.73,76.63,5.24,114.99,6.42c73.08,2.24,146.19,4.59,219.29,4.81
		c90.48,0.27,180.95-2.23,271.35-6.65c66.7-3.26,133.31-7.38,199.77-14.09c59.8-6.04,119.26-14.35,178.11-26.6
		c56.56-11.77,112.48-25.95,166.1-47.91c28.17-11.53,55.5-24.82,79.89-43.26c7.93-6,15.21-13.07,21.88-20.47
		c11.01-12.22,11.52-23.99,1.5-37.11c-4.78-6.26-11.14-11.35-17-16.74c-1.43-1.31-3.69-1.71-7.05-3.17
		c1.83,4.45,3.03,7.13,4.05,9.89c6.81,18.43,3.94,30.48-11.62,42.37c-8.15,6.23-17.22,11.51-26.46,16.01
		c-26.26,12.8-54.41,20.05-82.74,26.49c-52.77,11.99-106.1,20.79-159.91,26.38c-53.44,5.55-106.92,10.85-160.46,15.29
		c-38.58,3.2-77.28,5.2-115.96,7.01c-60.36,2.83-120.74,5.5-181.14,7.37c-49.72,1.54-99.49,1.59-149.23,2.72
		c-78.56,1.79-156.89-2.44-235.08-9.26c-42.88-3.74-85.67-8.58-128.41-13.71c-41.75-5.01-83.26-11.68-124.14-21.79
		c-19.12-4.73-38.2-9.61-55.36-19.89c-20.75-12.43-22.46-25.99-5.28-43.31c8.37-8.43,18.66-13.91,29.27-18.93
		c39.28-18.57,81.25-27.94,123.54-36.16C498.44,2047.94,514.81,2045.08,531.16,2042.07z M1547.34,537.23
		c-0.37-0.75-0.74-1.5-1.11-2.25c-3.73,0.91-7.51,1.67-11.19,2.75c-80.82,23.86-159.11,54.14-234.03,92.85
		c-56.87,29.38-110.4,63.73-157.76,107.11c-32.28,29.56-59.66,62.91-78.78,102.6c-19.93,41.36-27.78,84.78-21.74,130.36
		c6.05,45.76,22.59,87.73,48.33,125.92c17.53,26.01,36.29,51.19,53.9,77.14c10.47,15.44,20.6,31.22,29.44,47.62
		c19.44,36.09,19.38,72.6,0.5,109.23c-12.58,24.41-27.34,47.37-43.58,69.44c-3.06,4.16-5.98,8.43-9.17,12.95
		c1.74,0.47,2.52,0.96,2.95,0.74c2.37-1.18,4.73-2.43,6.96-3.85c31.04-19.76,60.44-41.69,87.36-66.83
		c23.28-21.74,44.25-45.36,60.28-73.12c20.73-35.89,26.75-73.52,14.69-113.61c-7.23-24.05-16.37-47.37-29.34-68.86
		c-16.54-27.41-34.34-54.07-50.97-81.43c-10.72-17.64-21.21-35.53-30.23-54.08c-16.28-33.48-15.76-67.58-0.67-101.56
		c15.13-34.06,37.96-62.65,63.48-89.29c44.07-46.02,93.78-85.46,146-121.56c48.03-33.2,97.42-64.42,146.2-96.52
		C1541.71,541.12,1544.51,539.16,1547.34,537.23z M712.8,1868.38c-5.11,0.7-8.33,0.83-11.38,1.6c-22.58,5.71-43.46,15.3-62.02,29.31
		c-6.54,4.94-12.57,11.16-17.2,17.92c-10.7,15.62-10.61,32.18,0.13,47.73c4.65,6.74,10.87,12.68,17.29,17.85
		c16.32,13.14,35.42,21.25,55.01,28.09c57.44,20.04,117.11,28.78,177.37,34.17c24.26,2.17,48.61,3.41,72.93,4.81
		c58.46,3.37,116.83,1.78,174.94-5.36c51.36-6.32,102.17-16.03,152.15-29.46c37.34-10.04,74.37-21.23,111.49-32.1
		c5.4-1.58,10.51-4.17,16.97-6.78c-12.33-5.43-23.35-9.46-33.58-14.97c-27.31-14.69-54.4-29.82-81.32-45.22
		c-8-4.58-15.91-6.74-24.82-4.37c-40.45,10.75-81.78,15.9-123.32,20c-51.52,5.09-103.18,7.87-154.9,9.09
		c-60.11,1.41-120.2-0.14-180.21-3.68c-16.59-0.98-33.19-3.3-49.55-6.3c-13.41-2.46-26.6-6.43-37.98-14.69
		c-13.91-10.09-16.64-22.83-7.91-37.44C708.55,1875.83,710.13,1873,712.8,1868.38z M742.67,1344.1c-0.12-0.62-0.23-1.23-0.35-1.85
		c-3.21,0-6.44-0.25-9.62,0.04c-15.28,1.39-30.62,2.4-45.81,4.49c-59.28,8.17-117.44,21.43-174.4,39.8
		c-41.97,13.54-83.46,28.37-121.59,50.97c-9.1,5.39-17.78,11.94-25.39,19.27c-11.69,11.27-10.74,21.78,2.86,30.47
		c8.6,5.49,18.3,9.64,28,12.94c39.73,13.5,81.08,19.47,122.57,23.82c47.45,4.98,95,9.39,142.6,12.57
		c84.3,5.63,168.68,9.68,253.22,5.65c29.01-1.38,58.07-2.33,87.01-4.62c49.24-3.9,98.44-8.3,147.58-13.25
		c42.83-4.32,85.61-9.21,128.3-14.73c46.32-6,92.53-12.9,138.74-19.74c6.81-1.01,14.1-2.54,19.9-5.98
		c28.42-16.85,56.41-34.41,84.51-51.78c1.37-0.85,2.36-2.32,5.23-5.23c-11.33,1.67-20.18,3-29.05,4.29
		c-39.62,5.77-79.19,11.84-118.87,17.2c-35.71,4.83-71.48,9.23-107.29,13.17c-36.16,3.98-72.38,7.4-108.61,10.62
		c-30.59,2.71-61.21,5.05-91.85,7.05c-39.97,2.61-79.95,5.94-119.97,6.79c-95.49,2.03-191.01,1.71-286.31-5.93
		c-28.58-2.29-57.09-6.03-85.42-10.47c-12.69-1.99-25.3-6.31-37.14-11.43c-15.53-6.72-17.56-17.74-6.06-29.96
		c6.09-6.48,13.13-12.76,20.95-16.78c19.24-9.89,38.83-19.31,58.93-27.3c37.86-15.05,77.18-25.73,116.42-36.53
		C735.46,1346.65,739.05,1345.3,742.67,1344.1z M499.38,2326.1c-0.09,0.64-0.19,1.29-0.28,1.93c2.66,1.15,5.23,2.66,8,3.39
		c30.97,8.13,61.78,16.96,92.99,24.02c76.96,17.41,155.03,27.91,233.64,33.65c54.59,3.99,109.33,6.52,164.06,7.92
		c85.17,2.18,170.3-0.4,255.24-7.1c54.9-4.33,109.81-8.84,164.54-14.85c62.36-6.85,124.34-16.7,185.8-29.44
		c61.66-12.78,121.42-31.27,177.83-59.68c25.11-12.65,49.27-26.81,70.71-45.18c13.74-11.77,26.47-24.52,36-40.06
		c4.22-6.88,8.06-14,8.53-22.73c-1.39,0.43-2.1,0.49-2.6,0.83c-2.75,1.89-5.49,3.8-8.17,5.79c-40.98,30.45-85.59,54.25-133.03,72.98
		c-61.67,24.34-125.52,40.98-190.37,54.06c-84.53,17.05-170.01,27.32-255.92,33.51c-59.25,4.27-118.68,6.41-178.06,8.59
		c-74.11,2.72-148.28,2.01-222.36-0.69c-76.4-2.79-152.74-7.17-229.07-11.6c-34.64-2.01-69.18-5.83-103.76-8.85
		C548.54,2330.45,523.96,2328.27,499.38,2326.1z M1595.1,1349.46c0.34,0.84,0.69,1.69,1.03,2.53c2.29-0.31,4.59-0.58,6.87-0.94
		c35.31-5.61,70.49-5.56,105.32,3.17c34.86,8.74,63.32,26.61,80.09,59.54c15.54,30.51,19.87,62.7,11.83,96.2
		c-7.78,32.39-23.68,60.81-44.02,86.79c-32.1,41.01-70.14,76.07-111.97,106.78c-29.01,21.3-59.57,40.5-89.45,60.62
		c-4.56,3.07-9.2,6.03-13.81,9.04c0.32,0.7,0.64,1.4,0.96,2.1c3.05-0.68,6.15-1.2,9.14-2.06c40.44-11.58,80.17-25.18,118.55-42.49
		c49.5-22.32,96.28-49.14,137.62-84.69c29.33-25.23,55.04-53.7,72.51-88.49c26.83-53.44,25.81-106.37-7.86-156.58
		c-22.02-32.83-53.8-54.29-90.21-68.82c-36.25-14.46-73.84-17.12-112.18-11.16c-18.51,2.88-36.82,6.75-53.61,15.46
		C1608.68,1340.22,1602.02,1345.09,1595.1,1349.46z"/>
	<path class="st1" d="M1013.69,1314.22c-8.65-8.32-17.61-16.35-25.89-25.01c-61.39-64.21-121.43-129.59-174.58-200.95
		c-28.55-38.33-55.28-77.73-74.72-121.7c-15.91-35.97-17.01-72.1-3.79-109.05c11.51-32.18,29.79-60.29,50.81-86.84
		c35.6-44.96,76.92-84.38,120.42-121.4c65.06-55.39,130.87-109.91,196.72-164.37c37.18-30.75,72.16-63.51,100.64-102.69
		c42.61-58.63,69.55-123.5,77.66-195.8c4.04-36.05,2.78-71.93-3.62-107.66c-0.79-4.43-0.75-9.01-1.1-13.52
		c0.64-0.36,1.28-0.73,1.92-1.09c1.84,1.5,4.06,2.7,5.45,4.53c8.72,11.51,15.88,23.87,19.92,37.86
		c14.47,50.07,21.73,101.11,18.61,153.23c-4.73,78.98-32.97,149.12-81.28,211.51c-16.21,20.93-34.81,39.58-53.82,57.87
		c-57.26,55.07-114.81,109.86-171.77,165.25c-36.64,35.62-71.53,72.93-102.85,113.41c-18.21,23.54-33.96,48.6-47.23,75.33
		c-19.23,38.74-23.83,78.4-12.61,120.43c11.6,43.45,28.73,84.54,49.36,124.32c28.77,55.48,62.17,108.15,97.44,159.67
		c6.02,8.8,12.37,17.37,18.57,26.05C1016.51,1313.81,1015.1,1314.01,1013.69,1314.22z"/>
	<path class="st2" d="M531.16,2042.07c-16.34,3-32.71,5.87-49.03,9.04c-42.3,8.22-84.27,17.58-123.54,36.16
		c-10.61,5.02-20.9,10.49-29.27,18.93c-17.18,17.31-15.47,30.88,5.28,43.31c17.15,10.27,36.24,15.16,55.36,19.89
		c40.87,10.11,82.39,16.78,124.14,21.79c42.74,5.13,85.53,9.96,128.41,13.71c78.19,6.82,156.52,11.05,235.08,9.26
		c49.74-1.14,99.51-1.18,149.23-2.72c60.4-1.87,120.78-4.55,181.14-7.37c38.68-1.81,77.38-3.81,115.96-7.01
		c53.54-4.44,107.02-9.74,160.46-15.29c53.81-5.59,107.14-14.38,159.91-26.38c28.33-6.44,56.48-13.69,82.74-26.49
		c9.24-4.5,18.31-9.79,26.46-16.01c15.56-11.89,18.44-23.94,11.62-42.37c-1.02-2.76-2.22-5.44-4.05-9.89
		c3.36,1.46,5.63,1.86,7.05,3.17c5.86,5.39,12.22,10.48,17,16.74c10.02,13.12,9.51,24.89-1.5,37.11
		c-6.67,7.4-13.95,14.47-21.88,20.47c-24.39,18.44-51.72,31.73-79.89,43.26c-53.63,21.95-109.54,36.14-166.1,47.91
		c-58.85,12.25-118.31,20.56-178.11,26.6c-66.45,6.71-133.07,10.83-199.77,14.09c-90.41,4.42-180.87,6.92-271.35,6.65
		c-73.1-0.22-146.21-2.57-219.29-4.81c-38.36-1.18-76.7-3.68-114.99-6.42c-82.59-5.9-164.96-13.82-246-31.8
		c-29.36-6.51-58.52-13.86-85.17-28.36c-7.53-4.09-14.64-9.36-20.94-15.18c-8.14-7.52-10.72-17.31-8.13-28.39
		c2.74-11.72,8.58-21.61,16.87-30.17c14.14-14.6,31.14-25.1,49.22-33.93c31.02-15.17,63.93-25.05,97.2-33.75
		c46.59-12.17,93.98-20.1,141.95-23.93c17.8-1.42,35.8-0.23,53.71-0.23C531.02,2040.46,531.09,2041.27,531.16,2042.07z"/>
	<path class="st1" d="M1547.34,537.23c-2.83,1.92-5.63,3.88-8.48,5.76c-48.78,32.1-98.18,63.32-146.2,96.52
		c-52.22,36.1-101.93,75.54-146,121.56c-25.52,26.64-48.35,55.23-63.48,89.29c-15.09,33.98-15.6,68.08,0.67,101.56
		c9.02,18.55,19.51,36.44,30.23,54.08c16.63,27.36,34.43,54.02,50.97,81.43c12.97,21.5,22.11,44.81,29.34,68.86
		c12.05,40.09,6.04,77.72-14.69,113.61c-16.03,27.76-37,51.38-60.28,73.12c-26.93,25.14-56.32,47.07-87.36,66.83
		c-2.23,1.42-4.59,2.67-6.96,3.85c-0.43,0.21-1.2-0.28-2.95-0.74c3.19-4.52,6.1-8.79,9.17-12.95c16.24-22.07,31-45.03,43.58-69.44
		c18.88-36.63,18.93-73.14-0.5-109.23c-8.84-16.4-18.97-32.19-29.44-47.62c-17.61-25.96-36.37-51.13-53.9-77.14
		c-25.74-38.19-42.28-80.16-48.33-125.92c-6.03-45.59,1.82-89,21.74-130.36c19.12-39.69,46.5-73.04,78.78-102.6
		c47.36-43.38,100.89-77.72,157.76-107.11c74.92-38.71,153.21-68.99,234.03-92.85c3.68-1.09,7.46-1.84,11.19-2.75
		C1546.59,535.74,1546.97,536.49,1547.34,537.23z"/>
	<path class="st3" d="M712.8,1868.38c-2.67,4.63-4.25,7.45-5.91,10.23c-8.73,14.61-5.99,27.34,7.91,37.44
		c11.37,8.26,24.57,12.23,37.98,14.69c16.36,3,32.96,5.32,49.55,6.3c60.01,3.54,120.1,5.09,180.21,3.68
		c51.73-1.21,103.38-4,154.9-9.09c41.54-4.1,82.87-9.25,123.32-20c8.9-2.37,16.82-0.21,24.82,4.37
		c26.92,15.4,54.01,30.52,81.32,45.22c10.23,5.5,21.26,9.53,33.58,14.97c-6.46,2.61-11.57,5.2-16.97,6.78
		c-37.12,10.86-74.15,22.06-111.49,32.1c-49.98,13.43-100.79,23.14-152.15,29.46c-58.11,7.15-116.47,8.73-174.94,5.36
		c-24.32-1.4-48.67-2.64-72.93-4.81c-60.26-5.39-119.93-14.12-177.37-34.17c-19.6-6.84-38.7-14.94-55.01-28.09
		c-6.42-5.17-12.64-11.12-17.29-17.85c-10.74-15.56-10.82-32.12-0.13-47.73c4.63-6.76,10.66-12.98,17.2-17.92
		c18.56-14.02,39.43-23.61,62.02-29.31C704.48,1869.2,707.69,1869.07,712.8,1868.38z"/>
	<path class="st3" d="M659.24,1614.51c-2.75,3.68-5.64,7.26-8.22,11.05c-3.75,5.49-7.99,10.79-10.75,16.76
		c-5.49,11.89-3.21,21.85,6.31,30.9c9.16,8.71,20.33,14.42,32.33,17.36c19.4,4.75,38.98,9.51,58.76,11.78
		c71.84,8.25,143.96,7.73,216.09,4.88c33.03-1.3,66.09-2.39,99.03-4.95c47.24-3.68,94.49-7.71,141.53-13.27
		c45.03-5.33,89.83-12.69,134.68-19.45c9.26-1.4,16.93,0.66,24.29,6.28c13.25,10.12,26.29,20.69,40.44,29.39
		c12.4,7.62,26.21,12.93,39.88,19.48c-5.05,1.93-10.4,4.33-15.96,6.06c-55.48,17.3-111.77,31.34-168.9,42.02
		c-55.83,10.44-112.05,17.47-168.82,20.45c-49.08,2.57-98.11,2.49-147.18,0.13c-22.34-1.07-44.73-1.31-67.07-2.36
		c-74.09-3.47-147.82-10.16-220.41-26.27c-23.86-5.29-47.19-12.34-68.83-23.84c-7.55-4.01-14.87-9.14-20.9-15.16
		c-9.31-9.29-12.29-21.07-9.12-34.16c4.17-17.22,13.55-31.04,27.28-42c23.77-18.99,51.26-29.53,80.84-35.2
		c1.55-0.3,3.24,0.16,4.87,0.26C659.43,1614.66,659.24,1614.51,659.24,1614.51z"/>
	<path class="st4" d="M742.67,1344.1c-3.63,1.19-7.21,2.55-10.89,3.56c-39.24,10.8-78.56,21.47-116.42,36.53
		c-20.09,7.99-39.68,17.41-58.93,27.3c-7.82,4.02-14.86,10.31-20.95,16.78c-11.5,12.22-9.47,23.24,6.06,29.96
		c11.84,5.12,24.45,9.44,37.14,11.43c28.33,4.44,56.84,8.18,85.42,10.47c95.3,7.64,190.81,7.96,286.31,5.93
		c40.02-0.85,80-4.18,119.97-6.79c30.64-2,61.27-4.33,91.85-7.05c36.23-3.21,72.46-6.64,108.61-10.62
		c35.81-3.94,71.59-8.34,107.29-13.17c39.67-5.36,79.25-11.43,118.87-17.2c8.86-1.29,17.72-2.61,29.05-4.29
		c-2.87,2.91-3.85,4.38-5.23,5.23c-28.1,17.37-56.1,34.93-84.51,51.78c-5.8,3.44-13.09,4.97-19.9,5.98
		c-46.21,6.83-92.41,13.74-138.74,19.74c-42.69,5.53-85.47,10.41-128.3,14.73c-49.14,4.95-98.35,9.35-147.58,13.25
		c-28.95,2.29-58,3.24-87.01,4.62c-84.53,4.03-168.92-0.02-253.22-5.65c-47.6-3.18-95.15-7.59-142.6-12.57
		c-41.49-4.35-82.83-10.32-122.57-23.82c-9.7-3.3-19.4-7.45-28-12.94c-13.6-8.69-14.56-19.2-2.86-30.47
		c7.61-7.33,16.29-13.88,25.39-19.27c38.13-22.6,79.62-37.43,121.59-50.97c56.96-18.38,115.11-31.64,174.4-39.8
		c15.19-2.09,30.53-3.11,45.81-4.49c3.18-0.29,6.41-0.04,9.62-0.04C742.44,1342.87,742.56,1343.49,742.67,1344.1z"/>
	<path class="st5" d="M499.38,2326.1c24.58,2.16,49.16,4.34,73.74,6.49c34.58,3.02,69.12,6.84,103.76,8.85
		c76.33,4.44,152.67,8.81,229.07,11.6c74.08,2.71,148.25,3.41,222.36,0.69c59.38-2.18,118.81-4.32,178.06-8.59
		c85.9-6.19,171.39-16.46,255.92-33.51c64.85-13.08,128.7-29.72,190.37-54.06c47.43-18.72,92.04-42.53,133.03-72.98
		c2.68-1.99,5.42-3.9,8.17-5.79c0.51-0.35,1.21-0.4,2.6-0.83c-0.47,8.73-4.31,15.85-8.53,22.73c-9.54,15.54-22.26,28.29-36,40.06
		c-21.44,18.37-45.6,32.53-70.71,45.18c-56.42,28.42-116.17,46.91-177.83,59.68c-61.47,12.74-123.44,22.59-185.8,29.44
		c-54.73,6.01-109.64,10.53-164.54,14.85c-84.94,6.69-170.07,9.27-255.24,7.1c-54.72-1.4-109.47-3.93-164.06-7.92
		c-78.61-5.74-156.69-16.24-233.64-33.65c-31.21-7.06-62.02-15.89-92.99-24.02c-2.77-0.73-5.34-2.24-8-3.39
		C499.19,2327.39,499.29,2326.75,499.38,2326.1z"/>
	<path class="st4" d="M1595.1,1349.46c6.93-4.37,13.59-9.25,20.83-13c16.78-8.7,35.1-12.58,53.61-15.46
		c38.34-5.97,75.93-3.31,112.18,11.16c36.41,14.53,68.19,35.98,90.21,68.82c33.67,50.21,34.69,103.14,7.86,156.58
		c-17.47,34.79-43.18,63.26-72.51,88.49c-41.33,35.55-88.12,62.37-137.62,84.69c-38.38,17.31-78.11,30.9-118.55,42.49
		c-3,0.86-6.09,1.38-9.14,2.06c-0.32-0.7-0.64-1.4-0.96-2.1c4.6-3.01,9.25-5.97,13.81-9.04c29.88-20.12,60.43-39.32,89.45-60.62
		c41.83-30.71,79.86-65.77,111.97-106.78c20.34-25.98,36.24-54.4,44.02-86.79c8.04-33.5,3.72-65.68-11.83-96.2
		c-16.77-32.93-45.23-50.81-80.09-59.54c-34.83-8.73-70.01-8.78-105.32-3.17c-2.28,0.36-4.58,0.63-6.87,0.94
		C1595.78,1351.15,1595.44,1350.31,1595.1,1349.46z"/>
	<path class="st6" d="M1013.69,1314.22c1.41-0.21,2.82-0.41,4.23-0.62c2.66,3.86,5.32,7.72,7.98,11.57c-0.55,0.4-1.09,0.8-1.64,1.2
		C1020.73,1322.32,1017.21,1318.27,1013.69,1314.22z"/>
	<path class="st3" d="M659.43,1614.66c0.17-0.33,0.35-0.66,0.52-0.99c0,0.17,0.08,0.44-0.01,0.51c-0.19,0.16-0.46,0.23-0.7,0.33
		C659.24,1614.51,659.43,1614.66,659.43,1614.66z"/>
</g>
</svg>
