<?xml version="1.0" encoding="utf-8"?>
<!-- Generator: Adobe Illustrator 24.1.2, SVG Export Plug-In . SVG Version: 6.00 Build 0)  -->
<svg version="1.1" id="Layer_1" xmlns="http://www.w3.org/2000/svg" xmlns:xlink="http://www.w3.org/1999/xlink" x="0px" y="0px"
	 viewBox="0 0 1000 1000" style="enable-background:new 0 0 1000 1000;" xml:space="preserve">
<style type="text/css">
	.st0{fill:#82C265;}
	.st1{fill:#40301F;}
	.st2{fill:#4B8F42;}
	.st3{fill:#519647;}
	.st4{fill:#4E9444;}
	.st5{fill:#62AA52;}
	.st6{fill:#59A74D;}
	.st7{fill:#53A249;}
	.st8{fill:#6AAE57;}
	.st9{fill:#559A4A;}
	.st10{fill:#72B25F;}
	.st11{fill:#79B667;}
	.st12{fill:#80BA6D;}
	.st13{fill:#85BB74;}
	.st14{fill:#B5B197;}
	.st15{fill:#ACAC8B;}
	.st16{fill:#D2CDBA;}
	.st17{fill:#C6C2A9;}
	.st18{fill:#92AB77;}
</style>
<g>
	<path class="st0" d="M488.56,40.63c103.92,2.58,190.87,7.26,274.38,35.53c27,9.14,52.87,21.79,78.93,33.55
		c32.75,14.79,48.4,42.8,57.26,76.11c20.61,77.4,22.4,155.87,14.63,235.04c-7.69,78.32-25.33,154.08-64.04,222.98
		c-77.3,137.59-189.88,237.15-332.47,302.92c-6.15,2.84-15.77,3.27-21.79,0.49c-149.73-69.21-266.81-174.2-342.96-321.92
		c-31.9-61.88-48.49-129.24-53.46-198.67c-3.36-46.84-5.92-94.21-2.64-140.91c2.79-39.72,13.44-79.04,22.51-118.09
		c6.76-29.13,28.72-46.24,53.88-59.87c59.6-32.28,123.98-48.96,190.53-56.94C410.37,45.21,457.85,43.04,488.56,40.63z
		 M506.88,104.39c-46.7,3.96-93.51,6.89-140.06,12.16c-51.47,5.82-100.77,19.96-148.62,40.67c-29.52,12.78-42.22,34.1-47.79,63.87
		c-11.05,58.96-15.1,117.96-9.54,177.89c6.53,70.36,19.43,139.17,52.33,202.07c64.19,122.7,161.61,211.86,283.65,274.78
		c5.15,2.66,14.24,1.73,19.75-1.03c73.66-36.88,138.02-86.35,193.29-147.45c47.34-52.33,87.06-109.54,110.13-177.31
		c18.33-53.84,27.5-109.13,31.69-165.72c4.72-63.78-0.39-126.3-17.36-187.92c-3.86-14.01-11.54-24.32-25-30.11
		c-21.53-9.26-42.45-20.38-64.63-27.61C667.56,113.52,587.66,107.46,506.88,104.39z"/>
	<path class="st1" d="M506.88,104.39c80.78,3.07,160.68,9.13,237.83,34.28c22.18,7.23,43.1,18.35,64.63,27.61
		c13.47,5.79,21.14,16.1,25,30.11c16.97,61.62,22.08,124.14,17.36,187.92c-4.19,56.59-13.36,111.88-31.69,165.72
		c-23.07,67.77-62.79,124.97-110.13,177.31c-55.27,61.1-119.63,110.57-193.29,147.45c-5.51,2.76-14.59,3.68-19.75,1.03
		C374.81,812.91,277.39,723.74,213.2,601.04c-32.91-62.9-45.81-131.71-52.33-202.07c-5.56-59.92-1.51-118.93,9.54-177.89
		c5.58-29.76,18.27-51.09,47.79-63.87c47.85-20.71,97.14-34.84,148.62-40.67C413.37,111.29,460.18,108.36,506.88,104.39z
		 M652.56,525.1c0.2-7.33,0.4-14.66,0.6-21.98c-0.15-8.4-0.3-16.79-0.44-25.19c1.75-54.74-11.38-105.94-36.51-154.29
		c-3.43-6.95-7.09-13.81-10.26-20.88c-23.21-51.78-70.1-85.93-98.72-133.68c-0.66-2.99-1.32-5.99-1.75-7.96
		c-5.94,8.68-11.32,17.96-18.09,26.04c-6.99,8.34-15.35,15.54-23.11,23.23c-3.97,4.18-7.93,8.36-11.9,12.55
		c-7.5,9.46-15,18.92-22.5,28.38c-6.14,9.48-12.27,18.96-18.41,28.44c-7.26,14.72-14.53,29.44-21.79,44.15
		c-6.19,18.85-12.37,37.71-18.56,56.56c-2.24,11.24-4.48,22.47-6.71,33.71c-10.43,44.41-9.25,89.04,0.94,133
		c13.47,58.1,41.61,108.67,83.98,150.93c13.61,12.49,27.23,24.98,40.84,37.47c0.6,0.54,1.31,0.77,2.11,0.68
		c2.16,6.25,4.32,12.5,6.48,18.75c1.39,7.25,2.79,14.49,4.18,21.74c0.33,5.27,0.66,10.54,0.99,15.81
		c-1.36,25.29-1.36,25.29,17.93,26.96c-0.56-11.46-1.11-22.76-1.67-34.07c0.01-8.31,0.01-16.63,0.02-24.94
		c3.57-9.24,7.14-18.48,10.71-27.72c39.03-25.14,65.71-61.3,87.61-101.15c16.57-30.13,28.57-62.2,31.32-97.05
		c0.14-1.93,0.29-3.86,0.43-5.8C651.03,527.59,651.79,526.35,652.56,525.1z"/>
	<path class="st2" d="M649.84,534.63c-2.75,34.84-14.75,66.91-31.32,97.04c-21.9,39.84-48.58,76.01-87.61,101.14
		c-3.11-2.15-6.23-4.29-9.34-6.44c-3.13-7.34-6.25-14.69-9.38-22.03c-1.11-10.42-2.22-20.83-3.33-31.25
		c0.04-17.87,0.08-35.73,0.12-53.6c1.07-10.48,2.15-20.96,3.22-31.43c3.1-5.27,5.76-10.87,9.41-15.72
		c4.85-6.45,9.42-15.66,15.99-17.76c14.03-4.5,29.32-4.94,44.02-7.49C604.39,543.13,627.1,538.8,649.84,534.63z"/>
	<path class="st3" d="M616.21,323.65c25.13,48.34,38.26,99.54,36.51,154.29c-1.95-6.21-5.64-12.45-5.5-18.62
		c0.27-12.47-4.76-17.62-16.64-15.83c-11.16,1.68-22.16,4.37-33.31,6.14c-20.81,3.31-41.76,5.85-62.49,9.55
		c-12.73,2.27-17.62,10.22-15.86,23.79c0.69,5.31-4.27,11.35-6.65,17.06c-0.11-20.99-0.22-41.97-0.34-62.96
		c0.08-24.09,0.16-48.18,0.24-72.27c2.07-5.09,5.84-10.18,5.84-15.28c0-9.78,2.55-16.08,12.91-17.77
		C559.17,327.13,586.93,317.43,616.21,323.65z"/>
	<path class="st4" d="M512.26,500.02c2.39-5.71,7.34-11.75,6.65-17.06c-1.75-13.57,3.13-21.52,15.86-23.79
		c20.74-3.7,41.68-6.24,62.49-9.55c11.15-1.77,22.15-4.45,33.31-6.14c11.88-1.79,16.91,3.36,16.64,15.83
		c-0.14,6.16,3.55,12.41,5.5,18.62c0.15,8.39,0.29,16.79,0.44,25.19c-1.04,7.34-2.08,14.68-3.11,22.02c0.08,1.23,0.15,2.47,0.23,3.7
		c-0.14,1.93-0.29,3.86-0.43,5.79c-22.74,4.17-45.45,8.51-68.23,12.46c-14.7,2.55-29.98,3-44.02,7.49
		c-6.57,2.1-11.13,11.31-15.99,17.76c-3.65,4.85-6.31,10.45-9.42,15.72c-0.06-19.93-0.11-39.86-0.16-59.79
		C512.1,518.86,512.18,509.44,512.26,500.02z"/>
	<path class="st5" d="M508.97,619.5c-0.04,17.87-0.08,35.73-0.12,53.6c-3.04,11.49-6.09,22.97-9.13,34.46
		c-22.04-65.48-44.03-130.98-66.16-196.43c-14.16-41.88-28.44-83.71-42.87-125.49c-2.08-6.01-5.32-11.61-8.43-18.28
		c-4.77,5.62-7.96,9.37-11.15,13.13c6.19-18.85,12.37-37.71,18.56-56.56c7.79-2.75,13-2.27,16.04,7.52
		c8.61,27.73,18.27,55.13,27.59,82.63c10.63,31.38,21.35,62.74,32.02,94.11c11.54,33.96,22.91,67.98,34.83,101.8
		C501.48,613.73,505.96,616.36,508.97,619.5z"/>
	<path class="st6" d="M371.11,380.49c3.19-3.76,6.38-7.52,11.15-13.13c3.11,6.67,6.35,12.27,8.43,18.28
		c14.43,41.78,28.72,83.61,42.87,125.49c22.13,65.45,44.11,130.95,66.15,196.43c0.13,2.16,0.26,4.32,0.4,6.48
		c-0.19,4.12-0.37,8.25-0.56,12.37c-1.06,1.05-2.12,2.09-3.17,3.14c-2.07,2.01-4.15,4.03-6.22,6.04
		c-13.61-12.49-27.23-24.98-40.84-37.47c11.44,0.51,12.93-4.69,9.52-14.66c-12.79-37.34-25.07-74.86-37.52-112.32
		c-10.48-31.53-20.42-63.26-31.6-94.55c-7.55-21.12-16.82-41.63-25.32-62.41C366.63,402.96,368.87,391.73,371.11,380.49z"/>
	<path class="st7" d="M364.4,414.2c8.5,20.78,17.78,41.28,25.32,62.41c11.18,31.29,21.11,63.02,31.6,94.55
		c12.45,37.46,24.73,74.98,37.52,112.32c3.41,9.96,1.93,15.16-9.52,14.66c-42.37-42.26-70.51-92.83-83.98-150.93
		C355.15,503.25,353.96,458.61,364.4,414.2z"/>
	<path class="st8" d="M508.97,619.5c-3.01-3.15-7.49-5.77-8.82-9.52c-11.92-33.82-23.29-67.84-34.83-101.8
		c-10.67-31.37-21.39-62.73-32.02-94.11c-9.32-27.5-18.98-54.9-27.59-82.63c-3.04-9.79-8.25-10.28-16.04-7.52
		c7.26-14.72,14.52-29.44,21.79-44.15c5.16,4.11,13.25,7.22,15.05,12.48c25.31,74.17,49.65,148.67,74.69,222.93
		c1.69,5.01,7.13,8.75,10.82,13.09c0.05,19.93,0.11,39.86,0.16,59.79C511.12,598.55,510.05,609.02,508.97,619.5z"/>
	<path class="st9" d="M616.21,323.65c-29.28-6.22-57.04,3.49-85.3,8.1c-10.36,1.69-12.91,7.99-12.91,17.77
		c0,5.09-3.77,10.18-5.84,15.27c-0.16-1.08-0.31-2.15-0.47-3.23c-0.92-27.23-1.83-54.46-2.75-81.69
		c-0.57-36.93-1.13-73.85-1.7-110.78c28.61,47.75,75.49,81.9,98.71,133.68C609.12,309.84,612.78,316.69,616.21,323.65z"/>
	<path class="st10" d="M512.03,528.28c-3.7-4.33-9.13-8.07-10.82-13.09c-25.04-74.26-49.38-148.76-74.69-222.93
		c-1.8-5.27-9.88-8.37-15.05-12.48c6.14-9.48,12.27-18.96,18.41-28.44c5.17,4.83,12.57,8.72,15.07,14.67
		c6.78,16.18,11.46,33.25,16.99,49.96c11.55,34.85,22.66,69.86,35.06,104.41c2.34,6.52,9.82,11.17,14.93,16.69
		c0.11,20.99,0.22,41.97,0.34,62.96C512.18,509.44,512.1,518.86,512.03,528.28z"/>
	<path class="st11" d="M511.92,437.06c-5.11-5.52-12.59-10.17-14.93-16.69c-12.4-34.54-23.51-69.55-35.06-104.41
		c-5.53-16.71-10.22-33.77-16.99-49.96c-2.49-5.96-9.9-9.84-15.07-14.67c7.5-9.46,15-18.92,22.5-28.38
		c5.32,11.27,11.62,22.18,15.77,33.86c10.8,30.44,20.32,61.34,31.24,91.74c1.85,5.15,8.09,8.7,12.31,13
		c0.16,1.08,0.31,2.15,0.47,3.23C512.08,388.88,512,412.97,511.92,437.06z"/>
	<path class="st12" d="M511.69,361.56c-4.21-4.29-10.46-7.85-12.31-13c-10.91-30.4-20.43-61.3-31.24-91.74
		c-4.15-11.68-10.45-22.6-15.77-33.86c3.97-4.18,7.93-8.37,11.9-12.55c5.85,5.05,13.52,9.06,17.08,15.4
		c4.66,8.3,4.87,19.06,9.22,27.63c4.81,9.48,12.13,17.67,18.36,26.43C509.86,307.1,510.77,334.33,511.69,361.56z"/>
	<path class="st13" d="M508.94,279.87c-6.23-8.75-13.55-16.95-18.36-26.43c-4.35-8.57-4.56-19.33-9.22-27.63
		c-3.56-6.34-11.23-10.35-17.08-15.4c7.76-7.7,16.11-14.89,23.11-23.23c6.78-8.09,12.15-17.36,18.09-26.04
		c0.43,1.97,1.09,4.97,1.76,7.96C507.81,206.02,508.38,242.94,508.94,279.87z"/>
	<path class="st14" d="M521.56,726.38c3.11,2.15,6.23,4.29,9.34,6.44c-3.57,9.24-7.14,18.48-10.72,27.72
		c-2.72,2.47-5.46,4.92-8.13,7.43c-3.07,2.9-6.08,5.86-9.12,8.8c-1.39-7.25-2.79-14.49-4.18-21.74c3.24-6.26,5.76-13.08,9.95-18.61
		C511.88,732.23,517.2,729.66,521.56,726.38z"/>
	<path class="st15" d="M521.56,726.38c-4.36,3.29-9.68,5.85-12.86,10.04c-4.19,5.53-6.71,12.35-9.95,18.61
		c-2.16-6.25-4.32-12.5-6.48-18.75c1.52-1.13,3.05-2.26,4.57-3.39c0.9-2.16,1.81-4.32,2.71-6.48c0.19-4.12,0.37-8.25,0.55-12.37
		c4.02-3.23,8.05-6.46,12.07-9.69C515.31,711.69,518.44,719.03,521.56,726.38z"/>
	<path class="st16" d="M520.19,785.48c0.55,11.3,1.11,22.6,1.67,34.07c-19.29-1.67-19.29-1.67-17.93-26.96
		C509.34,790.21,514.76,787.85,520.19,785.48z"/>
	<path class="st17" d="M520.19,785.48c-5.42,2.37-10.84,4.74-16.26,7.1c-0.33-5.27-0.66-10.54-0.99-15.81
		c3.04-2.94,6.05-5.9,9.12-8.8c2.67-2.52,5.41-4.96,8.13-7.43C520.2,768.85,520.19,777.17,520.19,785.48z"/>
	<path class="st3" d="M650.04,525.14c1.04-7.34,2.08-14.68,3.11-22.02c-0.2,7.33-0.4,14.66-0.6,21.98
		C651.72,525.13,650.88,525.14,650.04,525.14z"/>
	<path class="st5" d="M496.85,732.9c-1.52,1.13-3.04,2.25-4.57,3.39c-0.81,0.09-1.51-0.14-2.12-0.68c2.07-2.02,4.15-4.03,6.22-6.05
		C496.54,730.67,496.69,731.78,496.85,732.9z"/>
	<path class="st2" d="M650.04,525.14c0.84,0,1.68-0.01,2.52-0.03c-0.77,1.24-1.53,2.48-2.29,3.73
		C650.2,527.6,650.12,526.37,650.04,525.14z"/>
	<path class="st18" d="M512.18,704.35c-4.03,3.23-8.05,6.46-12.07,9.69c-0.13-2.16-0.26-4.32-0.39-6.48
		c3.05-11.49,6.09-22.98,9.13-34.46C509.96,683.52,511.07,693.93,512.18,704.35z"/>
	<path class="st18" d="M496.85,732.9c-0.15-1.11-0.31-2.23-0.47-3.34c1.06-1.05,2.12-2.09,3.17-3.14
		C498.65,728.58,497.75,730.74,496.85,732.9z"/>
</g>
</svg>
