<?xml version="1.0" encoding="utf-8"?>
<!-- Generator: Adobe Illustrator 24.1.2, SVG Export Plug-In . SVG Version: 6.00 Build 0)  -->
<svg version="1.1" id="Layer_1" xmlns="http://www.w3.org/2000/svg" xmlns:xlink="http://www.w3.org/1999/xlink" x="0px" y="0px"
	 viewBox="0 0 2014 2500" style="enable-background:new 0 0 2014 2500;" xml:space="preserve">
<style type="text/css">
	.st0{fill:#FEFDFD;}
	.st1{fill:#E87D06;}
	.st2{fill:#065164;}
	.st3{fill:#FDFDFC;}
	.st4{fill:#0E5769;}
	.st5{fill:#E9810D;}
	.st6{fill:#1B6071;}
	.st7{fill:#0D5669;}
	.st8{fill:#EA8515;}
	.st9{fill:#E98311;}
	.st10{fill:#EB9534;}
	.st11{fill:#EC9738;}
	.st12{fill:#EB8C24;}
	.st13{fill:#EC9639;}
	.st14{fill:#ED9B3F;}
	.st15{fill:#EC9638;}
	.st16{fill:#EA8A20;}
	.st17{fill:#EC922F;}
	.st18{fill:#FAEEE1;}
	.st19{fill:#EB922F;}
	.st20{fill:#EB902C;}
	.st21{fill:#EC9332;}
	.st22{fill:#EC902B;}
	.st23{fill:#ED9A40;}
	.st24{fill:#EEA24F;}
	.st25{fill:#F1B068;}
	.st26{fill:#EC9B42;}
	.st27{fill:#F8EAD6;}
	.st28{fill:#FDFAF7;}
	.st29{fill:#FAF0E3;}
</style>
<g>
	<path class="st0" d="M322.9,1934.1c22.82,21.96,44.7,45.01,68.62,65.71c169.91,147.05,370.32,217.13,592.54,228.78
		c182.09,9.54,351.21-38.03,509.41-125.38c67.55-37.3,131.52-80.55,184.22-138.15c17.14-18.74,34.53-37.26,52.25-55.46
		c7.88-8.1,18.12-14.13,25.11-22.83c65.99-82.22,120.66-170.36,158.49-269.87c40.14-105.58,64.47-213.75,68.75-325.74
		c4.33-113.29-12.98-224.74-50.29-331.95c-47.04-135.15-117.29-256.95-219.32-359.05c-71.43-77.16-155.18-138.36-248.6-185.9
		c-159.83-81.33-329.28-116.79-509.07-105.34c-148.55,9.47-287.77,48.07-417.02,121.7c-147.37,83.95-261.82,200.36-350.71,344.54
		c-81.23,131.76-122.25,275.46-134.05,427.12c-12.26,157.57,14.27,310.12,79.7,455.41C179.66,1761.44,240.13,1855.25,322.9,1934.1z"
		/>
	<path class="st1" d="M1712.67,600.13c102.05,102.12,172.3,223.92,219.33,359.07c37.31,107.22,54.62,218.66,50.29,331.95
		c-4.28,111.99-28.61,220.16-68.75,325.74c-37.83,99.51-92.5,187.65-158.49,269.87c-6.99,8.71-17.23,14.74-25.11,22.83
		c-17.71,18.2-35.1,36.72-52.25,55.46c-52.71,57.61-116.67,100.85-184.22,138.15c-158.2,87.35-327.32,134.92-509.41,125.38
		c-222.22-11.65-422.63-81.73-592.54-228.78c-23.92-20.7-45.8-43.75-68.62-65.71c20.47-19.68,40.94-39.35,61.41-59.03
		c24.2,20.63,48.11,41.61,72.63,61.85c391.64,323.16,961.27,238.28,1242.2-128.55c208.05-271.67,245.94-568.89,119.51-886.27
		c-38.99-97.87-99.72-182.33-171.77-258.86C1668.82,642.2,1690.74,621.17,1712.67,600.13z"/>
	<path class="st2" d="M384.32,1875.07c-20.47,19.68-40.94,39.35-61.41,59.03c-82.77-78.86-143.24-172.66-189.97-276.41
		c-65.43-145.28-91.97-297.84-79.7-455.41c11.81-151.66,52.82-295.36,134.05-427.12c88.89-144.18,203.33-260.59,350.71-344.54
		c129.25-73.63,268.47-112.23,417.02-121.7c179.8-11.46,349.24,24,509.07,105.34c93.41,47.54,177.16,108.73,248.59,185.89
		c-21.93,21.02-43.86,42.06-65.78,63.09c-3.68-3.06-7.61-5.86-11-9.21c-217.06-214.39-478.18-295.03-777.36-244.78
		C320.87,499.55-1.57,1078.02,200.33,1583.23C243.8,1692.02,308.01,1787.18,384.32,1875.07z"/>
	<path class="st3" d="M384.32,1875.07c-76.31-87.89-140.52-183.05-183.99-291.84C-1.57,1078.02,320.87,499.55,858.54,409.24
		c299.18-50.25,560.29,30.39,777.36,244.78c3.39,3.35,7.32,6.15,11,9.21c72.05,76.54,132.78,160.99,171.77,258.86
		c126.43,317.39,88.54,614.6-119.51,886.27c-280.92,366.83-850.56,451.71-1242.2,128.55
		C432.43,1916.68,408.52,1895.7,384.32,1875.07z M1649.42,1559.32c-6.02,1.06-12.05,2.12-18.07,3.18
		c32.15,11.48,33.6,10.74,28.85-9.73c-2.53-1.58-5.06-3.15-7.59-4.73C1651.55,1551.8,1650.48,1555.56,1649.42,1559.32z
		 M1497.03,1548.25c6.04,14.81,12.07,29.62,18.11,44.42c3.21-0.42,6.42-0.84,9.63-1.27c6.09-15.76,12.17-31.51,18.26-47.27
		c-2.64-1.2-5.27-2.4-7.91-3.59c-5.03,7.87-10.05,15.75-13.5,21.14c-8.45-6.66-16.19-12.76-23.93-18.85c-10.82,0-21.64,0-35.14,0
		c1.31,18.53,2.37,33.52,3.8,53.73C1479.7,1575.53,1488.37,1561.89,1497.03,1548.25z M973.66,1585.84
		c1.37,8.14,2.75,16.28,3.88,22.98c12.58-7.85,22.45-11.97,29.47-18.94c7.35-7.3,15.33-16.88,16.62-26.34
		c0.86-6.37-8.43-19.02-14.94-20.36c-10.87-2.24-23.14,2.33-34.83,4.04c-28.64-10.51-18.06,18.19-28.18,29.57
		c-5.65-4.42-10.64-8.33-16.05-12.57c-14.04,20.88-1.57,27.93,16.48,28.92C955.12,1593.63,964.46,1588.45,973.66,1585.84z
		 M465.67,1388.53c-7.18-15.03-12.74-25.86-17.6-37c-17.3-39.64-34.17-79.47-51.56-119.07c-10.93-24.89-30.96-32.86-56.79-28.38
		c-17.65,3.07-36.42,7.18-36.74,29.57c-0.91,63.25-0.32,126.52-0.32,190.34c16.96,0,30.82,0,47.81,0c0-57.61,0-113.42,0-169.23
		c26.67,46.1,48.52,92.85,69.28,140.09c8.97,20.41,21.3,32.79,45.36,33.26c25.34,0.5,39.23-11.83,47.99-33.68
		c6.08-15.16,13.18-29.91,19.97-44.77c14.43-31.59,28.96-63.13,43.45-94.7c2.12,0.64,4.25,1.27,6.37,1.91c0,55.53,0,111.07,0,167.72
		c16.54,0,30.63,0,48.09,0c0-58.7,0.2-116.21-0.07-173.72c-0.17-34.78-12.05-46.67-46.68-48.06c-25.7-1.03-40.99,12.38-50.9,34.94
		C511.82,1286.73,489.57,1335.4,465.67,1388.53z M1381.94,1418.61c3.11,0.12,6.22,0.25,9.33,0.37
		c5.38-20.03,13.71-39.81,15.45-60.15c2.62-30.59,1.07-61.59,0.49-92.39c-0.6-32.02-13.05-51.52-44.54-53.91
		c-48.73-3.7-98.18-3.55-146.91,0.19c-31.36,2.4-43.67,22.07-44.02,54.15c-0.35,32.74,0.75,65.52-0.32,98.23
		c-1.03,31.24,13.89,51.13,43.27,55.35c32.16,4.63,65.2,2.75,97.68,5.68c12.38,1.12,28.02,4.25,35.65,12.47
		c20.82,22.43,44.46,21.55,75.82,17.15C1407.46,1441.23,1394.7,1429.92,1381.94,1418.61z M1712.75,1259.1
		c2.22-1.99,4.43-3.97,6.65-5.96c-27.11-22.97-54.22-45.93-84.45-71.55c27.89-6.04,51.9-11.23,75.91-16.43
		c1.35-2.73,2.69-5.47,4.04-8.2c-27.82-21.32-52.81-49.66-84.15-62.27c-44.47-17.9-65.21-50.2-81.06-90.26
		c-4.24-10.72-9.72-20.95-14-31.66c-24.4-61.01-63.63-112.15-119.68-144.57c-50.6-29.28-107.27-48.16-161.43-71.23
		c-17.46-7.44-36.11-12.54-50.17,5.52c-14.72,18.9-3.55,35.36,6.54,52.69c15.31,26.3,28.49,53.83,42.28,81
		c6.08,11.98,9.27,26.12,17.59,36.13c14.73,17.72,13.93,34.44,8.06,55.44c-12.03,43.05-11.56,86.41,15.8,124.5
		c6.18,8.6,20.42,16.14,30.47,15.58c6.38-0.36,12.61-16.21,17.48-25.83c3.02-5.98,3.36-13.3,4.8-19.56
		c18.72,23.25,36.09,44.84,53.47,66.42c1.82-1.32,3.64-2.65,5.46-3.97c-20.02-36.96-40.03-73.92-64.95-119.94
		c-10.58,32.32-18.58,56.72-26.57,81.13c-20.82-20.66-35.53-57.49-23.96-92.8c13.38-40.85,9.6-73.27-14.27-108.7
		c-21.69-32.2-36.64-68.97-53.86-104.07c-3.49-7.12-3.84-15.77-5.63-23.72c8.8-0.12,18.74-2.98,26.21,0.11
		c32.31,13.37,61.06,36.26,98.74,34.85c3.55-0.13,7.27,2.38,10.8,3.92c71.17,31.21,122.32,82.79,155.33,152.54
		c14,29.57,27.68,59.31,40.65,89.34c8.92,20.66,22.72,32.27,44.75,40.74c31.56,12.12,60.29,31.55,94.32,50.09
		c-34.41,8.25-60,14.39-87.21,20.91C1624.77,1223.37,1674.8,1232.97,1712.75,1259.1z M846.18,1274.36c0,40.69,0,79.72,0,120.52
		c-34.66,0-66.45-0.09-98.23,0.03c-21.38,0.08-31.57-8.79-30.48-31.58c1.4-29.3,0.34-58.71,0.34-87.94c-18.32,0-32.37,0-48.55,0
		c0,31.51,0.89,61.26-0.26,90.93c-1.08,27.84,12.89,44.07,37.85,50.6c17.53,4.58,36.07,6.38,54.25,7.13
		c27.76,1.14,55.61,0.3,84.03,0.3c5.69,31.11-13.21,35.13-33.59,35.42c-46.06,0.67-92.14,0.21-139.24,0.21c0,11.13,0,19.33,0,29.45
		c56.18,0,111.07,1.68,165.78-0.75c25.27-1.12,53.4-11.02,54.96-41.43c2.94-57.28,0.85-114.82,0.85-172.89
		C877.12,1274.36,863.09,1274.36,846.18,1274.36z M1142.04,1239.62c0-13.03,0-21.32,0-31.5c-52.45,0-103.53-2.21-154.32,0.7
		c-40.48,2.32-55.54,21.3-56.12,59.01c-0.57,37.26,13.67,54.39,55.05,59.92c25.7,3.44,52.03,1.98,78.05,3.21
		c17.37,0.82,28.42,6.76,28.79,27.76c0.41,23.33-7.91,34.01-31.57,33.75c-43.11-0.47-86.23-0.13-131.69-0.13
		c0.7,13.42,1.18,22.49,1.57,29.81c55.6,0,108.86,4.1,161.12-1.31c41.24-4.27,50.95-23.63,49.64-67.11
		c-0.89-29.59-14.49-44.29-52.51-49.73c-26.58-3.8-53.84-3.43-80.81-3.93c-22.52-0.42-29.66-11.7-29.9-33.02
		c-0.25-22.65,11.15-27.83,30.68-27.59C1053.31,1239.98,1096.61,1239.62,1142.04,1239.62z M1436.55,1208.03
		c0,57.08-0.75,110.88,0.31,164.63c0.54,27.06,18.35,43.96,43.56,46.31c54.37,5.08,109.07,6.59,165.49,9.66c0-14.63,0-23.66,0-32.08
		c-3.04-1.5-4.73-3.04-6.43-3.06c-30.9-0.44-61.79-0.87-92.69-0.94c-61.84-0.15-61.84-0.06-61.85-61.27c-0.01-40.95,0-81.9,0-123.24
		C1466.76,1208.03,1453.39,1208.03,1436.55,1208.03z M1231.05,1551.31c-5.55-0.97-13.69-3.75-21.72-3.46
		c-12.59,0.45-26.51,0.38-36.9,6c-3.78,2.04-2.94,24.68,2.73,29.13c8.42,6.6,23.01,5.37,34.97,7.48c0.21-2.53,0.42-5.05,0.62-7.58
		c-8.3-1.82-16.59-3.63-24.89-5.45c1.08-3.31,2.16-6.62,3.24-9.93c14.36,5.34,28.72,10.68,40.34,15.01
		C1229.7,1577.89,1230.31,1565.87,1231.05,1551.31z M675.31,1515.83c0,31.39,0,51.96,0,82.24c20.94-9.12,39.77-13.18,52.06-24.38
		c6.5-5.92,6.93-30.54,0.79-35.68C715.43,1527.34,696.48,1524.03,675.31,1515.83z M1398.31,1530.28c-0.78-3.43-1.57-6.86-2.35-10.29
		c-11.21,3.8-22.42,7.59-33.63,11.39c6.93,14.26,13.85,28.52,22.3,45.91c-5.79,0.94-15.21,2.48-24.63,4.02
		c0.62,3.33,1.25,6.66,1.87,9.99c12.58-3.13,30.55-2.12,36.73-10.15c19.48-25.29-18.62-26.05-23.61-44.27
		C1383.56,1534.46,1390.94,1532.37,1398.31,1530.28z M1078.03,1585.26c-13.64-4.13-21.67-6.57-29.7-9c0.58-1.49,1.17-2.98,1.75-4.46
		c9.33-1.03,18.66-2.05,29.58-3.26c-4.86-17.88-11.82-33.59-30.73-25.26c-8.43,3.71-17.04,21.8-15.08,31.2
		C1038.21,1595.49,1055.38,1594.43,1078.03,1585.26z M888.37,1569.13c-4.44-21.9-14.83-34.04-32.39-25.33
		c-8.27,4.1-16.15,22.85-13.59,32c5.62,20.06,22.43,18.22,43.4,9.59c-13.16-3.92-21.55-6.42-29.93-8.92
		c0.41-1.64,0.81-3.27,1.22-4.91C866.35,1570.84,875.61,1570.12,888.37,1569.13z M1454.14,1568.76c1.44-3.86,2.88-7.72,4.31-11.58
		c-11.61-4.56-23.23-9.13-34.84-13.69c-3.65,11.49-12.94,24.98-9.72,34.04c5.85,16.44,21.46,16.95,40.58,7.77
		c-11.51-3.96-18.77-6.47-34.02-11.72C1437.92,1571.08,1446.03,1569.92,1454.14,1568.76z M1118.57,1587.64
		c1.62,0.26,3.24,0.52,4.86,0.78c0.97-5.87,1.19-11.99,3.11-17.53c2.15-6.21,5.83-11.89,8.84-17.8c4.22,6.12,9.33,11.84,12.39,18.49
		c2.59,5.63,2.81,12.34,5.75,26.72c14.55-53.1,6.42-59.66-49.94-54.42C1108.41,1557.98,1113.49,1572.81,1118.57,1587.64z
		 M781.6,1569.2c2.12-2.65,4.23-5.3,6.35-7.95c-7.12-6.56-13.32-16.02-21.68-18.66c-5.49-1.73-19.05,5.23-20.26,10.35
		c-2.34,9.89-1.99,24.15,3.84,31.08c5.03,5.98,19.21,4.31,29.35,6.02c0.19-2.13,0.38-4.27,0.58-6.4
		c-7.42-2.22-14.84-4.45-22.25-6.67c0.19-1.62,0.38-3.23,0.58-4.85C765.93,1571.14,773.77,1570.17,781.6,1569.2z M797.87,1540.79
		c-3.19,1.16-6.39,2.32-9.58,3.48c6.65,16,13.31,32,19.96,48c3.17-0.1,6.33-0.21,9.5-0.31c5.91-15.98,11.83-31.96,17.74-47.95
		c-2.23-1.07-4.47-2.14-6.7-3.21c-5.19,6.77-10.37,13.54-16.02,20.91C807.08,1553.71,802.47,1547.25,797.87,1540.79z
		 M1683.88,1577.08c-2.57,2.4-6.11,5.7-9.65,9.01c11.96,2.99,27.25,1.01,28.16-3.72c1.62-8.43-5.45-18.52-9.04-28.35
		c1.71-1.5,5.33-4.67,8.94-7.83c-1.3-2.35-2.59-4.69-3.89-7.04c-8.24,4.09-20.61,6.34-23.49,12.8
		C1672.36,1557.7,1680.32,1568.11,1683.88,1577.08z M1296.7,1588.32c0.71-15.75,1.34-29.97,2.17-48.25
		c-0.27-0.23-5.65-4.79-11.05-9.36C1270.41,1552.47,1278.32,1585.17,1296.7,1588.32z M1608.52,1593.66c0.71-2.55,1.42-5.1,2.13-7.65
		c-7.07-6.09-14.13-12.18-21.2-18.27c7.4-7.7,14.8-15.41,22.21-23.11c-12.86-0.91-25.8,1.82-33.48,9.67
		c-4.46,4.56-4.08,20.72,0.54,25.6C1585.7,1587.28,1598.31,1589.34,1608.52,1593.66z M1690.59,1399.78c0,6.79,0,14.93,0,23.49
		c13.31,0,25.63,0,39.71,0c-0.92-11.26-1.71-20.85-2.21-27.08C1713.29,1397.6,1702.64,1398.62,1690.59,1399.78z M1627.81,1544.81
		c-1.57,0.89-3.66,1.42-4.46,2.74c-0.56,0.91,0.65,2.9,1.06,4.4c1.57-0.72,3.86-1.06,4.48-2.26
		C1629.47,1548.57,1628.26,1546.54,1627.81,1544.81z"/>
	<path class="st4" d="M465.67,1388.53c23.9-53.14,46.15-101.81,67.67-150.79c9.91-22.55,25.2-35.96,50.9-34.94
		c34.63,1.38,46.51,13.27,46.68,48.06c0.28,57.51,0.07,115.02,0.07,173.72c-17.45,0-31.54,0-48.09,0c0-56.66,0-112.19,0-167.72
		c-2.12-0.64-4.25-1.27-6.37-1.91c-14.49,31.56-29.02,63.11-43.45,94.7c-6.79,14.86-13.89,29.62-19.97,44.77
		c-8.76,21.85-22.65,34.18-47.99,33.68c-24.06-0.47-36.39-12.85-45.36-33.26c-20.76-47.23-42.61-93.99-69.28-140.09
		c0,55.81,0,111.63,0,169.23c-17,0-30.86,0-47.81,0c0-63.82-0.59-127.09,0.32-190.34c0.32-22.38,19.09-26.5,36.74-29.57
		c25.83-4.49,45.86,3.48,56.79,28.38c17.39,39.6,34.27,79.43,51.56,119.07C452.93,1362.67,458.49,1373.5,465.67,1388.53z"/>
	<path class="st5" d="M1381.94,1418.61c12.76,11.31,25.52,22.61,41.9,37.13c-31.37,4.4-55.01,5.28-75.82-17.15
		c-7.63-8.23-23.27-11.36-35.65-12.47c-32.48-2.93-65.53-1.05-97.68-5.68c-29.38-4.23-44.29-24.11-43.27-55.35
		c1.08-32.71-0.03-65.48,0.32-98.23c0.34-32.08,12.66-51.74,44.02-54.15c48.74-3.74,98.18-3.89,146.91-0.19
		c31.49,2.39,43.93,21.89,44.54,53.91c0.58,30.81,2.13,61.8-0.49,92.39c-1.74,20.34-10.07,40.12-15.45,60.15
		C1388.16,1418.86,1385.05,1418.74,1381.94,1418.61z M1262.95,1363.47c41.32-16.08,65.39,3.68,89.51,27.09
		c4.54-8.49,9.26-13.26,9.35-18.11c0.69-36.54,2.22-73.25-0.78-109.55c-0.69-8.34-17.3-20.67-27.68-21.88
		c-26.66-3.12-53.94-1.58-80.95-0.84c-17.7,0.48-28.99,8.7-28.76,28.49c0.37,31.76,0.17,63.52,0.14,95.28
		c-0.02,19,10,28.36,28.44,29.03c12.86,0.46,25.76,0.09,38.64,0.09c1.15-2.38,2.31-4.76,3.46-7.14
		C1284.53,1378.9,1274.73,1371.89,1262.95,1363.47z"/>
	<path class="st6" d="M1712.75,1259.1c-37.95-26.13-87.98-35.73-112.07-89.83c27.2-6.52,52.8-12.66,87.21-20.91
		c-34.02-18.53-62.76-37.96-94.32-50.09c-22.03-8.46-35.83-20.08-44.75-40.74c-12.97-30.03-26.66-59.77-40.65-89.34
		c-33.01-69.75-84.16-121.34-155.33-152.54c-3.53-1.55-7.25-4.06-10.8-3.92c-37.68,1.41-66.43-21.48-98.74-34.85
		c-7.47-3.09-17.41-0.23-26.21-0.11c1.8,7.95,2.14,16.6,5.63,23.72c17.22,35.1,32.17,71.87,53.86,104.07
		c23.88,35.44,27.65,67.86,14.27,108.7c-11.57,35.31,3.14,72.14,23.96,92.8c7.99-24.41,15.99-48.81,26.57-81.13
		c24.92,46.02,44.94,82.98,64.95,119.94c-1.82,1.32-3.64,2.65-5.46,3.97c-17.38-21.58-34.75-43.17-53.47-66.42
		c-1.44,6.26-1.77,13.58-4.8,19.56c-4.86,9.62-11.09,25.47-17.48,25.83c-10.05,0.57-24.29-6.98-30.47-15.58
		c-27.35-38.09-27.82-81.45-15.8-124.5c5.87-21.01,6.67-37.73-8.06-55.44c-8.32-10-11.51-24.15-17.59-36.13
		c-13.79-27.16-26.97-54.7-42.28-81c-10.09-17.33-21.25-33.78-6.54-52.69c14.06-18.06,32.71-12.96,50.17-5.52
		c54.16,23.08,110.84,41.96,161.43,71.23c56.05,32.43,95.27,83.57,119.68,144.57c4.28,10.71,9.76,20.94,14,31.66
		c15.84,40.05,36.58,72.36,81.06,90.26c31.35,12.62,56.33,40.95,84.15,62.27c-1.35,2.73-2.69,5.47-4.04,8.2
		c-24.01,5.2-48.01,10.39-75.91,16.43c30.24,25.61,57.34,48.58,84.45,71.55C1717.18,1255.13,1714.97,1257.11,1712.75,1259.1z"/>
	<path class="st7" d="M846.18,1274.36c16.91,0,30.93,0,47.71,0c0,58.08,2.09,115.61-0.85,172.89c-1.56,30.4-29.69,40.31-54.96,41.43
		c-54.71,2.43-109.6,0.75-165.78,0.75c0-10.12,0-18.32,0-29.45c47.1,0,93.17,0.46,139.24-0.21c20.38-0.29,39.27-4.31,33.59-35.42
		c-28.42,0-56.27,0.84-84.03-0.3c-18.18-0.75-36.72-2.54-54.25-7.13c-24.96-6.52-38.92-22.76-37.85-50.6
		c1.15-29.67,0.26-59.42,0.26-90.93c16.18,0,30.23,0,48.55,0c0,29.23,1.06,58.64-0.34,87.94c-1.09,22.79,9.1,31.67,30.48,31.58
		c31.79-0.12,63.57-0.03,98.23-0.03C846.18,1354.07,846.18,1315.05,846.18,1274.36z"/>
	<path class="st8" d="M1142.04,1239.62c-45.43,0-88.72,0.36-132.01-0.16c-19.52-0.24-30.93,4.94-30.68,27.59
		c0.24,21.32,7.38,32.6,29.9,33.02c26.97,0.51,54.22,0.13,80.81,3.93c38.02,5.44,51.62,20.15,52.51,49.73
		c1.3,43.48-8.4,62.83-49.64,67.11c-52.27,5.41-105.52,1.31-161.12,1.31c-0.38-7.32-0.86-16.39-1.57-29.81
		c45.45,0,88.58-0.34,131.69,0.13c23.66,0.26,31.98-10.42,31.57-33.75c-0.37-20.99-11.42-26.94-28.79-27.76
		c-26.02-1.23-52.36,0.23-78.05-3.21c-41.38-5.54-55.63-22.66-55.05-59.92c0.58-37.71,15.63-56.68,56.12-59.01
		c50.79-2.92,101.88-0.7,154.32-0.7C1142.04,1218.31,1142.04,1226.59,1142.04,1239.62z"/>
	<path class="st9" d="M1436.55,1208.03c16.84,0,30.21,0,48.39,0c0,41.33-0.01,82.29,0,123.24c0.01,61.21,0.01,61.12,61.85,61.27
		c30.9,0.08,61.8,0.51,92.69,0.94c1.71,0.02,3.39,1.57,6.43,3.06c0,8.42,0,17.45,0,32.08c-56.42-3.07-111.13-4.58-165.49-9.66
		c-25.21-2.35-43.02-19.24-43.56-46.31C1435.8,1318.91,1436.55,1265.12,1436.55,1208.03z"/>
	<path class="st10" d="M973.85,1547.22c11.68-1.7,23.96-6.27,34.83-4.04c6.51,1.34,15.81,13.99,14.94,20.36
		c-1.28,9.45-9.26,19.04-16.62,26.34c-7.02,6.97-16.89,11.09-29.47,18.94c-1.13-6.7-2.5-14.84-3.89-22.97
		C973.71,1572.97,973.78,1560.1,973.85,1547.22z"/>
	<path class="st11" d="M1231.05,1551.31c-0.74,14.56-1.35,26.58-1.58,31.2c-11.63-4.33-25.98-9.67-40.34-15.01
		c-1.08,3.31-2.16,6.62-3.24,9.93c8.3,1.82,16.59,3.63,24.89,5.45c-0.21,2.53-0.42,5.05-0.62,7.58
		c-11.96-2.11-26.55-0.88-34.97-7.48c-5.67-4.45-6.51-27.09-2.73-29.13c10.38-5.62,24.31-5.55,36.9-6
		C1217.35,1547.56,1225.49,1550.34,1231.05,1551.31z"/>
	<path class="st12" d="M675.31,1515.83c21.17,8.19,40.12,11.51,52.85,22.18c6.14,5.14,5.71,29.76-0.79,35.68
		c-12.29,11.19-31.13,15.25-52.06,24.38C675.31,1567.8,675.31,1547.23,675.31,1515.83z M688.37,1531.92c0,18.1,0,33.41,0,49.69
		c20.54,0.14,32-7.51,32.08-26.17C720.54,1535.37,707.37,1530.53,688.37,1531.92z"/>
	<path class="st13" d="M1398.31,1530.28c-7.37,2.09-14.75,4.18-23.32,6.61c4.99,18.22,43.08,18.98,23.61,44.27
		c-6.18,8.02-24.15,7.02-36.73,10.15c-0.62-3.33-1.25-6.66-1.87-9.99c9.42-1.54,18.84-3.07,24.63-4.02
		c-8.45-17.39-15.37-31.65-22.3-45.91c11.21-3.8,22.42-7.59,33.63-11.39C1396.74,1523.42,1397.53,1526.85,1398.31,1530.28z"/>
	<path class="st14" d="M1078.03,1585.26c-22.65,9.18-39.82,10.23-44.19-10.78c-1.95-9.4,6.65-27.49,15.08-31.2
		c18.92-8.33,25.87,7.39,30.73,25.26c-10.92,1.2-20.25,2.23-29.58,3.26c-0.58,1.49-1.17,2.98-1.75,4.46
		C1056.36,1578.69,1064.39,1581.12,1078.03,1585.26z"/>
	<path class="st15" d="M888.37,1569.13c-12.76,0.99-22.02,1.71-31.29,2.43c-0.41,1.64-0.81,3.27-1.22,4.91
		c8.38,2.5,16.77,5,29.93,8.92c-20.97,8.64-37.78,10.47-43.4-9.59c-2.56-9.15,5.31-27.9,13.59-32
		C873.54,1535.09,883.93,1547.22,888.37,1569.13z"/>
	<path class="st15" d="M1454.14,1568.76c-8.11,1.16-16.22,2.32-33.68,4.82c15.24,5.25,22.51,7.75,34.02,11.72
		c-19.12,9.18-34.72,8.67-40.58-7.77c-3.23-9.06,6.07-22.55,9.72-34.04c11.61,4.56,23.23,9.13,34.84,13.69
		C1457.02,1561.04,1455.58,1564.9,1454.14,1568.76z"/>
	<path class="st16" d="M1118.57,1587.64c-5.08-14.83-10.16-29.66-14.99-43.76c56.35-5.24,64.49,1.32,49.94,54.42
		c-2.93-14.38-3.15-21.09-5.75-26.72c-3.06-6.65-8.17-12.37-12.39-18.49c-3.01,5.91-6.7,11.59-8.84,17.8
		c-1.92,5.54-2.14,11.66-3.11,17.53C1121.81,1588.16,1120.19,1587.9,1118.57,1587.64z"/>
	<path class="st17" d="M781.6,1569.2c-7.83,0.97-15.67,1.94-23.5,2.91c-0.19,1.62-0.38,3.23-0.58,4.85
		c7.42,2.22,14.84,4.45,22.25,6.67c-0.19,2.13-0.38,4.27-0.58,6.4c-10.14-1.71-24.32-0.04-29.35-6.02
		c-5.83-6.94-6.18-21.2-3.84-31.08c1.21-5.12,14.77-12.08,20.26-10.35c8.36,2.64,14.56,12.1,21.68,18.66
		C785.84,1563.9,783.72,1566.55,781.6,1569.2z"/>
	<path class="st18" d="M973.85,1547.22c-0.07,12.88-0.14,25.76-0.2,38.63c-9.19,2.61-18.53,7.79-27.56,7.29
		c-18.04-0.99-30.52-8.04-16.48-28.92c5.41,4.24,10.4,8.15,16.05,12.57C955.79,1565.41,945.21,1536.7,973.85,1547.22z"/>
	<path class="st19" d="M797.87,1540.79c4.6,6.46,9.21,12.93,14.91,20.93c5.65-7.37,10.83-14.14,16.02-20.91
		c2.23,1.07,4.47,2.14,6.7,3.21c-5.91,15.98-11.83,31.96-17.74,47.95c-3.17,0.1-6.33,0.21-9.5,0.31c-6.65-16-13.31-32-19.96-48
		C791.48,1543.11,794.67,1541.95,797.87,1540.79z"/>
	<path class="st20" d="M1497.68,1542.83c7.74,6.1,15.48,12.2,23.93,18.85c3.44-5.39,8.47-13.27,13.5-21.14
		c2.64,1.2,5.27,2.4,7.91,3.59c-6.09,15.76-12.17,31.51-18.26,47.27c-3.21,0.42-6.42,0.84-9.63,1.27
		c-6.04-14.81-12.07-29.62-18.11-44.42C1497.47,1546.47,1497.68,1544.66,1497.68,1542.83z"/>
	<path class="st21" d="M1683.88,1577.08c-3.57-8.97-11.53-19.38-8.97-25.12c2.88-6.46,15.25-8.72,23.49-12.8
		c1.3,2.35,2.59,4.69,3.89,7.04c-3.62,3.17-7.23,6.34-8.94,7.83c3.59,9.82,10.66,19.92,9.04,28.35c-0.91,4.73-16.2,6.72-28.16,3.72
		C1677.77,1582.79,1681.31,1579.48,1683.88,1577.08z"/>
	<path class="st22" d="M1296.7,1588.32c-18.39-3.15-26.29-35.85-8.88-57.62c5.4,4.57,10.78,9.14,11.05,9.36
		C1298.05,1558.35,1297.41,1572.57,1296.7,1588.32z"/>
	<path class="st23" d="M1608.52,1593.66c-10.21-4.32-22.82-6.38-29.8-13.75c-4.63-4.88-5-21.05-0.54-25.6
		c7.68-7.85,20.62-10.58,33.48-9.67c-7.4,7.7-14.8,15.41-22.21,23.11c7.07,6.09,14.13,12.18,21.2,18.27
		C1609.94,1588.56,1609.23,1591.11,1608.52,1593.66z"/>
	<path class="st24" d="M1497.68,1542.83c0,1.83-0.21,3.64-0.65,5.42c-8.66,13.64-17.32,27.28-30.69,48.32
		c-1.43-20.22-2.49-35.2-3.8-53.73C1476.04,1542.83,1486.86,1542.83,1497.68,1542.83z"/>
	<path class="st25" d="M1690.59,1399.78c12.06-1.16,22.71-2.18,37.5-3.6c0.51,6.23,1.29,15.82,2.21,27.08c-14.08,0-26.4,0-39.71,0
		C1690.59,1414.71,1690.59,1406.57,1690.59,1399.78z"/>
	<path class="st26" d="M1660.2,1552.77c4.74,20.48,3.3,21.22-28.85,9.73c6.02-1.06,12.05-2.12,18.07-3.18
		C1653.02,1557.14,1656.61,1554.95,1660.2,1552.77z"/>
	<path class="st5" d="M1660.2,1552.77c-3.59,2.19-7.19,4.37-10.78,6.56c1.06-3.76,2.12-7.52,3.18-11.28
		C1655.14,1549.62,1657.67,1551.19,1660.2,1552.77z"/>
	<path class="st27" d="M1627.81,1544.81c0.45,1.73,1.66,3.76,1.09,4.88c-0.62,1.2-2.92,1.54-4.48,2.26c-0.42-1.5-1.62-3.49-1.06-4.4
		C1624.16,1546.24,1626.24,1545.7,1627.81,1544.81z"/>
	<path class="st28" d="M1262.95,1363.47c11.78,8.42,21.58,15.43,31.38,22.43c-1.15,2.38-2.31,4.76-3.46,7.14
		c-12.88,0-25.77,0.37-38.64-0.09c-18.44-0.66-28.47-10.03-28.44-29.03c0.04-31.76,0.23-63.52-0.14-95.28
		c-0.23-19.79,11.06-28.01,28.76-28.49c27.01-0.73,54.29-2.28,80.95,0.84c10.38,1.22,26.99,13.54,27.68,21.88
		c3,36.3,1.47,73.01,0.78,109.55c-0.09,4.86-4.81,9.63-9.35,18.11C1328.33,1367.15,1304.27,1347.39,1262.95,1363.47z"/>
	<path class="st29" d="M688.37,1531.92c19-1.39,32.17,3.46,32.08,23.52c-0.08,18.67-11.54,26.31-32.08,26.17
		C688.37,1565.33,688.37,1550.02,688.37,1531.92z"/>
</g>
</svg>
