<?xml version="1.0" encoding="utf-8"?>
<!-- Generator: Adobe Illustrator 24.1.2, SVG Export Plug-In . SVG Version: 6.00 Build 0)  -->
<svg version="1.1" id="Layer_1" xmlns="http://www.w3.org/2000/svg" xmlns:xlink="http://www.w3.org/1999/xlink" x="0px" y="0px"
	 viewBox="0 0 1000 1000" style="enable-background:new 0 0 1000 1000;" xml:space="preserve">
<style type="text/css">
	.st0{fill:#8BC400;}
	.st1{fill:#666861;}
	.st2{fill:#FCFDFB;}
	.st3{fill:#676A62;}
	.st4{fill:#A1BD5F;}
	.st5{fill:#A7BF6E;}
	.st6{fill:#A3BB69;}
	.st7{fill:#939D7C;}
	.st8{fill:#A6C069;}
	.st9{fill:#A2B37B;}
	.st10{fill:#8BC401;}
	.st11{fill:#8DC607;}
</style>
<g>
	<path class="st0" d="M919.36,499.88c0,70.26-0.41,140.53,0.23,210.78c0.21,22.93-9.75,38.48-28.64,49.43
		c-119.31,69.19-238.63,138.34-358.03,207.37c-6.95,4.02-14.33,7.71-21.97,10.01c-13.94,4.19-27.16,0.9-39.58-6.3
		c-108.06-62.62-216.13-125.21-324.2-187.8c-14.89-8.63-29.68-17.44-44.71-25.83c-16.2-9.03-23.96-22.92-23.98-41.11
		c-0.11-84.31-0.04-168.63-0.04-252.94c0-58.92,0.25-117.84-0.14-176.76c-0.14-20.81,9.47-35.48,26.45-45.4
		c74.09-43.28,148.42-86.15,222.65-129.18c48.07-27.87,96.09-55.82,144.2-83.61c18.11-10.46,36.43-10.46,54.6,0.06
		c122.95,71.23,245.85,142.55,368.89,213.63c16.65,9.62,24.3,23.66,24.31,42.42c0.02,71.74,0.01,143.48,0.01,215.22
		C919.39,499.88,919.38,499.88,919.36,499.88z M725.28,480.41c-0.52,2.07-1.48,4.14-1.49,6.21c-0.1,24.64-0.11,49.27,0.01,73.91
		c0.01,2.05,1.05,4.09,1.61,6.13c1.03,0.98,1.92,2.21,3.11,2.91c17.92,10.5,36.24,20.36,53.69,31.58
		c10.82,6.96,19.83,7.91,30.75,0.23c10.05-7.07,21.47-12.18,34.02-19.11c-4.32-3.35-7.22-6.16-10.6-8.12
		c-17.34-10.07-34.53-20.44-52.34-29.6c-7.86-4.05-9.76-9.07-10.13-17.34c-0.56-12.34,1.59-21.06,14.35-26.81
		c7.84-3.54,12.73-3.63,20.44,0.09c11.34,5.48,15.95,12.48,14.4,24.97c-0.99,7.97,3.34,10.13,10.22,6.05
		c7.95-4.73,15.36-10.65,23.76-14.3c13.44-5.83,18.56-14.95,16.29-29.33c-0.88-5.6-2.57-9.46-7.64-12.33
		c-18.96-10.72-37.79-21.69-56.57-32.73c-6.93-4.07-13.52-4.77-20.67-0.44c-12.32,7.46-24.9,14.47-37.26,21.86
		C742.48,469.47,733.92,475.01,725.28,480.41z M124.15,480.62c-0.45,2.08-1.29,4.16-1.3,6.24c-0.08,31.93-0.08,63.87,0,95.8
		c0.01,2.09,0.8,4.18,1.23,6.27c2.42,0.21,5.29,1.38,7.18,0.47c6.1-2.93,11.97-6.41,17.69-10.05c8.08-5.14,15.96-10.61,23.92-15.93
		c0.54-2.01,1.54-4.02,1.55-6.03c0.09-16.2,0-32.4-0.04-48.6c5.7-3.97,11.18-8.32,17.19-11.75c2.64-1.5,7.05-2.53,9.43-1.33
		c7.65,3.85,14.73,8.84,22.03,13.38c0.07,15.66,0.08,31.33,0.26,46.99c0.03,2.56,0.84,5.12,1.28,7.68c2.88,2.59,5.46,5.69,8.71,7.68
		c9.8,6,19.87,11.55,29.82,17.3c8.02,4.63,10.47,3.28,10.48-5.99c0.03-28.06-0.62-56.15,0.29-84.18c0.43-13.24-1.7-22-15.3-28.27
		c-18.56-8.55-35.56-20.45-53.6-30.2c-3.46-1.87-9.55-2.11-12.95-0.31c-17.89,9.48-35.39,19.72-52.85,30
		C133.87,472.9,129.14,476.98,124.15,480.62z M624.73,343c-0.43,7.51-1.15,15.01-1.23,22.53c-0.3,28.03-0.38,56.05-0.55,84.08
		c-2.16-0.8-4.36-1.51-6.48-2.41c-8.47-3.57-16.14-10.56-26.47-4.43c-19.83,11.76-39.88,23.15-59.85,34.69
		c-3.87,2.24-5.96,5.13-5.91,10.06c0.23,24.4,0.15,48.8,0.07,73.2c-0.02,5.18,1.86,8.61,6.57,11.28
		c17.86,10.14,35.45,20.76,53.25,31.02c7.76,4.47,14.91,9.32,24.87,2.88c16.47-10.65,33.95-19.72,50.86-29.7
		c4.75-2.8,9-6.47,13.48-9.74c0.6-2.48,1.73-4.96,1.73-7.43c0.1-61.07,0.1-122.15,0-183.22c0-2.49-1.06-4.99-1.62-7.48
		c-2.48-2.46-4.59-5.52-7.5-7.27c-8.87-5.34-17.86-10.56-27.19-15.01C634.56,344.02,629.44,343.95,624.73,343z M474.15,523.05
		c0-12.32-0.14-24.64,0.07-36.95c0.09-5.01-1.74-8.19-6.13-10.69c-20.7-11.77-41.32-23.68-61.84-35.77
		c-4.97-2.93-9.22-3.21-14.33-0.19c-20.5,12.11-41.13,23.99-61.82,35.78c-4.6,2.62-6.47,6.06-6.43,11.35
		c0.17,24.14,0.17,48.28-0.01,72.42c-0.04,5.03,1.71,8.29,6.05,10.78c20.87,11.95,41.51,24.32,62.6,35.86
		c3.42,1.87,9.57,2.01,12.94,0.17c21.1-11.53,41.76-23.87,62.59-35.9c4.44-2.56,6.55-6,6.4-11.4
		C473.92,546.71,474.15,534.88,474.15,523.05z M812.47,522.99c0-8.19-6.88-15.51-14.64-15.58c-6.61-0.06-13.54,7.49-13.55,14.73
		c-0.01,8.44,6.7,16.17,14.08,16.25C804.35,538.46,812.47,529.6,812.47,522.99z"/>
	<path class="st1" d="M673.33,566.45c-4.48,3.27-8.72,6.94-13.48,9.74c-16.91,9.98-34.4,19.04-50.86,29.7
		c-9.96,6.44-17.11,1.59-24.87-2.88c-17.8-10.26-35.39-20.87-53.25-31.02c-4.71-2.67-6.58-6.1-6.57-11.28
		c0.08-24.4,0.16-48.8-0.07-73.2c-0.05-4.93,2.04-7.82,5.91-10.06c19.96-11.54,40.01-22.93,59.85-34.69
		c10.34-6.13,18,0.86,26.47,4.43c2.12,0.89,4.32,1.61,6.48,2.4c0.66-1.69,1.88-3.37,1.88-5.06c0.05-33.85-0.04-67.7-0.1-101.55
		c4.7,0.95,9.82,1.02,14.02,3.03c9.33,4.45,18.32,9.68,27.19,15.01c2.9,1.75,5.02,4.81,7.5,7.27c0.07,51.51,0.17,103.02,0.2,154.53
		C673.66,537.38,673.44,551.91,673.33,566.45z M623.44,526.69c0-5.22,0.3-8.7-0.12-12.09c-0.24-1.93-1.12-4.48-2.58-5.47
		c-12.27-8.25-24.48-18.83-39.06-3.77c-0.48,0.49-1.32,0.61-1.96,0.95c-6.9,3.68-10.16,29.08-3.88,33.65
		c6.09,4.42,12.8,8.09,19.58,11.39c1.97,0.96,5.32,0.05,7.65-0.93c3.09-1.31,5.57-4.24,8.71-5.24
		C622.04,541.89,625.69,535.2,623.44,526.69z"/>
	<path class="st2" d="M474.15,523.05c0,11.82-0.23,23.65,0.1,35.47c0.15,5.4-1.96,8.84-6.4,11.4
		c-20.83,12.03-41.49,24.37-62.59,35.9c-3.37,1.84-9.52,1.71-12.94-0.17c-21.09-11.55-41.73-23.91-62.6-35.86
		c-4.33-2.48-6.09-5.75-6.05-10.78c0.18-24.14,0.18-48.28,0.01-72.42c-0.04-5.29,1.83-8.73,6.43-11.35
		c20.68-11.79,41.32-23.67,61.82-35.78c5.1-3.02,9.36-2.74,14.33,0.19c20.52,12.08,41.14,24,61.84,35.77
		c4.39,2.5,6.22,5.67,6.13,10.69C474,498.42,474.15,510.74,474.15,523.05z M424.23,525.21c-0.8-5.94,0.34-13.04-2.53-15.58
		c-6.48-5.73-14.92-12.6-22.6-12.63c-7.65-0.03-15.7,7.21-22.79,12.35c-2.06,1.49-2.05,6.75-1.88,10.22
		c0.34,6.66-0.82,15.32,2.82,19.42c5.37,6.05,14.41,12.13,21.86,12.09c7.46-0.04,15.67-6.69,21.98-12.23
		C424.06,536.23,423.38,529.43,424.23,525.21z"/>
	<path class="st1" d="M172.86,563.41c-7.96,5.33-15.84,10.79-23.92,15.93c-5.72,3.64-11.59,7.12-17.69,10.05
		c-1.89,0.9-4.76-0.26-7.18-0.47c0.02-36.1,0.05-72.2,0.07-108.31c4.99-3.64,9.72-7.72,15.01-10.84
		c17.46-10.28,34.96-20.52,52.85-30c3.4-1.8,9.49-1.56,12.95,0.31c18.05,9.76,35.05,21.65,53.6,30.2
		c13.59,6.26,15.73,15.03,15.3,28.27c-0.91,28.03-0.26,56.12-0.29,84.18c-0.01,9.28-2.46,10.63-10.48,5.99
		c-9.95-5.75-20.02-11.3-29.82-17.3c-3.25-1.99-5.83-5.09-8.71-7.68c0.04-16.23,0.15-32.46,0.06-48.68c-0.01-2-1.05-3.99-1.61-5.99
		c-7.3-4.55-14.38-9.53-22.03-13.38c-2.38-1.2-6.8-0.17-9.43,1.33c-6.01,3.42-11.49,7.77-17.19,11.75c-0.45,2.56-1.28,5.11-1.3,7.67
		C172.9,532.11,172.91,547.76,172.86,563.41z"/>
	<path class="st1" d="M725.28,480.41c8.64-5.4,17.2-10.94,25.94-16.17c12.36-7.39,24.94-14.4,37.26-21.86
		c7.15-4.33,13.74-3.63,20.67,0.44c18.78,11.04,37.61,22.01,56.57,32.73c5.07,2.87,6.76,6.73,7.64,12.33
		c2.27,14.38-2.85,23.5-16.29,29.33c-8.4,3.64-15.81,9.57-23.76,14.3c-6.87,4.09-11.21,1.92-10.22-6.05
		c1.55-12.49-3.05-19.5-14.4-24.97c-7.71-3.72-12.6-3.63-20.44-0.09c-12.76,5.76-14.9,14.47-14.35,26.81
		c0.37,8.27,2.27,13.29,10.13,17.34c17.81,9.17,35,19.54,52.34,29.6c3.38,1.96,6.28,4.77,10.6,8.12
		c-12.54,6.93-23.96,12.04-34.02,19.11c-10.93,7.68-19.93,6.73-30.75-0.23c-17.45-11.23-35.77-21.08-53.69-31.58
		c-1.2-0.7-2.08-1.93-3.11-2.91C725.36,537.91,725.32,509.16,725.28,480.41z"/>
	<path class="st3" d="M812.47,522.99c0,6.6-8.12,15.47-14.11,15.4c-7.39-0.08-14.09-7.81-14.08-16.25
		c0.01-7.25,6.94-14.79,13.55-14.73C805.59,507.48,812.47,514.8,812.47,522.99z"/>
	<path class="st4" d="M673.33,566.45c0.11-14.54,0.32-29.07,0.32-43.61c-0.03-51.51-0.13-103.02-0.2-154.53
		c0.56,2.49,1.62,4.99,1.62,7.48c0.09,61.07,0.09,122.15,0,183.22C675.06,561.5,673.93,563.97,673.33,566.45z"/>
	<path class="st5" d="M124.15,480.62c-0.02,36.1-0.05,72.2-0.07,108.31c-0.43-2.09-1.22-4.18-1.23-6.26
		c-0.08-31.93-0.08-63.87,0-95.8C122.86,484.78,123.7,482.7,124.15,480.62z"/>
	<path class="st6" d="M624.73,343c0.06,33.85,0.15,67.7,0.1,101.55c0,1.69-1.22,3.37-1.88,5.06c0.16-28.03,0.25-56.05,0.54-84.08
		C623.58,358.01,624.31,350.51,624.73,343z"/>
	<path class="st7" d="M725.28,480.41c0.04,28.75,0.09,57.5,0.13,86.25c-0.56-2.04-1.6-4.08-1.61-6.13
		c-0.11-24.64-0.11-49.27-0.01-73.91C723.8,484.54,724.76,482.48,725.28,480.41z"/>
	<path class="st8" d="M172.86,563.41c0.05-15.65,0.04-31.31,0.2-46.96c0.03-2.56,0.85-5.11,1.3-7.67c0.04,16.2,0.13,32.4,0.04,48.6
		C174.4,559.39,173.4,561.4,172.86,563.41z"/>
	<path class="st9" d="M223.02,509.09c0.56,2,1.59,3.99,1.61,5.99c0.09,16.23-0.01,32.45-0.06,48.68c-0.45-2.56-1.25-5.11-1.28-7.68
		C223.09,540.42,223.08,524.75,223.02,509.09z"/>
	<path class="st10" d="M623.44,526.69c2.25,8.51-1.4,15.2-11.66,18.48c-3.14,1-5.62,3.93-8.71,5.24c-2.32,0.99-5.68,1.89-7.65,0.93
		c-6.78-3.3-13.49-6.96-19.58-11.39c-6.29-4.57-3.03-29.97,3.88-33.65c0.64-0.34,1.49-0.46,1.96-0.95
		c14.57-15.06,26.79-4.48,39.06,3.77c1.46,0.98,2.34,3.53,2.58,5.47C623.74,517.99,623.44,521.47,623.44,526.69z"/>
	<path class="st11" d="M424.23,525.21c-0.84,4.23-0.16,11.03-3.14,13.64c-6.31,5.54-14.52,12.19-21.98,12.23
		c-7.44,0.04-16.49-6.04-21.86-12.09c-3.64-4.1-2.48-12.77-2.82-19.42c-0.18-3.47-0.18-8.73,1.88-10.22
		c7.09-5.14,15.14-12.38,22.79-12.35c7.67,0.03,16.12,6.9,22.6,12.63C424.57,512.17,423.42,519.27,424.23,525.21z"/>
</g>
</svg>
