<?xml version="1.0" encoding="utf-8"?>
<!-- Generator: Adobe Illustrator 24.1.2, SVG Export Plug-In . SVG Version: 6.00 Build 0)  -->
<svg version="1.1" id="Layer_1" xmlns="http://www.w3.org/2000/svg" xmlns:xlink="http://www.w3.org/1999/xlink" x="0px" y="0px"
	 viewBox="0 0 1000 1000" style="enable-background:new 0 0 1000 1000;" xml:space="preserve">
<style type="text/css">
	.st0{fill:#3773A6;}
	.st1{fill:#BCD0E1;}
	.st2{fill:#BBCFE1;}
	.st3{fill:#FFDC4D;}
	.st4{fill:#CDB9D2;}
	.st5{fill:#CDFFFF;}
	.st6{fill:#6973A6;}
	.st7{fill:#CEBBD3;}
	.st8{fill:#CBB9D2;}
	.st9{fill:#6BB9D2;}
	.st10{fill:#6C98BD;}
	.st11{fill:#CDDCE9;}
	.st12{fill:#6C96BC;}
	.st13{fill:#6B99BE;}
	.st14{fill:#68B8D1;}
	.st15{fill:#C7D8E7;}
</style>
<g>
	<path class="st0" d="M719.17,155.9c0,67.91,0.01,135.83,0.01,203.74c0,1.64,0.03,3.29,0.04,4.93c-0.04,0.26-0.09,0.53-0.13,0.79
		c-0.94,14.04-3.47,27.76-8.87,40.82c-9.13,22.09-24.43,38.66-45.26,50.24c-13.36,7.43-27.69,12.14-42.64,14.99
		c-4.62,0.88-9.35,1.26-14.02,1.87c-1.83,0.21-3.65,0.41-5.48,0.62c0,0,0.06,0.14,0.06,0.14c-1.14-0.03-2.28-0.08-3.41-0.08
		c-75.06,0-150.11,0-225.17,0c-1.01,0-2.02,0.04-3.04,0.06c-2.32,0.19-4.63,0.39-6.95,0.58c-14.19,1.22-28.05,3.84-41.33,9.21
		c-24.44,9.87-42.56,26.69-54.89,49.87c-8.51,16-13.4,33.11-15.48,51.07c-0.35,3-0.51,6.02-0.76,9.03c-0.13,0.32-0.27,0.64-0.4,0.95
		c-0.04,1.52-0.11,3.03-0.12,4.55c-0.01,35.68,0,71.36-0.01,107.05c0,1.52-0.08,3.03-0.12,4.55c-26.34,0.01-52.67,0.01-79.01,0.03
		c-1.51,0-3.02,0.08-4.53,0.13c-8.18-0.75-16.12-2.61-23.83-5.35c-24.31-8.62-42.91-24.54-57.53-45.43
		c-12.15-17.36-20.42-36.55-26.48-56.75c-5.12-17.07-8.62-34.48-10.71-52.17c-0.97-8.25-1.55-16.55-2.31-24.82
		c-0.13-0.31-0.25-0.63-0.38-0.94c-0.12-3.99-0.25-7.99-0.37-11.98c-0.12-0.31-0.24-0.62-0.37-0.93c-0.07-14.03-0.15-28.07-0.2-42.1
		c-0.01-2.91,0.1-5.82,0.16-8.72c0.13-0.32,0.26-0.63,0.39-0.95c0.12-3.73,0.24-7.47,0.37-11.2c0.13-0.32,0.26-0.63,0.39-0.95
		c0.84-8.65,1.37-17.34,2.6-25.93c2.12-14.73,5.17-29.29,9.55-43.55c6.93-22.52,16.65-43.63,31.54-62.08
		c17.5-21.68,39.61-36.46,66.62-43.54c5.91-1.55,11.89-3.18,18.11-3.27c1.74-0.01,3.48-0.03,5.22-0.04c3.89,0,7.78,0,11.67,0
		c1.52,0.03,3.03,0.09,4.55,0.09c99.68,0,199.36,0,299.03,0c1.14,0,2.28,0.05,3.41-0.06c0.41-0.04,0.79-0.47,1.18-0.72
		c0-9.86,0-19.73-0.01-29.59c-1.39-0.26-2.78-0.73-4.18-0.74c-70.34-0.04-140.67-0.03-211.01-0.04c-1.64,0-3.28-0.13-4.92-0.19
		c0.01-30.1,0.02-60.2,0-90.29c0-5.18-0.14-10.36-0.23-15.54c-0.22-12.27,3.59-23.32,10.07-33.58
		c8.43-13.36,20.22-23.11,33.61-31.11c14.49-8.65,30.16-14.5,46.33-19.1c14.45-4.12,29.2-6.84,44.04-9.08
		c5.14-0.78,10.27-1.71,15.44-2.28c4.6-0.51,9.25-0.6,13.88-0.88c1.83-0.21,3.65-0.42,5.47-0.63c1.72-0.05,3.44-0.09,5.16-0.14
		c2.36-0.18,4.71-0.37,7.07-0.55c2.95-0.09,5.91-0.18,8.86-0.26c3.94,0.04,7.88,0.11,11.83,0.08c0.64,0,1.27-0.47,1.9-0.72
		c8.35,0,16.71,0,25.06,0c0.92,0.25,1.83,0.71,2.76,0.73c3.65,0.07,7.29-0.01,10.94-0.03c2.73,0.05,5.46,0.1,8.19,0.15
		c2.34,0.2,4.67,0.41,7.01,0.61c1.69,0.07,3.39,0.14,5.08,0.21c1.6,0.16,3.21,0.33,4.81,0.49c10.18,1.3,20.35,2.67,30.54,3.87
		c17.75,2.08,35.01,6.3,51.93,11.91c16.22,5.37,31.69,12.34,45.79,22.16c14.21,9.9,26.14,21.92,34.23,37.36
		c5.2,9.92,8.8,20.39,9.22,31.73c0.13,0.32,0.27,0.64,0.4,0.96c-0.01,3.27-0.03,6.54-0.04,9.81
		C719.42,155.27,719.3,155.58,719.17,155.9z M379.63,105.51c-3.08-0.99-6.15-1.08-9.21,0.06c-7.94,1.04-14.98,4.1-21,9.42
		c-7.88,6.96-12.55,15.56-13.26,26.16c-0.13,0.32-0.27,0.64-0.4,0.96c0.01,1.75,0.03,3.5,0.04,5.25c0.13,0.32,0.25,0.63,0.38,0.95
		c0.18,1.63,0.22,3.28,0.56,4.87c4.21,19.57,23.84,34.6,46.32,30.03c16.67-3.39,29.72-17.54,31.34-34.59
		C416.44,127.11,401.23,108.25,379.63,105.51z"/>
	<path class="st1" d="M483.62,35c-0.63,0.25-1.27,0.72-1.9,0.72c-3.94,0.03-7.88-0.04-11.83-0.08c0.01-0.21,0.03-0.43,0.06-0.64
		C474.51,35,479.07,35,483.62,35z"/>
	<path class="st2" d="M522.39,35.7c-3.65,0.02-7.3,0.09-10.94,0.03c-0.92-0.02-1.84-0.47-2.76-0.73c4.56,0,9.11,0,13.67,0
		C522.34,35.23,522.35,35.47,522.39,35.7z"/>
	<path class="st3" d="M499.67,704.81c0,10.38,0,20.2,0,30.46c73.27,0,146.35,0,219.88,0c0.07,1.86,0.17,3.31,0.17,4.77
		c0.01,32.15-0.03,64.29,0.04,96.44c0.01,5.94,0.13,11.81-1.22,17.69c-2.46,10.71-7.42,20.1-14.31,28.53
		c-10.69,13.09-24.37,22.26-39.42,29.57c-16.7,8.11-34.33,13.4-52.42,17.3c-12.96,2.8-26.06,4.74-39.23,6.31
		c-12.42,1.48-24.86,2.61-37.37,2.83c-16.69,0.29-33.39,0.82-50.07,0.65c-11.22-0.11-22.43-1.23-33.64-1.93
		c-4.77-0.3-9.55-0.51-14.29-1.05c-5.12-0.58-10.24-1.31-15.29-2.3c-12.26-2.4-24.6-4.52-36.69-7.59
		c-21.67-5.49-42.32-13.59-60.93-26.27c-14.86-10.13-27.16-22.66-35.52-38.72c-4.52-8.69-7.52-17.93-8.57-27.71
		c-0.43-4-0.6-8.05-0.6-12.08c-0.04-66.57-0.12-133.14,0.04-199.71c0.04-16.43,1.74-32.72,7.39-48.36
		c4.52-12.51,11.03-23.77,19.93-33.72c11.72-13.11,26.11-22.19,42.29-28.64c12.15-4.84,24.74-8.07,37.75-9.38
		c7.53-0.76,15.12-1.33,22.68-1.34c72.78-0.1,145.56,0.19,218.33-0.19c26.02-0.14,50.45-6.89,71.81-22.52
		c13.17-9.64,23.37-21.87,31.01-36.27c8.63-16.27,13.65-33.63,15.84-51.87c0.95-7.91,1.35-15.82,1.34-23.78
		c-0.05-32.53-0.02-65.05-0.02-97.58c0-1.39,0-2.77,0-4.45c1.12-0.12,2.08-0.32,3.04-0.32c25.19-0.02,50.38-0.35,75.56,0.1
		c18.75,0.33,35.95,6.41,51.64,16.67c15.82,10.35,28.32,23.93,38.4,39.81c14.14,22.27,22.5,46.8,28.16,72.37
		c2.83,12.81,5.08,25.72,6.16,38.8c0.84,10.17,1.88,20.34,2.2,30.53c0.5,15.53,0.61,31.08,0.58,46.62
		c-0.01,6.41-0.77,12.82-1.3,19.22c-0.39,4.74-0.79,9.49-1.51,14.19c-1.77,11.45-3.4,22.94-5.68,34.29
		c-3.09,15.39-7.98,30.29-14.39,44.61c-6.53,14.59-14.7,28.19-25.23,40.35c-14.28,16.49-31.41,28.78-51.91,36.34
		c-8.69,3.21-17.64,5.38-26.81,6.5c-4.85,0.59-9.77,0.87-14.66,0.87c-103.15,0.02-206.3-0.02-309.46-0.05
		C502.27,704.81,501.16,704.81,499.67,704.81z M585.3,829.82c-0.65,21.08,17.17,39.76,38.86,39.71
		c22.53-0.06,39.89-16.78,39.89-39.49c0-23.8-19.03-39.28-39.28-39.39C603.41,790.52,584.97,808.32,585.3,829.82z"/>
	<path class="st4" d="M500.3,269.64c-0.39,0.25-0.77,0.68-1.18,0.72c-1.13,0.11-2.27,0.06-3.41,0.06c-99.68,0-199.36,0-299.03,0
		c-1.52,0-3.03-0.06-4.55-0.09c-0.06-0.2-0.13-0.4-0.19-0.6c1.52-0.02,3.03-0.06,4.55-0.06c99.63,0,199.26,0,298.89,0
		C497.01,269.66,498.65,269.65,500.3,269.64z"/>
	<path class="st5" d="M371.28,474.01c1.01-0.02,2.02-0.06,3.04-0.06c75.06,0,150.11,0,225.17,0c1.14,0,2.28,0.05,3.41,0.08
		c-1.2,0.22-2.4,0.65-3.61,0.65c-75.18,0.03-150.36,0.03-225.55,0.02c-0.88,0-1.77-0.06-2.65-0.1
		C371.14,474.41,371.21,474.21,371.28,474.01z"/>
	<path class="st5" d="M280.18,239.08c1.64,0.07,3.28,0.19,4.92,0.19c70.34,0.01,140.67,0,211.01,0.04c1.39,0,2.78,0.48,4.18,0.74
		c-71.86,0-143.72,0-215.58-0.05C283.2,240,281.39,240.85,280.18,239.08z"/>
	<path class="st5" d="M167.68,711.02c1.51-0.04,3.02-0.13,4.53-0.13c26.34-0.02,52.67-0.02,79.01-0.03
		c-1.05,0.26-2.09,0.75-3.14,0.75c-25.85,0.04-51.69,0.04-77.54,0.01C169.58,711.62,168.63,711.23,167.68,711.02z"/>
	<path class="st6" d="M191.93,269.72c0.07,0.2,0.13,0.4,0.19,0.6c-3.89,0-7.78,0-11.67,0c0.06-0.2,0.12-0.4,0.19-0.59
		C184.41,269.72,188.17,269.72,191.93,269.72z"/>
	<path class="st7" d="M461.04,35.9c-2.36,0.18-4.71,0.37-7.07,0.55C456.32,36.27,458.68,36.09,461.04,35.9z"/>
	<path class="st8" d="M537.59,36.46c-2.34-0.2-4.67-0.41-7.01-0.61C532.91,36.05,535.25,36.26,537.59,36.46z"/>
	<path class="st9" d="M371.28,474.01c-0.07,0.2-0.13,0.4-0.19,0.6c-2.25,0-4.51-0.01-6.76-0.01
		C366.64,474.4,368.96,474.2,371.28,474.01z"/>
	<path class="st8" d="M448.81,36.6c-1.82,0.21-3.65,0.42-5.47,0.63C445.16,37.01,446.98,36.8,448.81,36.6z"/>
	<path class="st8" d="M180.64,269.73c-0.07,0.2-0.13,0.4-0.19,0.59c-1.74,0.01-3.48,0.03-5.22,0.04
		C177.04,270.15,178.84,269.94,180.64,269.73z"/>
	<path class="st9" d="M602.83,473.89c1.83-0.21,3.65-0.41,5.48-0.62C606.48,473.48,604.66,473.69,602.83,473.89z"/>
	<path class="st4" d="M547.48,37.16c-1.6-0.16-3.21-0.33-4.81-0.49C544.27,36.83,545.87,36.99,547.48,37.16z"/>
	<path class="st10" d="M719.59,145.15c-0.13-0.32-0.27-0.64-0.4-0.96C719.32,144.51,719.46,144.83,719.59,145.15z"/>
	<path class="st10" d="M719.17,155.9c0.13-0.31,0.25-0.62,0.38-0.94C719.42,155.27,719.3,155.58,719.17,155.9z"/>
	<path class="st11" d="M719.1,365.36c0.04-0.26,0.09-0.53,0.13-0.79c0.06,0.2,0.14,0.39,0.15,0.6
		C719.39,365.22,719.2,365.29,719.1,365.36z"/>
	<path class="st12" d="M46.8,448.73c-0.13,0.32-0.26,0.63-0.39,0.95C46.54,449.36,46.67,449.04,46.8,448.73z"/>
	<path class="st12" d="M46.05,460.88c-0.13,0.32-0.26,0.63-0.39,0.95C45.78,461.51,45.91,461.19,46.05,460.88z"/>
	<path class="st13" d="M45.69,512.64c0.12,0.31,0.24,0.62,0.37,0.93C45.94,513.27,45.82,512.96,45.69,512.64z"/>
	<path class="st13" d="M46.43,525.55c0.13,0.31,0.25,0.63,0.38,0.94C46.69,526.18,46.56,525.87,46.43,525.55z"/>
	<path class="st11" d="M251.46,594.72c0.13-0.32,0.27-0.64,0.4-0.95C251.73,594.09,251.59,594.4,251.46,594.72z"/>
	<path class="st14" d="M379.63,105.51c-3.07,0.02-6.14,0.04-9.21,0.06C373.48,104.43,376.55,104.51,379.63,105.51z"/>
	<path class="st15" d="M336.15,141.15c-0.13,0.32-0.27,0.64-0.4,0.96C335.88,141.79,336.02,141.47,336.15,141.15z"/>
	<path class="st15" d="M335.79,147.36c0.13,0.32,0.25,0.63,0.38,0.95C336.04,147.99,335.92,147.68,335.79,147.36z"/>
</g>
</svg>
