<?xml version="1.0" encoding="utf-8"?>
<!-- Generator: Adobe Illustrator 24.1.2, SVG Export Plug-In . SVG Version: 6.00 Build 0)  -->
<svg version="1.1" id="Layer_1" xmlns="http://www.w3.org/2000/svg" xmlns:xlink="http://www.w3.org/1999/xlink" x="0px" y="0px"
	 viewBox="0 0 1000 1000" style="enable-background:new 0 0 1000 1000;" xml:space="preserve">
<style type="text/css">
	.st0{fill:#03CCFE;}
	.st1{fill:#01CBFE;}
</style>
<g>
	<path class="st0" d="M770,648.68c11.9,45.54,21.02,90.65,19.37,136.94c-0.7,19.81-3.12,40.11-8.6,59.08
		c-17.68,61.27-66.03,87.51-127.73,70.86c-42.73-11.53-78.64-35.5-112.34-63.12c-14.12-11.57-27.46-24.09-40.49-35.6
		c-21.97,18.06-42.99,36.54-65.27,53.34c-25.89,19.52-53.96,35.54-85.57,44.24c-69.49,19.13-120.84-12.54-135.41-83.4
		c-9.8-47.67-4.43-94.85,4.86-141.85c2.64-13.34,6.03-26.53,9.29-40.7c-14.2-4.84-28.44-9.16-42.28-14.51
		c-41.25-15.95-80.78-35.03-112.13-67.36c-22.14-22.84-36.57-49.39-33.56-82.44c2.9-31.81,20.38-55.87,43.47-76.23
		c35.91-31.68,78.91-50.22,123.58-65.5c5.61-1.92,11.29-3.64,17.51-5.63c-3.26-16.79-6.88-32.98-9.49-49.34
		c-6.66-41.71-9.59-83.59,1.09-125.05c9.26-35.97,27.77-65.07,65.21-77.35c26.15-8.58,52.04-4.55,77.37,4.22
		c46.92,16.25,85.41,45.75,121.83,78.39c5.94,5.32,11.69,10.86,17.65,16.41c16.07-13.95,31.46-28.12,47.71-41.22
		c30.52-24.59,63.13-45.95,101.23-56.9c72.7-20.88,126.45,13.92,138.73,88.58c8.28,50.32,2.05,99.59-8.98,148.66
		c-0.94,4.17-1.84,8.34-2.72,12.31c21.85,8.37,43.48,15.91,64.49,24.88c32.36,13.82,62.39,31.52,87.35,56.89
		c43.66,44.38,45.64,97.93,4.22,144.47c-10.3,11.58-22.63,21.73-35.3,30.74c-33.69,23.96-71.56,39.44-110.83,51.66
		C779.83,645.53,775.42,646.95,770,648.68z M499.28,342.42c0,0.03,0.01,0.06,0.01,0.09c-23.31,0-46.63-0.39-69.92,0.32
		c-4.76,0.15-11.13,3.22-13.81,7.02c-32.28,45.83-60.26,94.24-84.5,144.78c-1.55,3.22-1.65,8.67,0.05,11.69
		c23.96,42.64,48.24,85.11,72.88,127.36c1.88,3.22,7.02,6.03,10.88,6.37c55.87,4.88,111.79,5.18,167.67,0.08
		c4.13-0.38,9.61-3.37,11.62-6.81c24.56-41.92,48.5-84.19,72.84-126.24c3.27-5.66,2.57-10.07-0.2-15.67
		c-23.75-48.18-50.87-94.36-80.86-138.91c-4.57-6.79-9.56-10.26-17.74-10.18C545.24,342.56,522.26,342.42,499.28,342.42z
		 M528.61,788.82c15.58,13.33,31.67,28.28,49,41.63c29.39,22.64,60.42,42.57,98.02,49.01c28.57,4.89,50.43-6.69,62.25-33.24
		c2.55-5.74,4.55-11.79,6.11-17.88c6.66-26.15,7.48-52.78,3.89-79.31c-4.04-29.84-9.65-59.47-14.54-89.03
		c-3.96,0-5.28-0.18-6.53,0.03c-36.39,5.98-72.78,11.94-109.12,18.18c-2.54,0.44-5.29,2.6-6.95,4.73
		C583.73,717.53,556.91,752.26,528.61,788.82z M268.58,659.93c-0.69,1.45-1.46,2.58-1.79,3.82
		c-11.22,43.05-19.08,86.58-16.52,131.32c1.13,19.69,4.38,39.11,14.22,56.69c9.71,17.33,24.26,27.5,44.5,27.11
		c9.87-0.19,20.04-1.28,29.49-4c36.25-10.44,66.45-31.77,95.19-55.27c12.8-10.46,24.74-21.96,36.18-32.19
		c-23.65-29.89-47.45-57.84-68.66-87.64c-10.84-15.22-21.98-23.38-41.25-25.13C329.57,671.88,299.56,665.13,268.58,659.93z
		 M469.85,212.13c-11.32-10.2-22.49-21.22-34.67-30.99c-13.48-10.82-27.05-21.99-42.08-30.29c-19.06-10.54-38.94-20.7-59.7-26.81
		c-39.12-11.52-65.32,4.39-77.13,43.38c-0.96,3.18-1.7,6.43-2.39,9.69c-6.51,30.75-5.2,61.66-0.87,92.45
		c2.67,18.96,6.87,37.7,9.99,54.44c43.35-6.28,84.79-12.21,126.18-18.42c3.65-0.55,8.18-2.05,10.32-4.7
		C422.88,271.85,445.85,242.53,469.85,212.13z M733.77,324.81c13.32-37.17,18.98-108.72,11.69-144.99
		c-10.53-52.37-41.79-70.76-91.97-52.93c-49.49,17.58-88.36,50.88-125.87,87.03c2.38,2.75,4.36,4.92,6.2,7.18
		c19.99,24.55,40.4,48.76,59.65,73.87c5.75,7.5,11.83,10.35,20.63,11.1c14.91,1.28,29.82,3.05,44.59,5.45
		C683.58,315.59,708.36,320.29,733.77,324.81z M765.41,376.17c-16.39,40.8-32.46,80.48-48.09,120.34c-1.21,3.1-0.06,7.71,1.27,11.12
		c12.17,31.29,24.63,62.48,37.01,93.69c1.05,2.65,2.2,5.26,3.56,8.49c14.39-4.79,28.17-8.7,41.44-13.92
		c35.77-14.06,70.43-30.3,97.69-58.53c28.55-29.57,29.06-60.49,0.61-89.85C861.73,409.17,813.32,391.64,765.41,376.17z
		 M235.49,375.08c-19.35,7.29-38.27,13.51-56.43,21.47c-29.38,12.87-57.45,28.12-79.46,52.35c-25.78,28.38-26,57.04-0.66,85.51
		c2.88,3.23,5.82,6.45,9.06,9.3c37.89,33.3,83.41,51.1,131,65.34c1.11-1.77,1.99-2.79,2.46-3.97c13.17-33.4,26.46-66.76,39.2-100.33
		c1.41-3.72,0.63-9.07-0.9-12.98c-10.12-26.03-20.95-51.79-31.07-77.82C243.9,401.64,240.15,388.93,235.49,375.08z M498.93,758.54
		c21.35-25.99,41.19-50.15,61.79-75.23c-42.23,0-81.86,0-123.65,0C457.95,708.7,477.73,732.75,498.93,758.54z M631.69,347.57
		c20.7,35.31,40.34,68.83,61.25,104.49c10.81-29.97,20.96-58.11,31.67-87.77C692.69,358.55,662.85,353.18,631.69,347.57z
		 M273.67,364.71c10.89,29.92,21.08,57.93,31.71,87.13c20.72-35.51,40.21-68.9,60.66-103.95
		C335.05,353.53,305.51,358.91,273.67,364.71z M643.47,634.64c26.12-4.88,50.73-9.47,76.83-14.34
		c-9.39-24.84-18.05-47.78-27.37-72.44C675.85,577.82,660.12,605.42,643.47,634.64z M355.39,634.41
		c-16.91-29.79-32.65-57.52-49.25-86.76c-9.28,24.72-18,47.97-27.25,72.6C304.68,625.03,329.04,629.54,355.39,634.41z
		 M499.41,242.04c-16.73,20.03-32.07,38.4-48.42,57.97c17.9,0,33.19,0,48.48,0c15.37,0,30.75,0,48.67,0
		C531.23,279.89,515.93,261.69,499.41,242.04z"/>
	<path class="st1" d="M500.27,400.21c54.74,0.09,99.7,45.21,99.67,100.03c-0.02,54.67-45.2,99.92-99.82,99.98
		c-55.12,0.06-100.39-45.42-100.15-100.62C400.22,444.84,445.35,400.12,500.27,400.21z"/>
</g>
</svg>
