<?xml version="1.0" encoding="utf-8"?>
<!-- Generator: Adobe Illustrator 24.1.2, SVG Export Plug-In . SVG Version: 6.00 Build 0)  -->
<svg version="1.1" id="Layer_1" xmlns="http://www.w3.org/2000/svg" xmlns:xlink="http://www.w3.org/1999/xlink" x="0px" y="0px"
	 viewBox="0 0 1000 1000" style="enable-background:new 0 0 1000 1000;" xml:space="preserve">
<style type="text/css">
	.st0{fill:#FDFDFD;}
	.st1{fill:#32353A;}
	.st2{fill:#F1EAAC;}
	.st3{fill:#C93349;}
	.st4{fill:#C4B198;}
	.st5{fill:#636A66;}
	.st6{fill:#E3C9AB;}
	.st7{fill:#C63348;}
	.st8{fill:#E0C7AA;}
	.st9{fill:#313237;}
	.st10{fill:#33373A;}
	.st11{fill:#E8D79B;}
	.st12{fill:#E5D499;}
	.st13{fill:#303438;}
	.st14{fill:#E4CF95;}
	.st15{fill:#C63449;}
</style>
<g>
	<path class="st0" d="M205.49,760.32c0.01-0.27,0.07-0.55,0.01-0.8c-0.04-0.16-0.27-0.26-0.42-0.39c0.2,0.34,0.4,0.68,0.6,1.01
		c20.83,34.37,43.59,67.43,67.56,99.68c35.98,48.41,83.7,65.22,142.52,55.43c12.06-2.01,24.51-5.24,37.43-0.96
		c67.96,22.53,134.66,18.94,200.02-10.54c12.9-5.82,24.15-14.93,38.32-18.24c24.16-5.65,48.24-11.67,72.31-17.71
		c26.55-6.67,46.62-21.06,58.49-46.73c9.41-20.35,20.63-39.87,31.02-59.77c6.59-12.63,13.14-25.28,19.7-37.92
		c-0.5-0.51-1-1.01-1.5-1.52c-22.68,10.13-45.35,20.25-70.49,31.47c8.49-19.34,15.84-36.03,20.99-53.54
		c1.08-3.66,3.6-2.74,6.01-2.71c10.77,0.15,21.53,0.24,32.3,0.47c8.88,0.19,15.52-3.38,18.65-11.8
		c12.82-34.5,20.65-70.06,21.36-106.95c0.22-11.26-4.76-20.11-15.05-25.57c-5.3-2.81-10.54-5.77-15.69-8.85
		c-1.77-1.06-4.59-3.71-0.95-4.52c6.82-1.5,5.68-7.14,6.45-11.02c1.75-8.84,5.4-14.66,14.87-16.83
		c17.74-4.06,26.95-16.17,32.29-33.3c11-35.29,17.02-70.67,11.43-107.79c-2.36-15.71-8.57-26.77-23.06-33.73
		c-10.52-5.06-20.71-10.96-31.78-14.66c-7.89-2.64-12.18-7.13-15.21-14.95C838.49,242.62,800,187.08,745.25,143.38
		c-59.22-47.27-127.22-71.04-202.47-75.3c-16.83-0.95-33.34,1.6-49.94,3.69c-69.15,8.71-129.43,37.08-181.64,82.64
		c-49.15,42.89-83.62,96.08-106.87,156.73c-2,5.23-4.84,8.08-10.11,9.98c-15.17,5.46-29.6,12.52-43.28,21.16
		c-7.02,4.43-11.52,9.45-12.81,18.37c-1.41,9.68-2.99,19.34-3.44,29.08c-1.69,36.82,3.74,72.36,19.91,105.88
		c2.34,4.85,5.69,7.97,10.56,10.18c11.11,5.06,11.06,5.26,1.93,13.83c-37.24,34.97-65.72,76.57-91.79,120.63
		c1.48-0.18,2.62,0.01,3.26-0.46c2.29-1.68,4.49-3.5,6.57-5.44c34.68-32.26,73.11-59.45,113.61-83.8c2.08-1.25,5.03-5.38,7.64-1.16
		c2.41,3.88-0.34,6.08-3.97,7.87c-5.66,2.8-10.93,6.4-16.55,9.28c-10.43,5.33-15.12,13.81-15.02,25.35
		c0.09,10.46,0.9,20.83,2.74,31.14c4.04,22.66,9.19,45.04,17.66,66.51c6.66,16.89,12.75,20.66,31.16,19.25
		c7.85-0.6,15.82-1.35,23.4-3.3c6.22-1.6,8.07,0.25,10.02,5.92c9.79,28.47,22.78,55.43,39.65,80.46c1.35,2.01,4.95,4.29,2.3,7.14
		c-2.1,2.25-4.75-0.33-6.89-1.31c-16.05-7.37-31.85-15.3-48.09-22.23C230.45,770.21,218.93,762.84,205.49,760.32z"/>
	<path class="st1" d="M205.47,760.33c13.46,2.51,24.98,9.87,37.32,15.14c16.23,6.93,32.04,14.85,48.09,22.23
		c2.15,0.99,4.79,3.57,6.89,1.31c2.65-2.85-0.95-5.13-2.3-7.14c-16.87-25.04-29.86-51.99-39.65-80.46
		c-1.95-5.67-3.8-7.52-10.02-5.92c-7.59,1.95-15.55,2.7-23.4,3.3c-18.41,1.41-24.49-2.37-31.16-19.25
		c-8.47-21.47-13.62-43.84-17.66-66.51c-1.84-10.31-2.65-20.68-2.74-31.14c-0.1-11.55,4.59-20.02,15.02-25.35
		c5.63-2.88,10.89-6.48,16.55-9.28c3.63-1.79,6.38-3.99,3.97-7.87c-2.62-4.22-5.56-0.09-7.64,1.16
		c-40.5,24.35-78.93,51.54-113.61,83.8c-2.08,1.93-4.29,3.75-6.57,5.44c-0.65,0.48-1.78,0.28-3.26,0.46
		c26.07-44.06,54.56-85.66,91.79-120.63c9.13-8.57,9.18-8.77-1.93-13.83c-4.87-2.22-8.21-5.33-10.56-10.18
		c-16.17-33.52-21.6-69.06-19.91-105.88c0.45-9.74,2.03-19.4,3.44-29.08c1.3-8.91,5.79-13.94,12.81-18.37
		c13.68-8.64,28.11-15.7,43.28-21.16c5.27-1.89,8.11-4.75,10.11-9.98c23.25-60.65,57.72-113.85,106.87-156.73
		c52.22-45.56,112.49-73.94,181.64-82.64c16.6-2.09,33.11-4.64,49.94-3.69c75.25,4.27,143.25,28.03,202.47,75.3
		c54.75,43.7,93.24,99.24,118.43,164.22c3.03,7.82,7.31,12.31,15.21,14.95c11.07,3.7,21.26,9.6,31.78,14.66
		c14.49,6.96,20.7,18.02,23.06,33.73c5.58,37.12-0.44,72.5-11.43,107.79c-5.34,17.13-14.55,29.24-32.29,33.3
		c-9.47,2.17-13.12,7.99-14.87,16.83c-0.77,3.88,0.37,9.52-6.45,11.02c-3.65,0.8-0.82,3.46,0.95,4.52
		c5.16,3.08,10.39,6.04,15.69,8.85c10.29,5.46,15.26,14.31,15.05,25.57c-0.71,36.9-8.53,72.46-21.36,106.95
		c-3.13,8.42-9.77,11.99-18.65,11.8c-10.76-0.23-21.53-0.32-32.3-0.47c-2.41-0.03-4.93-0.95-6.01,2.71
		c-5.15,17.5-12.5,34.2-20.99,53.54c25.13-11.22,47.81-21.35,70.49-31.47c0.5,0.51,1,1.01,1.5,1.52
		c-6.57,12.64-13.11,25.29-19.7,37.92c-10.39,19.9-21.61,39.42-31.02,59.77c-11.87,25.67-31.94,40.06-58.49,46.73
		c-24.07,6.05-48.15,12.06-72.31,17.71c-14.16,3.31-25.41,12.43-38.32,18.24c-65.37,29.48-132.07,33.07-200.02,10.54
		c-12.91-4.28-25.37-1.05-37.43,0.96c-58.82,9.79-106.54-7.02-142.52-55.43c-23.98-32.26-46.73-65.31-67.56-99.68L205.47,760.33z
		 M398.32,498.16c2.66-0.95,5.42-1.69,7.96-2.9c36.35-17.23,73.31-32.88,112.08-43.92c11.17-3.18,22.3-6.5,33.45-9.76
		c-11.97-1.36-23.73-0.62-35.36-1.52c-19.61-1.53-37.16,3.21-54.34,12.65c-23.1,12.7-45.46,26.21-64.64,44.48
		c-0.81,0.47-2.83,0.06-2.1,1.6C395.88,499.87,397.45,499.09,398.32,498.16z M610.68,889.74c-8.85-4.27-17.31-9.16-24.38-16.09
		c-2.63-2.58-5.34-4.1-9.26-3.21c-8.66,1.96-17.5,2.38-26.36,2.18c-2.64-0.06-4.93,0.39-6.68,2.69
		c-9.27,12.26-22.2,19.39-35.88,25.43c-8.41,2.28-16.81,4.56-27.44,7.45c52.96,14.12,101.87,6.19,152.21-11.76
		C623.93,893.73,617.31,891.73,610.68,889.74z M201.08,667.26c8.25,31.27,8.02,27.36,33.46,24.29c0.63-0.08,1.3,0.01,1.87-0.2
		c3.32-1.2,8.47,0.12,9.4-4.4c0.88-4.26-1.93-7.76-5.84-9.94c-1.9-1.06-3.82-2.09-5.73-3.14c-14.35-7.4-16.1-20.74-17.39-34.93
		c-1.82-20.09-4.75-40.08-7.32-60.1c-0.27-2.11,1.03-5.51-3.3-5.36c-8.19,0.3-19.96,12.34-19.62,20.81
		C187.63,619.34,192.55,643.67,201.08,667.26z M871.88,653.81c7.63-21.92,10.34-44.71,12.52-67.67c1.09-11.54-3.58-18.33-13.69-23
		c-5.19-2.4-6.46-1.19-7.16,3.92c-2.94,21.56-6.62,43.04-9.05,64.65c-1.19,10.53-4.36,18.67-14.24,23.66
		c-4.45,2.25-8.95,5.16-8.28,11.44c0.3,3.81-6.31,8.84,2.24,11.2C859.3,684.93,867.45,679.75,871.88,653.81z M267.01,696.83
		c-0.4-0.33-1.05-1.03-1.17-0.95c-1.02,0.68-0.52,1.34,0.2,1.92c1.88,8.44,5.43,16.23,9.24,23.92c9.39,23.66,22.34,45.36,36.3,66.55
		c3.22,4.89,6.51,4.57,11.2,3.09c19.61-6.2,39.27-12.24,59-18.06c5.16-1.52,8.72-4.23,11.73-8.72
		c10.79-16.11,23.03-31.02,38.34-43.13c8.86-7.01,18.34-12.15,30.32-11.44c9.33,0.56,18.73,0.11,28.46,0.11
		c-0.73-5.19-6.5-8.73-4.48-15.15c37.6,23.85,72.74,16.78,106.88-7.38c1.18,7.69-5.03,12.46-6.37,20.08
		c10.46-2.51,20.19-4.85,29.93-7.19c9.6-2.3,17.83-0.2,25.59,6.23c15.6,12.92,31.66,25.3,47.6,37.82c2.94,2.31,5.54,5.32,9.63,5.71
		c25.51,2.44,50.88,6.51,76.6,6.59c4.14,0.01,7.27-0.65,9.22-4.85c7.45-16.07,15.48-31.88,20.3-49.03
		c3.73-8.94,6.99-18.02,8.98-29.5c-12.2,8.51-23.09,15.88-33.72,23.62c-4.63,3.38-9.35,4.69-15.04,4.02
		c-31.34-3.69-62.69-7.45-94.08-10.72c-25.39-2.64-50.61-6.92-76.17-7.98c-1.84-0.47-3.72-1.48-5.5-1.33
		c-10.84,0.9-14.46-5.46-17.08-14.72c-7.06-24.92-15.39-49.49-22.23-74.47c-2.42-8.82-8.16-8.26-14.38-8.33
		c-6.32-0.08-12.1-0.34-14.45,8.29c-5.72,21.03-13.36,41.56-18.55,62.71c-3.62,14.71-8.96,25.85-25.86,26.88
		c-3.43,0.48-6.91,0.72-10.27,1.47c-51.69,11.54-103.39,23.01-155,34.89c-7.78,1.79-13.83,0.73-20.16-4.09
		C284.02,707.64,276.12,701.31,267.01,696.83z M830.96,761.48c-6.44-0.22-11.4,3.63-16.59,6.44c-7.68,4.16-15.75,6.33-24.32,7.36
		c-28.01,3.36-55.39-3.28-83.08-4.75c-13.53-0.72-24.04-5.79-34-14.24c-12.3-10.45-25.83-19.51-37.62-30.47
		c-7.48-6.95-14.56-7.25-23.23-4.64c-20.9,6.29-41.91,12.23-62.77,18.67c-5.48,1.69-10.37,1.39-15.72-0.27
		c-22.8-7.09-46.11-10.89-70.09-10.39c-6.63,0.14-12.17,1.87-17.53,5.89c-16.76,12.58-29.26,28.83-40.5,46.17
		c-2.57,3.96-5.48,6.4-10.1,7.78c-30.61,9.15-61.18,18.46-91.65,28.08c-6.21,1.96-11.39,1.66-17.2-1.31
		c-9.83-5.01-20.09-9.2-30.16-13.74c11.96,20.37,24.75,39.19,39.52,56.56c23.1,27.16,52.09,41.93,88.19,40.54
		c35.45-1.36,70.55-6.14,105.26-13.34c22.71-4.71,40.15-16.16,48.15-39.51c4.25-12.4,10.08-24.26,15.59-37.3
		c10.34,11.69,20.24,22.28,29.47,33.43c21.05,25.44,45.74,40.55,80.42,31.57c31.22-8.08,62.66-15.32,93.95-23.12
		c17.3-4.31,33.8-11.16,43.02-27.22c11.49-19.99,21.13-41.04,31.56-61.63c0.25-0.42,0.49-0.84,0.74-1.26
		C831.83,761.01,831.39,761.25,830.96,761.48z M561.41,419.24c60.91,0.02,121.31,7.18,181.86,12.52
		c39.74,3.51,79.56,6.73,119.44,1.2c4.38-0.61,8.77-2.88,14.96-1.27c-10.95,9.04-23.42,11.36-37.03,16.7
		c17.29,3.77,32.21,7.15,47.19,10.22c5.07,1.04,6.74,2.77,4.94,8.25c-2.81,8.6-4.59,17.54-7.01,27.12
		c8.54-1.57,13.25-5.4,16.13-12.63c11.92-29.87,17.73-61.06,16.36-92.9c-1.57-36.53,4.22-28.15-29.14-48.52
		c-25.64-15.65-53.8-26.21-83.95-37.86c16.58-1.57,29.29,6.01,43.31,7.6C808.45,195.45,684.21,75.69,515.54,85.46
		c-78.86,4.57-146.95,36.04-204.71,89.55c-40.45,37.48-70.34,82.25-90.87,135.17c13.64-2.36,24.8-7.77,38.11-8.54
		c-2.42,4.93-6.16,5.1-9.11,6.31c-30.77,12.65-61.54,25.23-88.8,44.85c-4.08,2.94-6.89,6.13-7.43,11.39
		c-4.04,39.05,0.34,77,13.54,114.07c3.9,10.94,11.58,15.41,23,18.13c-2.44-9.45-3.96-18.19-7.01-26.35
		c-3.16-8.46-0.15-10.96,7.78-12.32c12.51-2.16,24.85-5.3,39.28-8.47c-15.86-4.74-30.11-7.98-41.46-17.85
		c17.09,2.1,34.01,4.16,51.12,4.34c61.29,0.64,121.85-8.86,182.79-13.05c45.83-3.15,91.68-5.02,137.62-3.54
		C559.99,420.71,560.66,420.87,561.41,419.24z M565.6,506.66c-39.12-1.99-77.77-1.4-116.31,1.12c-14.88,0.97-30.2-0.74-44.56,6.95
		c-25.73,13.78-50.79,28.52-74.87,44.99c-2.64,1.81-4.9,5.16-9.78,3.95c10.94-15.64,21.64-30.94,32.89-47.03
		c-3.46,0-5.66-0.26-7.77,0.04c-27.25,3.91-54.47,8.13-81.76,11.75c-8,1.06-9.29,4.68-8.32,11.95c3.66,27.29,7.06,54.63,9.91,82.02
		c1.05,10.15,4.4,17.52,13.76,22.71c9.09,5.04,17.55,11.39,25.73,17.86c5.25,4.15,10.34,5.12,16.67,3.7
		c42.6-9.6,85.22-19.11,127.89-28.41c5.34-1.16,7.99-3.73,9.51-8.91c6.68-22.78,14.73-45.21,20.23-68.25
		c3.36-14.11,10.71-20.15,24.31-21.37C528.51,537.47,545.89,519.86,565.6,506.66z M219,552.17c3.31,26.96,6.84,56.98,10.81,86.95
		c0.98,7.39-0.76,15.4,7.86,20.98c20.14,13.05,39.75,26.97,59.1,41.18c5.77,4.24,10.75,4.39,17.24,2.95
		c54.12-12.07,108.3-23.89,162.5-35.61c6.41-1.39,10.58-3.96,12.52-10.76c6.32-22.15,12.97-44.21,19.85-66.2
		c6.02-19.25,6.23-19.18,25.91-21.29c16.79-1.8,23.03,2.15,28.1,18.47c7.4,23.82,14.65,47.7,21.74,71.61
		c1.63,5.49,4.14,8,10.39,8.58c21.01,1.95,41.92,4.95,62.89,7.31c35.35,3.98,70.75,7.54,106.05,11.92
		c4.75,0.59,7.81-0.48,11.17-2.84c20.18-14.15,40.3-28.38,60.6-42.36c3.47-2.39,4.86-4.92,5.44-9.13
		c3.69-26.79,7.5-53.58,11.92-80.26c2.72-16.4,3.1-15.76-12.87-20.04c-8.13-2.18-9.92,1.12-10.82,7.74
		c-3.09,22.76-5.87,45.58-9.78,68.2c-1.35,7.82,0.65,17.08-8.56,22.84c-13.37,8.37-26.29,17.54-38.87,27.07
		c-7,5.3-14.35,6.01-22.38,5c-13.74-1.73-27.46-3.63-41.21-5.29c-30.92-3.75-61.82-7.83-92.82-10.8
		c-8.04-0.77-10.66-4.22-12.65-10.97c-7.42-25.14-15.39-50.11-22.82-75.24c-1.65-5.59-4.77-8.19-10.28-9.38
		c-21.24-4.61-42.28-5.33-63.81-0.82c-9.22,1.93-13.32,5.67-15.74,14.38c-6.67,24.03-14.24,47.81-21.33,71.72
		c-1.65,5.55-4.23,8.78-10.57,10.38c-47.68,12.07-96.05,21.02-143.85,32.53c-3.93,0.95-6.86,0.09-9.73-1.94
		c-13.95-9.83-27.55-20.18-41.85-29.46c-6.07-3.94-8.5-9.02-9.43-15.4c-0.95-6.55-1.38-13.17-2.21-19.74
		c-3.12-24.93-6.32-49.85-9.46-74.78c-0.35-2.82-0.12-5.46-4.29-6.04C227.63,532.22,218.83,539.21,219,552.17z M558.62,537.4
		c5.42,1.23,10.79,2.98,16.28,3.57c9.73,1.04,14.65,5.69,17.29,15.49c6.41,23.82,14.34,47.23,21.21,70.94
		c1.83,6.31,4.47,9.01,11.46,9.75c41.23,4.33,82.4,9.25,123.56,14.2c7.58,0.91,13.96-0.02,20.26-5.02
		c9.65-7.67,19.89-14.67,30.28-21.32c5.15-3.29,7.01-7.49,7.77-13.15c3.2-23.83,6.15-47.72,10.3-71.39c1.56-8.9-0.8-11.26-9.2-12.64
		c-36.56-6-73.26-10.93-110.12-14.49c-12.81-1.24-26.01-5.53-38.62-1.58C626.18,522.08,592.87,530.58,558.62,537.4z M702.83,495.27
		c1.03,2.57,2.81,2.22,4.28,2.31c24.86,1.49,49.35,5.91,73.97,9.35c24.65,3.44,49.22,7.37,73.52,12.85
		c3.93,0.89,6.37,0.87,7.56-4.07c2.96-12.26,6.39-24.41,9.99-36.5c1.61-5.39,0-7.35-5.39-8.29c-16.45-2.85-32.84-6.06-49.22-9.31
		c-24.51-4.86-48.24-9.8-70.16,9.84C734.95,482.58,717.71,487.34,702.83,495.27z M418.95,444.2c-0.31-0.75-0.62-1.5-0.93-2.25
		c-37.55,2.24-75.12,4.24-112.65,6.88c-10.52,0.74-20.79,1.94-30.46,8.51c-21.22,14.42-42.35,28.92-62.48,44.82
		c-20.56,16.24-39.81,33.92-56.68,54.69C237.7,505.63,324.08,465.03,418.95,444.2z M586.95,513.65
		c57.69-10.42,111.64-29.88,162.29-65.04c-34.05-3.21-65.4-4.59-96.75-6.03c-2.79-0.13-4.71,0.83-6.36,3.17
		C628.82,470.3,608.94,492.61,586.95,513.65z M464.61,489.37c14.85,0,29.77,0.89,44.53-0.23c17.4-1.32,34.97-2.33,52.03-0.08
		c15.89,2.1,28,0.07,38.34-12.95c7.67-9.67,16.96-18.05,24.49-29.98C567.54,453.3,514.97,467.42,464.61,489.37z M289.25,507.01
		c1.54,0,3.12,0.2,4.62-0.03c19.54-2.95,39-7.1,58.75-7.67c15.44-0.44,26.62-7.03,36.44-18.18c4.96-5.63,12.4-8.84,16.66-15.82
		C365.48,474.88,326.5,487.6,289.25,507.01z M226.85,468.61c-0.15-0.53-0.31-1.06-0.46-1.59c-6.7,1.4-13.41,2.81-20.11,4.21
		c-2.87,0.6-4.38,2.29-4.32,5.27c0.05,2.62,0.73,5.35,2.81,6.73c2.35,1.56,3.8-1.2,5.48-2.42
		C215.78,476.74,221.32,472.67,226.85,468.61z M551.14,862.88c7.85-0.11,14.45,0.22,21.71-2.58c-4.81-5.25-8.96-9.76-13.81-15.06
		C556.17,851.63,553.92,856.68,551.14,862.88z M584.88,707.09c-0.12,0.2-0.38,0.46-0.32,0.58c0.35,0.85,0.82,0.87,1.23,0.05
		c0.06-0.12-0.12-0.47-0.29-0.59C585.37,707.03,585.1,707.1,584.88,707.09z"/>
	<path class="st1" d="M205.67,760.15c-0.2-0.34-0.4-0.68-0.6-1.01c0.15,0.13,0.38,0.23,0.42,0.39c0.06,0.25,0,0.53-0.01,0.8
		C205.47,760.33,205.67,760.15,205.67,760.15z"/>
	<path class="st2" d="M559.38,419.15c-45.94-1.49-91.79,0.39-137.62,3.54c-60.94,4.19-121.5,13.69-182.79,13.05
		c-17.12-0.18-34.03-2.24-51.12-4.34c11.35,9.87,25.61,13.11,41.46,17.85c-14.42,3.17-26.76,6.31-39.28,8.47
		c-7.93,1.37-10.94,3.87-7.78,12.32c3.05,8.16,4.57,16.9,7.01,26.35c-11.42-2.72-19.1-7.19-23-18.13
		c-13.21-37.06-17.59-75.01-13.54-114.07c0.55-5.27,3.35-8.46,7.43-11.39c27.26-19.62,58.04-32.21,88.8-44.85
		c2.95-1.21,6.7-1.38,9.11-6.31c-13.31,0.77-24.47,6.18-38.11,8.54c20.53-52.92,50.42-97.69,90.87-135.17
		c57.75-53.51,125.85-84.98,204.71-89.55c168.67-9.77,292.91,109.99,332.94,224.21c-14.02-1.59-26.73-9.17-43.31-7.6
		c30.15,11.64,58.31,22.2,83.95,37.86c33.36,20.37,27.56,11.99,29.14,48.52c1.37,31.84-4.44,63.03-16.36,92.9
		c-2.88,7.23-7.59,11.05-16.13,12.63c2.42-9.58,4.2-18.52,7.01-27.12c1.79-5.49,0.12-7.21-4.94-8.25
		c-14.98-3.07-29.9-6.45-47.19-10.22c13.61-5.34,26.08-7.67,37.03-16.7c-6.19-1.61-10.58,0.66-14.96,1.27
		c-39.89,5.53-79.7,2.3-119.44-1.2c-60.54-5.34-120.95-12.49-181.86-12.52C560.73,419.21,560.06,419.18,559.38,419.15z
		 M583.22,345.73c-0.18-11.39-0.82-22.79-0.39-34.15c0.28-7.22-1.47-10.88-9.26-9.44c-7.31,1.36-8.89-1.94-8.77-8.87
		c0.43-24.06,0.17-48.13,0.17-72.2c0-4.43,0.14-8.87-0.02-13.3c-0.19-4.89,3.05-4.5,6.33-4.65c3.61-0.16,5.27,1.14,5.05,4.89
		c-0.19,3.16,0.25,6.36-0.1,9.49c-0.58,5.26,1.18,7.18,6.74,7.01c12.97-0.4,25.97-0.4,38.94,0c5.68,0.17,6.82-2.01,6.75-7.14
		c-0.24-19.95-0.31-39.9,0.03-59.85c0.1-6.03-2.14-7.42-7.72-7.4c-56.68,0.16-113.37,0.15-170.06,0c-5.3-0.01-7.18,1.5-7.1,6.98
		c0.28,20.26,0.24,40.53,0.02,60.8c-0.05,4.88,1.38,6.72,6.43,6.58c11.08-0.31,22.16-0.1,33.25-0.1c12.96,0,12.9,0,13.15-12.97
		c0.07-3.77-1.65-8.3,5.42-8.42c7.63-0.13,5.9,4.81,5.91,8.9c0.06,27.23-0.28,54.47,0.24,81.7c0.14,7.5-2.32,9.66-9.1,8.55
		c-6.45-1.06-8.88,1.25-8.6,8.15c0.47,11.68-0.11,23.4-0.24,35.11c-15.5,2.2-27.96-1.56-35.42-16.8
		c-5.86-11.98-10.6-24.35-13.25-37.35c-7.29-35.75-12.1-71.79-13.95-108.32c-0.46-9.02,1.16-18.88-3.34-27.63
		c-1.52-4.36,3.04-8.38,0.74-15.12c-23.81,48.41-30.71,98.16-30.92,152.05c-5.85-8.61-11.55-6.74-17.44-5.04
		c-23.62,6.83-47.27,13.51-71.61,20.45c-1.28-42.59,6.93-82.47,21.86-121.44c-1.63,0.34-2.17,1.11-2.59,1.94
		c-1.44,2.82-2.9,5.62-4.24,8.49c-15.78,33.75-22.75,69.59-24.53,106.53c-0.29,5.97-2.23,8.82-7.67,9.46
		c-7.36,0.86-9.68,5.22-10.57,12.12c-1.94,15.08-2.99,30.21-3.89,45.36c-1.1,0.54-2.98,0.86-3.2,1.65
		c-3.44,12.32-11.04,22.85-14.92,34.97c-2.87,1.53-5.73,3.05-10.16,5.41c3.7-0.17,5.65,0.05,7.43-0.38
		c62.29-15.06,125.93-17.83,189.52-19.88c66.79-2.16,133.64-2.14,200.45,0.53c56.31,2.26,112.49,5.75,167.79,17.58
		c1.14,1.97,3.12,2.71,4.8,1.59c2.39-1.61,4.46,4.3,6.19,0.19c1.14-2.7-2.01-3.43-3.54-4.86c-6.35-5.95-10.45-13.27-13.43-21.41
		c-2.2-6.01-3.19-12.72-8.45-17.27c-0.94-14.78-1.92-29.54-3.97-44.24c-0.94-6.74-3.43-10.23-10.14-11.31
		c-3.84-0.62-7.68-1.33-7.85-7.26c-0.92-32.04-8.21-62.84-19.17-92.85c-2.04-11.78-6.93-22.03-14-31.1c-0.77,0.4-1.53,0.81-2.3,1.21
		c4.39,9.9,8.77,19.8,13.16,29.7c-0.33,2.21,0.16,4.2,0.84,6.39c8.17,26.32,11.36,53.41,12.29,80.86c0.21,6.15-0.68,8.32-7.67,6.17
		c-21.17-6.5-42.6-12.14-63.86-18.35c-6.15-1.79-12.02-3.87-17.69,3.96c-0.66-54.19-7.64-104.74-32.72-151.19
		c0.65,8.36,3.74,16.2,4.37,24.55c-3.9,0.4-4.19,3.17-4.11,6.21c0.53,19.92-1.9,39.63-3.69,59.41
		c-2.51,27.69-6.23,55.34-15.66,81.37C613.26,340.78,607.92,346.59,583.22,345.73z"/>
	<path class="st3" d="M831.53,762.04c-10.44,20.59-20.08,41.64-31.56,61.63c-9.23,16.06-25.73,22.9-43.02,27.22
		c-31.29,7.81-62.73,15.04-93.95,23.12c-34.68,8.98-59.37-6.13-80.42-31.57c-9.23-11.15-19.13-21.74-29.47-33.43
		c-5.51,13.04-11.34,24.9-15.59,37.3c-8,23.35-25.44,34.8-48.15,39.51c-34.71,7.2-69.81,11.98-105.26,13.34
		c-36.1,1.39-65.09-13.39-88.19-40.54c-14.77-17.36-27.56-36.18-39.52-56.56c10.08,4.53,20.33,8.72,30.16,13.74
		c5.81,2.96,10.99,3.27,17.2,1.31c30.47-9.62,61.04-18.93,91.65-28.08c4.62-1.38,7.53-3.82,10.1-7.78
		c11.24-17.34,23.74-33.59,40.5-46.17c5.35-4.02,10.9-5.76,17.53-5.89c23.98-0.5,47.29,3.3,70.09,10.39
		c5.35,1.67,10.25,1.96,15.72,0.27c20.86-6.44,41.87-12.37,62.77-18.67c8.67-2.61,15.75-2.32,23.23,4.64
		c11.79,10.96,25.32,20.02,37.62,30.47c9.96,8.46,20.47,13.52,34,14.24c27.69,1.48,55.07,8.11,83.08,4.75
		c8.58-1.03,16.65-3.2,24.32-7.36c5.19-2.81,10.16-6.66,16.59-6.44C830.96,761.48,831.53,762.04,831.53,762.04z"/>
	<path class="st4" d="M565.6,506.66c-19.71,13.2-37.09,30.81-62.47,33.07c-13.61,1.21-20.95,7.26-24.31,21.37
		c-5.49,23.05-13.55,45.48-20.23,68.25c-1.52,5.18-4.17,7.75-9.51,8.91c-42.67,9.31-85.29,18.81-127.89,28.41
		c-6.32,1.42-11.42,0.46-16.67-3.7c-8.18-6.47-16.64-12.82-25.73-17.86c-9.37-5.2-12.71-12.57-13.76-22.71
		c-2.85-27.39-6.25-54.73-9.91-82.02c-0.97-7.27,0.32-10.89,8.32-11.95c27.29-3.62,54.51-7.83,81.76-11.75
		c2.12-0.3,4.32-0.04,7.77-0.04c-11.25,16.09-21.95,31.39-32.89,47.03c4.88,1.21,7.14-2.14,9.78-3.95
		c24.08-16.47,49.14-31.22,74.87-44.99c14.36-7.69,29.68-5.98,44.56-6.95C487.83,505.26,526.48,504.67,565.6,506.66z M347.96,623.4
		c8.56-0.84,16.31-2.32,24.26-2.16c12.35,0.25,24.73,0.24,37.06-0.34c12.29-0.58,18.13-5.63,19.85-17.68
		c2.39-16.72,0.08-33-8.62-47.7c-11.17-18.89-30.17-20.36-44.63-3.82c-12.04,13.78-16.18,30.37-13.38,47.85
		c1.43,8.92-0.03,13.35-8.42,16.07C351.35,616.53,348.47,618.54,347.96,623.4z M345.87,623.51c-0.23,0.19-0.42,0.34-0.61,0.49
		c0.17,0.17,0.34,0.46,0.52,0.46c0.18,0.01,0.37-0.27,0.56-0.42C346.18,623.87,346.02,623.69,345.87,623.51z"/>
	<path class="st5" d="M219,552.17c-0.17-12.96,8.62-19.95,18.77-18.55c4.17,0.57,3.94,3.22,4.29,6.04
		c3.14,24.93,6.34,49.85,9.46,74.78c0.82,6.57,1.25,13.19,2.21,19.74c0.93,6.38,3.35,11.46,9.43,15.4
		c14.3,9.28,27.9,19.63,41.85,29.46c2.87,2.02,5.8,2.88,9.73,1.94c47.79-11.52,96.17-20.46,143.85-32.53
		c6.34-1.61,8.92-4.83,10.57-10.38c7.09-23.91,14.66-47.69,21.33-71.72c2.42-8.71,6.52-12.45,15.74-14.38
		c21.53-4.51,42.57-3.79,63.81,0.82c5.51,1.2,8.63,3.79,10.28,9.38c7.43,25.13,15.41,50.1,22.82,75.24
		c1.99,6.75,4.61,10.2,12.65,10.97c31,2.97,61.89,7.05,92.82,10.8c13.75,1.67,27.47,3.56,41.21,5.29c8.03,1.01,15.37,0.3,22.38-5
		c12.58-9.53,25.5-18.7,38.87-27.07c9.2-5.76,7.2-15.02,8.56-22.84c3.91-22.62,6.68-45.44,9.78-68.2c0.9-6.62,2.69-9.92,10.82-7.74
		c15.97,4.28,15.59,3.64,12.87,20.04c-4.43,26.68-8.23,53.47-11.92,80.26c-0.58,4.21-1.98,6.74-5.44,9.13
		c-20.3,13.98-40.42,28.21-60.6,42.36c-3.36,2.36-6.42,3.42-11.17,2.84c-35.3-4.38-70.7-7.94-106.05-11.92
		c-20.97-2.36-41.88-5.36-62.89-7.31c-6.25-0.58-8.76-3.09-10.39-8.58c-7.09-23.92-14.34-47.79-21.74-71.61
		c-5.07-16.32-11.31-20.27-28.1-18.47c-19.68,2.11-19.89,2.04-25.91,21.29c-6.88,21.99-13.53,44.05-19.85,66.2
		c-1.94,6.8-6.11,9.38-12.52,10.76c-54.2,11.71-108.38,23.54-162.5,35.61c-6.48,1.45-11.46,1.29-17.24-2.95
		c-19.35-14.21-38.96-28.12-59.1-41.18c-8.61-5.58-6.88-13.59-7.86-20.98C225.85,609.15,222.32,579.13,219,552.17z"/>
	<path class="st4" d="M558.62,537.4c34.26-6.82,67.56-15.32,100.48-25.65c12.61-3.96,25.81,0.34,38.62,1.58
		c36.86,3.57,73.56,8.49,110.12,14.49c8.4,1.38,10.76,3.74,9.2,12.64c-4.15,23.67-7.1,47.56-10.3,71.39
		c-0.76,5.66-2.62,9.85-7.77,13.15c-10.39,6.65-20.63,13.65-30.28,21.32c-6.3,5.01-12.68,5.93-20.26,5.02
		c-41.16-4.95-82.33-9.86-123.56-14.2c-7-0.74-9.64-3.44-11.46-9.75c-6.87-23.71-14.8-47.11-21.21-70.94
		c-2.64-9.8-7.56-14.45-17.29-15.49C569.41,540.39,564.04,538.63,558.62,537.4z M725.36,612.4c-1.41-5.73-5.75-8.01-10.36-8.45
		c-7.22-0.69-7.87-3.94-7.45-10.5c1.12-17.58-3.43-33.95-14.51-47.93c-14.53-18.31-36.29-15.83-46.49,5.17
		c-5.79,11.94-7.52,24.78-6.88,37.88c1,20.69,8.31,26.75,28.95,27.64C687.59,617.03,705.89,610.26,725.36,612.4z"/>
	<path class="st6" d="M805.53,702.97c-4.83,17.15-12.85,32.96-20.3,49.03c-1.95,4.2-5.08,4.86-9.22,4.85
		c-25.72-0.08-51.09-4.15-76.6-6.59c-4.09-0.39-6.69-3.41-9.63-5.71c-15.93-12.52-31.99-24.9-47.6-37.82
		c-7.77-6.43-16-8.54-25.59-6.23c-9.74,2.34-19.47,4.68-29.93,7.19c1.34-7.61,7.54-12.39,6.37-20.08
		c-34.14,24.16-69.27,31.23-106.88,7.38c-2.02,6.42,3.75,9.96,4.48,15.15c-9.74,0-19.13,0.44-28.46-0.11
		c-11.98-0.71-21.46,4.43-30.32,11.44c-15.31,12.11-27.55,27.02-38.34,43.13c-3,4.48-6.57,7.2-11.73,8.72
		c-19.73,5.82-39.39,11.86-59,18.06c-4.69,1.48-7.99,1.8-11.2-3.09c-13.95-21.19-26.91-42.88-36.29-66.55
		c7.63,1.41,13.77,6.16,20.64,9.26c6.42,2.89,12.92,5.51,20.06,3.91c50.67-11.37,100.49-25.89,150.08-41.21
		c5.95-1.84,10.72-5.28,11.37-12.27c16.9-1.03,22.24-12.16,25.86-26.88c5.2-21.14,12.83-41.68,18.55-62.71
		c2.35-8.63,8.13-8.36,14.45-8.29c6.23,0.08,11.97-0.49,14.38,8.33c6.84,24.98,15.17,49.55,22.23,74.47
		c2.62,9.26,6.24,15.63,17.08,14.72c1.78-0.15,3.66,0.86,5.5,1.33c2.61,9.51,11.6,9.11,18.39,10.72
		c43.73,10.38,87.16,22.09,131.41,30.14c11.44,2.08,22.62,2.49,33.59-4.21C787.73,713.67,795.66,706.67,805.53,702.97z"/>
	<path class="st5" d="M702.83,495.27c14.88-7.93,32.12-12.69,44.55-23.82c21.92-19.64,45.65-14.7,70.16-9.84
		c16.38,3.25,32.77,6.46,49.22,9.31c5.39,0.93,7,2.9,5.39,8.29c-3.61,12.09-7.04,24.24-9.99,36.5c-1.19,4.94-3.64,4.96-7.56,4.07
		c-24.29-5.48-48.86-9.41-73.52-12.85c-24.62-3.44-49.11-7.85-73.97-9.35C705.64,497.49,703.86,497.84,702.83,495.27z"/>
	<path class="st7" d="M418.95,444.2c-94.86,20.83-181.25,61.43-263.2,112.65c16.87-20.77,36.12-38.44,56.68-54.69
		c20.13-15.9,41.25-30.4,62.48-44.82c9.68-6.57,19.95-7.77,30.46-8.51c37.53-2.64,75.1-4.64,112.65-6.88
		C418.33,442.7,418.64,443.45,418.95,444.2z"/>
	<path class="st7" d="M586.95,513.65c22-21.03,41.87-43.35,59.19-67.91c1.64-2.33,3.57-3.29,6.36-3.17
		c31.35,1.44,62.7,2.82,96.75,6.03C698.59,483.77,644.64,503.23,586.95,513.65z"/>
	<path class="st4" d="M805.53,702.97c-9.87,3.7-17.8,10.71-26.64,16.11c-10.97,6.7-22.16,6.29-33.59,4.21
		c-44.25-8.05-87.69-19.76-131.41-30.14c-6.78-1.61-15.77-1.22-18.39-10.72c25.56,1.06,50.78,5.34,76.17,7.98
		c31.39,3.26,62.73,7.02,94.08,10.72c5.68,0.67,10.4-0.65,15.04-4.02c10.63-7.74,21.52-15.12,33.72-23.62
		C812.52,684.95,809.26,694.03,805.53,702.97z"/>
	<path class="st5" d="M464.61,489.37c50.36-21.94,102.94-36.06,159.38-43.24c-7.52,11.92-16.82,20.31-24.49,29.98
		c-10.34,13.02-22.44,15.05-38.34,12.95c-17.06-2.25-34.62-1.24-52.03,0.08C494.37,490.26,479.46,489.37,464.61,489.37z"/>
	<path class="st4" d="M477.44,681.43c-0.66,6.99-5.43,10.43-11.37,12.27c-49.59,15.31-99.41,29.84-150.08,41.21
		c-7.15,1.6-13.64-1.02-20.06-3.91c-6.87-3.1-13.01-7.85-20.64-9.26c-3.81-7.69-7.36-15.49-9.24-23.92
		c0.33-0.32,0.66-0.65,0.98-0.98c9.1,4.48,17.01,10.8,24.99,16.88c6.34,4.82,12.38,5.88,20.16,4.09
		c51.61-11.88,103.31-23.35,155-34.89C470.53,682.15,474.01,681.91,477.44,681.43z"/>
	<path class="st8" d="M831.98,666.82c-0.68-6.28,3.82-9.2,8.28-11.44c9.88-4.99,13.06-13.13,14.24-23.66
		c2.43-21.62,6.11-43.09,9.05-64.65c0.7-5.11,1.97-6.32,7.16-3.92c10.12,4.67,14.79,11.46,13.69,23
		c-2.18,22.96-4.89,45.75-12.52,67.67c-3.63-0.8-5.81,1.98-8.27,3.65C854.02,663.94,843.64,667.45,831.98,666.82z"/>
	<path class="st8" d="M201.08,667.26c-8.53-23.59-13.45-47.91-14.46-72.97c-0.34-8.47,11.43-20.51,19.62-20.81
		c4.32-0.16,3.03,3.25,3.3,5.36c2.57,20.02,5.5,40.01,7.32,60.1c1.29,14.19,3.04,27.53,17.38,34.93
		C222.07,677.25,211.79,671.18,201.08,667.26z"/>
	<path class="st8" d="M508.12,900.75c13.69-6.05,26.62-13.17,35.88-25.43c1.74-2.3,4.04-2.75,6.68-2.69
		c8.86,0.19,17.69-0.22,26.36-2.18c3.92-0.89,6.63,0.63,9.26,3.21c7.08,6.93,15.53,11.82,24.38,16.09c-0.28,2.22-1.7,2.84-3.75,3.47
		c-20.49,6.31-41.63,9.41-62.84,10.97C532.19,905.05,519.59,907.1,508.12,900.75z"/>
	<path class="st7" d="M397.46,497.2c19.19-18.27,41.54-31.78,64.64-44.48c17.18-9.44,34.73-14.19,54.34-12.65
		c11.63,0.91,23.38,0.17,35.36,1.52c-11.15,3.26-22.28,6.58-33.45,9.76c-38.78,11.04-75.73,26.69-112.08,43.92
		c-2.54,1.2-5.3,1.94-7.96,2.9C398.03,497.84,397.75,497.52,397.46,497.2z"/>
	<path class="st5" d="M289.25,507.01c37.25-19.42,76.24-32.14,116.48-41.69c-4.27,6.97-11.71,10.19-16.66,15.82
		c-9.82,11.14-21,17.74-36.44,18.18c-19.75,0.57-39.21,4.72-58.75,7.67C292.36,507.21,290.79,507.01,289.25,507.01z"/>
	<path class="st4" d="M508.12,900.75c11.47,6.36,24.07,4.3,35.98,3.43c21.21-1.56,42.35-4.65,62.84-10.97
		c2.04-0.63,3.47-1.25,3.75-3.47c6.62,2,13.24,4,22.21,6.7c-50.34,17.95-99.25,25.87-152.21,11.76
		C491.31,905.31,499.72,903.03,508.12,900.75z"/>
	<path class="st4" d="M201.08,667.26c10.71,3.92,20.99,9.99,33.17,6.61c1.91,1.05,3.83,2.08,5.73,3.14
		c3.91,2.18,6.72,5.68,5.84,9.94c-0.93,4.52-6.09,3.19-9.4,4.4c-0.57,0.21-1.25,0.12-1.87,0.2
		C209.1,694.62,209.33,698.52,201.08,667.26z"/>
	<path class="st4" d="M831.98,666.82c11.65,0.63,22.04-2.88,31.62-9.36c2.47-1.67,4.64-4.45,8.27-3.65
		c-4.43,25.94-12.58,31.12-37.66,24.21C825.67,675.66,832.28,670.63,831.98,666.82z"/>
	<path class="st5" d="M226.85,468.61c-5.53,4.06-11.07,8.13-16.61,12.19c-1.68,1.23-3.12,3.98-5.48,2.42
		c-2.08-1.38-2.75-4.11-2.81-6.73c-0.06-2.97,1.45-4.67,4.32-5.27c6.71-1.39,13.41-2.8,20.11-4.21
		C226.55,467.55,226.7,468.08,226.85,468.61z"/>
	<path class="st8" d="M551.14,862.88c2.77-6.2,5.03-11.25,7.9-17.64c4.86,5.29,9,9.81,13.81,15.06
		C565.59,863.1,558.99,862.77,551.14,862.88z"/>
	<path class="st7" d="M398.32,498.16c-0.87,0.92-2.44,1.7-2.95,0.64c-0.74-1.54,1.28-1.13,2.09-1.6
		C397.75,497.52,398.03,497.84,398.32,498.16z"/>
	<path class="st4" d="M266.04,697.81c-0.71-0.59-1.22-1.24-0.2-1.92c0.13-0.08,0.77,0.61,1.17,0.94
		C266.69,697.16,266.37,697.49,266.04,697.81z"/>
	<path class="st6" d="M584.88,707.09c0.21,0.01,0.48-0.06,0.62,0.05c0.16,0.12,0.35,0.47,0.29,0.59c-0.42,0.81-0.89,0.79-1.23-0.05
		C584.51,707.55,584.77,707.29,584.88,707.09z"/>
	<path class="st3" d="M830.96,761.48c0.44-0.24,0.87-0.47,1.31-0.71c-0.25,0.42-0.49,0.84-0.74,1.26
		C831.53,762.04,830.96,761.48,830.96,761.48z"/>
	<path class="st9" d="M559.38,419.15c0.68,0.03,1.35,0.06,2.03,0.09C560.66,420.87,559.99,420.71,559.38,419.15z"/>
	<path class="st10" d="M647.24,164.75c-0.63-8.35-3.71-16.19-4.37-24.55c25.08,46.45,32.06,97,32.72,151.19
		c5.68-7.83,11.55-5.76,17.69-3.96c21.26,6.21,42.69,11.84,63.86,18.35c6.99,2.15,7.88-0.02,7.67-6.17
		c-0.92-27.45-4.12-54.54-12.29-80.86c-0.68-2.19-1.17-4.18-0.84-6.39c1.04,0.06,2.09,0.13,3.13,0.19
		c10.96,30.01,18.25,60.81,19.17,92.85c0.17,5.93,4.01,6.64,7.85,7.26c6.71,1.08,9.2,4.57,10.14,11.31
		c2.05,14.7,3.03,29.46,3.97,44.24c-0.33,8.45-0.26,16.95-1.13,25.35c-0.57,5.43,1.07,7.83,6.27,9.41c3.6,1.09,9.62,0.25,9.3,7.01
		c-55.31-11.83-111.48-15.32-167.79-17.58c-66.81-2.68-133.65-2.69-200.45-0.53c-63.59,2.05-127.23,4.82-189.52,19.88
		c-1.79,0.43-3.73,0.21-7.43,0.38c4.42-2.35,7.29-3.88,10.16-5.41c19.33-4.77,19.35-4.77,18.77-23.52
		c-0.14-4.37-0.43-8.73-0.66-13.1c0.9-15.15,1.95-30.28,3.89-45.36c0.89-6.9,3.21-11.27,10.57-12.12c5.44-0.63,7.38-3.49,7.67-9.46
		c1.78-36.93,8.75-72.77,24.53-106.53c1.34-2.86,2.8-5.67,4.24-8.49c0.42-0.83,0.96-1.6,2.59-1.94
		c-14.93,38.97-23.14,78.85-21.86,121.44c24.34-6.94,48-13.62,71.61-20.45c5.88-1.7,11.59-3.57,17.44,5.04
		c0.2-53.9,7.1-103.64,30.92-152.05c2.3,6.73-2.26,10.76-0.74,15.12c-12.44,46.92-17.03,94.54-13.49,143
		c0.43,5.94,1.85,10.38,7.19,13.21c4.74,2.51,6.03,6.6,6.35,11.8c0.94,15.59,4.58,30.59,10.84,44.98c1.92,4.41,4.33,6.02,9.3,5.73
		c60.14-3.56,120.3-3.53,180.43,0.07c5.67,0.34,7.84-1.99,9.75-6.53c5.96-14.16,9.28-28.92,10.51-44.18
		c0.31-3.8-0.08-8.07,3.98-10.02c8.54-4.12,9.67-11.49,9.75-19.74c0.07-7.59,1.02-15.18,0.97-22.77
		C659.66,235.03,656.7,199.5,647.24,164.75z M782.26,352.97c0.4-7.95-0.83-15.75-1.86-23.59c-0.43-3.31-1.85-5.09-4.99-5.97
		c-26.48-7.43-52.96-14.87-79.39-22.45c-3.94-1.13-5.09,0.02-4.95,3.89c0.64,16.77-0.64,33.48-1.97,50.18
		c-1.32,5.85-2.4,11.76-4.03,17.52c-1.32,4.67-0.5,6.82,4.82,7.4c29.2,3.2,58.11,8.18,86.52,15.74c4.83,1.29,6.46-0.16,6.49-4.62
		c0.05-8.2,0.02-16.39,0.02-24.59c1.08-3.83,0.43-7.59-0.49-11.34C782.37,354.43,782.32,353.7,782.26,352.97z M286.9,383.72
		c-0.42,13.55-0.42,13.56,11.97,10.44c21.36-5.39,42.99-9.47,64.83-12.26c22.76-2.91,22.78-2.7,17.1-25.01
		c-0.1-0.64-0.19-1.28-0.29-1.92c-0.35-2.48-0.7-4.97-1.06-7.45c-0.35-14.18-0.89-28.35-0.96-42.53c-0.03-4.93-1.91-5.02-5.77-3.91
		c-26.08,7.5-52.2,14.86-78.3,22.29c-2.45,0.7-4.73,1.57-5.06,4.79C287.4,346.64,284.17,365.05,286.9,383.72z M391.19,306.13
		c-2.18,15.98,1.28,52.43,5.97,66.96c0.85,2.62,1.3,4.82,4.75,4.42c7.33-0.85,14.67-1.61,22.72-2.49
		c-4.65-10.92-9.36-21.12-9.48-31.64c-0.21-17.24-9-27.88-22.37-36.34C392.5,306.88,392.22,306.73,391.19,306.13z M678.89,305.62
		c-11.74,9.45-24.44,15.69-23.43,32.88c0.39,6.64-2.79,13.52-4.58,20.23c-1.44,5.41-3.25,10.73-4.89,16.1
		c5.58,0.76,11.26,1.11,16.72,2.37c6.82,1.58,9.4-0.97,10.75-7.57C677.68,349.09,679.95,328.44,678.89,305.62z"/>
	<path class="st9" d="M490.3,345.41c0.14-11.71,0.71-23.43,0.24-35.11c-0.28-6.9,2.15-9.21,8.6-8.15c6.78,1.11,9.24-1.04,9.1-8.55
		c-0.52-27.22-0.17-54.46-0.24-81.7c-0.01-4.09,1.72-9.03-5.91-8.9c-7.07,0.12-5.35,4.66-5.42,8.42
		c-0.25,12.97-0.19,12.97-13.15,12.97c-11.08,0-22.17-0.21-33.25,0.1c-5.05,0.14-6.49-1.69-6.43-6.58
		c0.22-20.26,0.25-40.54-0.02-60.8c-0.07-5.48,1.8-6.99,7.1-6.98c56.69,0.15,113.37,0.16,170.06,0c5.58-0.02,7.82,1.37,7.72,7.4
		c-0.33,19.94-0.27,39.9-0.03,59.85c0.06,5.13-1.08,7.31-6.75,7.14c-12.97-0.4-25.97-0.4-38.94,0c-5.56,0.17-7.32-1.74-6.74-7.01
		c0.34-3.13-0.09-6.34,0.1-9.49c0.22-3.75-1.44-5.05-5.05-4.89c-3.28,0.14-6.52-0.25-6.33,4.65c0.17,4.43,0.02,8.87,0.02,13.3
		c0,24.07,0.26,48.14-0.17,72.2c-0.12,6.93,1.46,10.22,8.77,8.87c7.79-1.44,9.54,2.22,9.26,9.44c-0.44,11.36,0.2,22.76,0.39,34.15
		c-2.6,4.18,4.35,13.14-6.89,13.07c-26.51-0.17-53.03-0.12-79.54,0c-4.33,0.02-6.52-1.15-6.12-5.86
		C490.88,350.46,490.44,347.92,490.3,345.41z M520.94,317.3c-14.75,0.52-14.75,0.52-14.7,15.65c0,0.95,0.1,1.91-0.02,2.85
		c-0.66,5.51,1.21,7.98,7.3,7.84c15.5-0.35,31.02-0.29,46.53-0.03c5.45,0.09,7.5-1.97,7.01-7.23c-0.23-2.51-0.37-5.11,0.02-7.58
		c1.33-8.47-2.16-11.65-10.49-10.39c-6.04,0.92-8.35-1.72-8.31-8.02c0.22-38.61,0.19-77.23,0.02-115.85
		c-0.02-5.42,1.83-7.22,7.16-7.03c9.48,0.33,19.01,0.44,28.48-0.03c6.32-0.32,8.05,1.95,8,8.09c-0.11,14.37,0.19,14.19,14.88,13.27
		c4.42-0.28,6.19-1.67,6.11-6.15c-0.19-10.44-0.18-20.89,0-31.33c0.08-4.44-1.55-6.21-6.07-6.2c-46.85,0.09-93.69,0.1-140.54-0.02
		c-5.31-0.01-6.32,2.58-6.22,7.08c0.18,8.54,0.6,17.14-0.1,25.62c-0.71,8.61,2.03,11.32,10.9,11.23
		c8.36-0.08,11.82-2.27,10.36-10.67c-1.5-8.65,1.97-11.73,10.79-10.99c9.75,0.82,19.6,0.32,29.41,0.4c0.67,0.59,1.33,1.17,2,1.76
		c0.02,41.81,0.04,83.61,0.06,125.42C522.66,315.77,521.8,316.54,520.94,317.3z"/>
	<path class="st11" d="M490.3,345.41c0.14,2.51,0.57,5.05,0.36,7.53c-0.4,4.71,1.79,5.88,6.12,5.86c26.51-0.13,53.03-0.17,79.54,0
		c11.23,0.07,4.29-8.89,6.89-13.07c24.7,0.86,30.04-4.95,40.57-33.98c9.43-26.03,13.16-53.68,15.66-81.37
		c1.79-19.78,4.22-39.5,3.69-59.41c-0.08-3.05,0.2-5.81,4.11-6.21c9.46,34.74,12.42,70.27,12.66,106.1
		c0.05,7.59-0.89,15.18-0.97,22.77c-0.08,8.25-1.21,15.62-9.75,19.74c-4.05,1.95-3.67,6.22-3.98,10.02
		c-1.22,15.26-4.55,30.01-10.51,44.18c-1.91,4.54-4.07,6.86-9.75,6.53c-60.13-3.59-120.29-3.63-180.43-0.07
		c-4.97,0.29-7.38-1.32-9.3-5.73c-6.26-14.39-9.89-29.39-10.84-44.98c-0.31-5.2-1.61-9.28-6.35-11.8
		c-5.33-2.83-6.75-7.27-7.19-13.21c-3.54-48.45,1.05-96.08,13.49-143c4.5,8.75,2.89,18.61,3.34,27.63
		c1.85,36.53,6.67,72.57,13.95,108.32c2.65,13,7.39,25.36,13.25,37.35C462.34,343.85,474.8,347.61,490.3,345.41z"/>
	<path class="st12" d="M810.4,409.98c0.32-6.76-5.7-5.92-9.3-7.01c-5.2-1.58-6.84-3.98-6.27-9.41c0.87-8.4,0.8-16.89,1.13-25.35
		c5.26,4.55,6.25,11.25,8.45,17.27c2.98,8.14,7.08,15.46,13.43,21.41c1.53,1.43,4.67,2.16,3.54,4.86c-1.73,4.12-3.8-1.79-6.19-0.19
		C813.52,412.69,811.54,411.94,810.4,409.98z"/>
	<path class="st12" d="M273.48,370.11c0.22,4.37,0.52,8.73,0.66,13.1c0.58,18.75,0.56,18.75-18.77,23.52
		c3.88-12.11,11.48-22.65,14.92-34.97C270.5,370.97,272.38,370.64,273.48,370.11z"/>
	<path class="st5" d="M754.83,212.55c-1.04-0.06-2.09-0.13-3.13-0.19c-4.39-9.9-8.77-19.8-13.16-29.7c0.77-0.4,1.53-0.81,2.3-1.21
		C747.91,190.52,752.8,200.77,754.83,212.55z"/>
	<path class="st13" d="M347.96,623.4c0.51-4.86,3.39-6.87,6.14-7.76c8.39-2.72,9.85-7.15,8.42-16.07
		c-2.8-17.48,1.34-34.07,13.38-47.85c14.46-16.55,33.45-15.07,44.63,3.82c8.69,14.69,11.01,30.98,8.62,47.7
		c-1.72,12.05-7.56,17.1-19.85,17.68c-12.33,0.58-24.71,0.59-37.06,0.34C364.27,621.08,356.52,622.55,347.96,623.4z M400.71,578.37
		c6-0.56,9.66-4.01,9.56-9.72c-0.11-6.07-3.67-10-10.31-9.63c-6.15,0.34-9.31,4.54-9.06,9.99
		C391.14,574.46,394.69,578.18,400.71,578.37z"/>
	<path class="st13" d="M345.87,623.51c0.15,0.18,0.31,0.36,0.47,0.54c-0.19,0.15-0.38,0.43-0.56,0.42c-0.18-0.01-0.35-0.3-0.52-0.46
		C345.45,623.86,345.63,623.7,345.87,623.51z"/>
	<path class="st13" d="M725.36,612.4c-19.47-2.14-37.76,4.63-56.75,3.81c-20.64-0.89-27.95-6.95-28.95-27.64
		c-0.63-13.1,1.09-25.95,6.88-37.88c10.19-21.01,31.96-23.48,46.49-5.17c11.09,13.97,15.63,30.35,14.51,47.93
		c-0.42,6.56,0.24,9.81,7.45,10.5C719.61,604.39,723.95,606.66,725.36,612.4z M677.31,559.65c-0.08-5.04-4.16-7.86-9.68-7.77
		c-5.62,0.09-9.54,3.5-9.39,9.57c0.16,6.36,4.12,10.16,10.26,9.72C674,570.77,677.53,567.11,677.31,559.65z"/>
	<path class="st2" d="M782.92,366.49c0,8.2,0.03,16.39-0.02,24.59c-0.03,4.46-1.66,5.9-6.49,4.62
		c-28.41-7.56-57.31-12.54-86.52-15.74c-5.32-0.58-6.14-2.73-4.82-7.4c1.63-5.76,2.71-11.68,4.03-17.52c6.29-2.33,6-8.48,7.02-13.32
		c3.29-15.61,11.59-21.96,26.78-18.67c11.62,2.52,23.05,5.93,34.57,8.92c11.51,3,18.19,10.34,20.65,22
		C779.04,358.3,778.37,363.47,782.92,366.49z"/>
	<path class="st2" d="M379.45,347.53c0.35,2.48,0.7,4.97,1.06,7.45c-0.22,0.21-0.67,0.53-0.63,0.61c0.25,0.47,0.6,0.88,0.91,1.31
		c5.69,22.31,5.66,22.1-17.1,25.01c-21.84,2.79-43.46,6.87-64.83,12.26c-12.39,3.12-12.39,3.11-11.97-10.44
		c2.34-1.25,2.5-3.45,2.49-5.72c-0.02-8.9,2.46-17.41,3.97-26.08c1.75-10.03,7.54-15.95,17.29-19.1c11.14-3.6,22.57-5.81,33.88-8.57
		c17.38-4.25,24.96-0.04,29.95,16.63C375.35,343.77,374.73,347.58,379.45,347.53z"/>
	<path class="st12" d="M379.45,347.53c-4.71,0.05-4.09-3.76-4.96-6.65c-5-16.67-12.58-20.88-29.95-16.63
		c-11.31,2.77-22.74,4.98-33.88,8.57c-9.75,3.15-15.54,9.07-17.29,19.1c-1.51,8.67-3.99,17.18-3.97,26.08
		c0.01,2.27-0.16,4.47-2.49,5.72c-2.72-18.67,0.51-37.08,2.45-55.55c0.34-3.21,2.62-4.09,5.06-4.79
		c26.1-7.44,52.22-14.79,78.3-22.29c3.86-1.11,5.75-1.01,5.77,3.91C378.55,319.18,379.09,333.35,379.45,347.53z"/>
	<path class="st12" d="M782.92,366.49c-4.56-3.02-3.88-8.19-4.79-12.51c-2.46-11.66-9.13-19.01-20.65-22
		c-11.52-3-22.95-6.41-34.57-8.92c-15.19-3.29-23.49,3.06-26.78,18.67c-1.02,4.84-0.73,11-7.02,13.32
		c1.33-16.7,2.61-33.41,1.97-50.18c-0.15-3.88,1.01-5.02,4.95-3.89c26.44,7.58,52.91,15.02,79.39,22.45
		c3.14,0.88,4.55,2.66,4.99,5.97c1.03,7.84,2.26,15.64,1.85,23.59c-1.69,0.87-1.28,1.56,0.17,2.18
		C783.35,358.9,784,362.66,782.92,366.49z"/>
	<path class="st14" d="M391.19,306.13c1.03,0.6,1.31,0.75,1.58,0.92c13.37,8.46,22.16,19.1,22.37,36.34
		c0.13,10.52,4.83,20.72,9.48,31.64c-8.05,0.87-15.39,1.63-22.72,2.49c-3.44,0.4-3.9-1.8-4.75-4.42
		C392.47,358.57,389,322.11,391.19,306.13z"/>
	<path class="st14" d="M678.89,305.62c1.07,22.82-1.21,43.47-5.42,64.01c-1.35,6.6-3.93,9.15-10.75,7.57
		c-5.46-1.27-11.14-1.62-16.72-2.37c1.64-5.36,3.44-10.68,4.89-16.1c1.79-6.71,4.97-13.6,4.58-20.23
		C654.45,321.31,667.15,315.07,678.89,305.62z"/>
	<path class="st12" d="M380.79,356.89c-0.32-0.43-0.67-0.84-0.91-1.31c-0.04-0.07,0.41-0.4,0.63-0.61
		C380.6,355.62,380.69,356.25,380.79,356.89z"/>
	<path class="st2" d="M782.43,355.15c-1.45-0.62-1.87-1.31-0.17-2.18C782.32,353.7,782.37,354.43,782.43,355.15z"/>
	<path class="st15" d="M521.45,187.83c-9.81-0.08-19.67,0.42-29.41-0.4c-8.82-0.74-12.29,2.33-10.79,10.99
		c1.46,8.4-2,10.59-10.36,10.67c-8.87,0.08-11.61-2.62-10.9-11.23c0.7-8.49,0.29-17.08,0.1-25.62c-0.1-4.51,0.91-7.1,6.22-7.08
		c46.85,0.12,93.69,0.11,140.54,0.02c4.52-0.01,6.15,1.75,6.07,6.2c-0.19,10.44-0.19,20.89,0,31.33c0.08,4.48-1.69,5.87-6.11,6.15
		c-14.7,0.92-14.99,1.1-14.88-13.27c0.05-6.14-1.68-8.41-8-8.09c-9.47,0.47-18.99,0.36-28.48,0.03c-5.33-0.18-7.18,1.61-7.16,7.03
		c0.17,38.61,0.2,77.23-0.02,115.85c-0.04,6.3,2.27,8.94,8.31,8.02c8.33-1.26,11.82,1.91,10.49,10.39
		c-0.39,2.47-0.25,5.07-0.02,7.58c0.49,5.26-1.56,7.33-7.01,7.23c-15.51-0.26-31.02-0.33-46.53,0.03c-6.09,0.14-7.95-2.33-7.3-7.84
		c0.11-0.94,0.02-1.9,0.02-2.85c-0.05-15.12-0.05-15.12,14.71-15.65c0,0,0.27-0.11,0.27-0.11c0.8,1.19,1.45,1.1,1.96-0.23
		c0.12-0.65,0.23-1.3,0.35-1.96c-0.02-41.81-0.04-83.61-0.06-125.42C523.33,188.38,522.63,187.83,521.45,187.83z"/>
	<path class="st13" d="M523.52,315.01c-0.12,0.65-0.23,1.3-0.35,1.96c-0.65,0.08-1.3,0.15-1.96,0.23c0,0-0.26,0.11-0.27,0.11
		C521.8,316.54,522.66,315.77,523.52,315.01z"/>
	<path class="st13" d="M521.45,187.83c1.18,0,1.88,0.55,2,1.76C522.79,189,522.12,188.41,521.45,187.83z"/>
	<path class="st0" d="M400.71,578.37c-6.01-0.19-9.57-3.92-9.81-9.36c-0.24-5.45,2.91-9.65,9.06-9.99
		c6.64-0.37,10.2,3.56,10.31,9.63C410.37,574.37,406.71,577.81,400.71,578.37z"/>
	<path class="st0" d="M677.31,559.65c0.22,7.46-3.31,11.12-8.8,11.52c-6.14,0.44-10.1-3.36-10.26-9.72
		c-0.15-6.07,3.76-9.47,9.39-9.57C673.15,551.79,677.23,554.61,677.31,559.65z"/>
	<path class="st9" d="M521.21,317.19c0.65-0.08,1.31-0.15,1.96-0.23C522.66,318.29,522.01,318.38,521.21,317.19z"/>
</g>
</svg>
